<svg version="1.1" width="512.000000" height="512.000000" viewBox="0.000000 0.000000 512.000000 512.000000" xmlns="http://www.w3.org/2000/svg" xmlns:xlink="http://www.w3.org/1999/xlink" overflow="hidden"><style>
.MsftOfcThm_Accent6_Fill {
 fill:#62A39F; 
}
</style>
<defs></defs><g><g><g><path d=" M 405.299988 266.700012 L 405.299988 224.000000 C 405.299988 206.300003 391.000000 192.000000 373.299988 192.000000 L 224.000000 192.000000 C 206.300003 192.000000 192.000000 206.300003 192.000000 224.000000 L 192.000000 480.000000 C 192.000000 497.700012 206.300003 512.000000 224.000000 512.000000 L 373.299988 512.000000 C 391.000000 512.000000 405.299988 497.700012 405.299988 480.000000 L 405.299988 426.700012 L 384.000000 426.700012 L 384.000000 480.000000 C 384.000000 485.899994 379.200012 490.700012 373.299988 490.700012 L 224.000000 490.700012 C 218.100006 490.700012 213.300003 485.899994 213.300003 480.000000 L 213.300003 224.000000 C 213.300003 218.100006 218.100006 213.300003 224.000000 213.300003 L 373.299988 213.300003 C 379.200012 213.300003 384.000000 218.100006 384.000000 224.000000 L 384.000000 266.700012 L 405.299988 266.700012 Z" fill="#62A39F" fill-opacity="1.000000"/></g></g><g><g><path d=" M 458.700012 347.299988 C 457.399994 313.200012 428.799988 286.700012 394.700012 288.000000 L 298.700012 288.000000 C 292.799988 288.000000 288.000000 292.799988 288.000000 298.700012 C 287.899994 300.299988 287.899994 301.799988 288.000000 303.399994 C 289.299988 337.500000 317.899994 364.000000 352.000000 362.700012 L 363.700012 362.700012 C 367.500000 388.299988 390.100006 406.799988 416.000000 405.399994 L 416.000000 384.000000 C 414.899994 384.100006 413.799988 384.100006 412.799988 384.000000 C 396.000000 383.100006 383.100006 368.799988 384.000000 352.000000 C 384.000000 346.100006 379.200012 341.299988 373.299988 341.299988 L 352.000000 341.299988 C 332.000000 342.899994 314.200012 329.000000 310.700012 309.299988 L 394.700012 309.299988 C 396.399994 309.299988 437.399994 309.799988 437.399994 352.000000 L 458.700012 352.000000 C 458.700012 350.399994 458.700012 348.899994 458.700012 347.299988 Z" fill="#62A39F" fill-opacity="1.000000"/></g></g><g><g><path d=" M 501.299988 320.000000 L 448.000000 320.000000 L 448.000000 341.299988 L 490.700012 341.299988 L 490.700012 437.299988 L 448.000000 437.299988 L 448.000000 458.600006 L 501.299988 458.600006 C 507.200012 458.600006 512.000000 453.799988 512.000000 447.899994 L 512.000000 330.700012 C 512.000000 324.799988 507.200012 320.000000 501.299988 320.000000 Z" fill="#62A39F" fill-opacity="1.000000"/></g></g><g><g><path d=" M 202.699997 298.700012 L 181.399994 298.700012 C 163.699997 298.700012 149.399994 313.000000 149.399994 330.700012 C 149.399994 348.399994 163.699997 362.700012 181.399994 362.700012 L 202.699997 362.700012 C 208.600006 362.700012 213.399994 357.899994 213.399994 352.000000 L 213.399994 309.299988 C 213.300003 303.399994 208.600006 298.700012 202.699997 298.700012 Z M 192.000000 341.299988 L 181.300003 341.299988 C 175.399994 341.299988 170.600006 336.500000 170.600006 330.600006 C 170.600006 324.700012 175.399994 319.899994 181.300003 319.899994 L 192.000000 319.899994 L 192.000000 341.299988 Z" fill="#62A39F" fill-opacity="1.000000"/></g></g><g><g><path d=" M 202.699997 341.299988 L 181.399994 341.299988 C 163.699997 341.299988 149.399994 355.600006 149.399994 373.299988 C 149.399994 391.000000 163.699997 405.299988 181.399994 405.299988 L 202.699997 405.299988 C 208.600006 405.299988 213.399994 400.500000 213.399994 394.600006 L 213.399994 352.000000 C 213.300003 346.100006 208.600006 341.299988 202.699997 341.299988 Z M 192.000000 384.000000 L 181.300003 384.000000 C 175.399994 384.000000 170.600006 379.200012 170.600006 373.299988 C 170.600006 367.399994 175.399994 362.600006 181.300003 362.600006 L 192.000000 362.600006 L 192.000000 384.000000 Z" fill="#62A39F" fill-opacity="1.000000"/></g></g><g><g><path d=" M 202.699997 384.000000 L 181.399994 384.000000 C 163.699997 384.000000 149.399994 398.299988 149.399994 416.000000 C 149.399994 433.700012 163.699997 448.000000 181.399994 448.000000 L 202.699997 448.000000 C 208.600006 448.000000 213.399994 443.200012 213.399994 437.299988 L 213.399994 394.600006 C 213.300003 388.799988 208.600006 384.000000 202.699997 384.000000 Z M 192.000000 426.700012 L 181.300003 426.700012 C 175.399994 426.700012 170.600006 421.899994 170.600006 416.000000 C 170.600006 410.100006 175.399994 405.299988 181.300003 405.299988 L 192.000000 405.299988 L 192.000000 426.700012 Z" fill="#62A39F" fill-opacity="1.000000"/></g></g><g><g><path d=" M 202.699997 426.700012 L 181.399994 426.700012 C 163.699997 426.700012 149.399994 441.000000 149.399994 458.700012 C 149.399994 476.399994 163.699997 490.700012 181.399994 490.700012 L 202.699997 490.700012 C 208.600006 490.700012 213.399994 485.899994 213.399994 480.000000 L 213.399994 437.299988 C 213.300003 431.399994 208.600006 426.700012 202.699997 426.700012 Z M 192.000000 469.299988 L 181.300003 469.299988 C 175.399994 469.299988 170.600006 464.500000 170.600006 458.600006 C 170.600006 452.700012 175.399994 447.899994 181.300003 447.899994 L 192.000000 447.899994 L 192.000000 469.299988 Z" fill="#62A39F" fill-opacity="1.000000"/></g></g><g><g><path d=" M 437.299988 426.700012 C 437.299988 450.299988 418.200012 469.399994 394.600006 469.399994 L 394.600006 490.700012 C 429.899994 490.700012 458.600006 462.000000 458.600006 426.700012 L 437.299988 426.700012 Z" fill="#62A39F" fill-opacity="1.000000"/></g></g><g><g><rect x="277.300000" y="448.000000" width="42.700000" height="21.300000" fill="#62A39F" fill-opacity="1.000000"/></g></g><g><g><rect x="234.700000" y="234.700000" width="21.300000" height="21.300000" fill="#62A39F" fill-opacity="1.000000"/></g></g><g><g><rect x="277.300000" y="234.700000" width="21.300000" height="21.300000" fill="#62A39F" fill-opacity="1.000000"/></g></g><g><g><rect x="234.700000" y="277.300000" width="21.300000" height="21.300000" fill="#62A39F" fill-opacity="1.000000"/></g></g><g><g><path d=" M 330.700012 0.000000 L 32.000000 0.000000 C 14.300000 0.000000 0.000000 14.300000 0.000000 32.000000 L 0.000000 245.300003 C 0.000000 263.000000 14.300000 277.299988 32.000000 277.299988 L 170.699997 277.299988 L 170.699997 256.000000 L 32.000000 256.000000 C 26.100000 256.000000 21.299999 251.199997 21.299999 245.300003 L 21.299999 32.000000 C 21.299999 26.100000 26.100000 21.299999 32.000000 21.299999 L 330.700012 21.299999 C 336.600006 21.299999 341.399994 26.100000 341.399994 32.000000 L 341.399994 170.699997 L 362.700012 170.699997 L 362.700012 32.000000 C 362.700012 14.300000 348.299988 0.000000 330.700012 0.000000 Z" fill="#62A39F" fill-opacity="1.000000"/></g></g><g><g><rect x="96.000000" y="266.700000" width="21.300000" height="53.300000" fill="#62A39F" fill-opacity="1.000000"/></g></g><g><g><rect x="74.700000" y="309.300000" width="53.300000" height="21.300000" fill="#62A39F" fill-opacity="1.000000"/></g></g><g><g><path d=" M 256.000000 64.000000 L 213.300003 64.000000 L 213.300003 85.300003 L 256.000000 85.300003 C 261.899994 85.300003 266.700012 90.099998 266.700012 96.000000 L 266.700012 117.300003 C 266.700012 123.199997 261.899994 128.000000 256.000000 128.000000 L 207.100006 128.000000 L 220.899994 114.199997 L 205.800003 99.099998 L 173.800003 131.100006 C 171.800003 133.100006 170.699997 135.800003 170.699997 138.600006 C 170.699997 144.500000 175.500000 149.300003 181.399994 149.300003 L 256.000000 149.300003 L 256.000000 149.300003 C 273.700012 149.300003 288.000000 135.000000 288.000000 117.300003 L 288.000000 96.000000 C 288.000000 78.300003 273.700012 64.000000 256.000000 64.000000 Z" fill="#62A39F" fill-opacity="1.000000"/></g></g><g><g><path d=" M 188.899994 67.099998 L 156.899994 35.099998 L 141.800003 50.200001 L 155.600006 64.000000 L 106.699997 64.000000 C 89.000000 64.000000 74.699997 78.300003 74.699997 96.000000 L 74.699997 117.300003 C 74.699997 135.000000 89.000000 149.300003 106.699997 149.300003 L 149.399994 149.300003 L 149.399994 128.000000 L 106.699997 128.000000 C 100.800003 128.000000 96.000000 123.199997 96.000000 117.300003 L 96.000000 96.000000 C 96.000000 90.099998 100.800003 85.300003 106.699997 85.300003 L 181.399994 85.300003 C 184.199997 85.300003 186.899994 84.199997 188.899994 82.199997 C 193.000000 78.000000 193.000000 71.300003 188.899994 67.099998 Z" fill="#62A39F" fill-opacity="1.000000"/></g></g><g><g><rect x="142.700000" y="80.000000" width="45.300000" height="21.300000" fill="#62A39F" fill-opacity="1.000000" transform="matrix(0.707100,-0.707100,0.707100,0.707100,-15.685800,143.463000)"/></g></g><g><g><rect x="186.700000" y="132.000000" width="21.300000" height="45.300000" fill="#62A39F" fill-opacity="1.000000" transform="matrix(0.707100,-0.707100,0.707100,0.707100,-51.568900,184.834000)"/></g></g><g><g><path d=" M 74.699997 213.300003 C 68.800003 213.300003 64.000000 208.500000 64.000000 202.600006 L 64.000000 181.300003 L 42.700001 181.300003 L 42.700001 202.600006 C 42.700001 220.300003 57.000000 234.600006 74.699997 234.600006 L 96.000000 234.600006 L 96.000000 213.300003 L 74.699997 213.300003 L 74.699997 213.300003 Z" fill="#62A39F" fill-opacity="1.000000"/></g></g><g><g><rect x="117.300000" y="213.300000" width="21.300000" height="21.300000" fill="#62A39F" fill-opacity="1.000000"/></g></g></g></svg>