<svg version="1.1" width="512.000000" height="512.000000" viewBox="0.000000 0.000000 512.000000 512.000000" xmlns="http://www.w3.org/2000/svg" xmlns:xlink="http://www.w3.org/1999/xlink" overflow="hidden">
<defs></defs><g><g><g><path d=" M 394.700012 0.000000 L 32.000000 0.000000 C 14.300000 0.000000 0.000000 14.300000 0.000000 32.000000 L 0.000000 288.000000 C 0.000000 305.700012 14.300000 320.000000 32.000000 320.000000 L 341.299988 320.000000 L 341.299988 298.700012 L 32.000000 298.700012 C 26.100000 298.700012 21.299999 293.899994 21.299999 288.000000 L 21.299999 32.000000 C 21.299999 26.100000 26.100000 21.299999 32.000000 21.299999 L 394.700012 21.299999 C 400.600006 21.299999 405.399994 26.100000 405.399994 32.000000 L 405.399994 149.300003 L 426.700012 149.300003 L 426.700012 32.000000 C 426.700012 14.300000 412.299988 0.000000 394.700012 0.000000 Z" class="MsftOfcThm_Text1_Fill" fill="#62A39F" fill-opacity="1.000000"/></g></g><g><g><path d=" M 266.700012 309.299988 L 266.700012 362.600006 L 160.000000 362.600006 L 160.000000 309.299988 L 138.699997 309.299988 L 138.699997 373.299988 C 138.699997 379.200012 143.500000 384.000000 149.399994 384.000000 L 277.399994 384.000000 C 283.299988 384.000000 288.100006 379.200012 288.100006 373.299988 L 288.100006 309.299988 L 266.700012 309.299988 Z" class="MsftOfcThm_Text1_Fill" fill="#62A39F" fill-opacity="1.000000"/></g></g><g><g><rect x="117.300000" y="362.700000" width="192.000000" height="21.300000" class="MsftOfcThm_Text1_Fill" fill="#62A39F" fill-opacity="1.000000"/></g></g><g><g><rect x="10.700000" y="234.700000" width="352.000000" height="21.300000" class="MsftOfcThm_Text1_Fill" fill="#62A39F" fill-opacity="1.000000"/></g></g><g><g><path d=" M 74.699997 192.000000 C 68.800003 192.000000 64.000000 187.199997 64.000000 181.300003 L 64.000000 160.000000 L 42.700001 160.000000 L 42.700001 181.300003 C 42.700001 199.000000 57.000000 213.300003 74.699997 213.300003 L 96.000000 213.300003 L 96.000000 192.000000 L 74.699997 192.000000 Z" class="MsftOfcThm_Text1_Fill" fill="#62A39F" fill-opacity="1.000000"/></g></g><g><g><rect x="42.700000" y="117.300000" width="21.300000" height="21.300000" class="MsftOfcThm_Text1_Fill" fill="#62A39F" fill-opacity="1.000000"/></g></g><g><g><path d=" M 426.700012 277.299988 C 379.600006 277.299988 341.399994 315.500000 341.399994 362.600006 L 341.399994 426.600006 C 341.500000 473.700012 379.600006 511.899994 426.700012 511.899994 C 473.799988 511.799988 512.000000 473.700012 512.000000 426.600006 L 512.000000 362.600006 C 512.000000 315.500000 473.799988 277.299988 426.700012 277.299988 Z M 490.700012 426.700012 C 490.700012 462.000000 462.000000 490.700012 426.700012 490.700012 C 391.399994 490.700012 362.700012 462.000000 362.700012 426.700012 L 362.700012 362.700012 C 362.700012 327.399994 391.399994 298.700012 426.700012 298.700012 C 462.000000 298.700012 490.700012 327.399994 490.700012 362.700012 L 490.700012 426.700012 Z" class="MsftOfcThm_Text1_Fill" fill="#62A39F" fill-opacity="1.000000"/></g></g><g><g><rect x="416.000000" y="288.000000" width="21.300000" height="64.000000" class="MsftOfcThm_Text1_Fill" fill="#62A39F" fill-opacity="1.000000"/></g></g><g><g><path d=" M 404.000000 244.000000 L 419.100006 259.100006 C 423.299988 254.899994 430.000000 254.899994 434.200012 259.100006 L 449.299988 244.000000 C 436.799988 231.600006 416.500000 231.600006 404.000000 244.000000 Z" class="MsftOfcThm_Text1_Fill" fill="#62A39F" fill-opacity="1.000000"/></g></g><g><g><path d=" M 381.399994 200.100006 L 396.500000 215.199997 C 413.399994 199.100006 439.899994 199.100006 456.799988 215.199997 L 471.899994 200.100006 C 446.899994 175.100006 406.399994 175.100006 381.399994 200.100006 Z" class="MsftOfcThm_Text1_Fill" fill="#62A39F" fill-opacity="1.000000"/></g></g><g><g><path d=" M 380.899994 100.099998 L 349.600006 68.900002 L 357.600006 60.900002 C 359.600006 58.900002 360.700012 56.200001 360.700012 53.400002 C 360.700012 47.500000 355.899994 42.700001 350.000000 42.700001 L 288.000000 42.700001 C 282.100006 42.700001 277.299988 47.500000 277.299988 53.400002 L 277.299988 115.500000 C 277.299988 118.300003 278.399994 121.000000 280.399994 123.000000 C 284.600006 127.199997 291.299988 127.199997 295.500000 123.000000 L 303.500000 115.000000 L 334.799988 146.199997 C 336.799988 148.199997 339.500000 149.300003 342.299988 149.300003 L 342.299988 149.300003 C 345.100006 149.300003 347.899994 148.199997 349.899994 146.199997 L 380.899994 115.199997 C 385.000000 111.000000 385.000000 104.300003 380.899994 100.099998 Z M 342.299988 123.599998 L 311.000000 92.400002 C 309.000000 90.400002 306.299988 89.300003 303.500000 89.300003 C 301.799988 89.300003 300.200012 89.699997 298.700012 90.500000 L 298.700012 64.000000 L 325.000000 64.000000 C 324.200012 65.500000 323.799988 67.099998 323.799988 68.800003 C 323.799988 71.599998 324.899994 74.300003 326.899994 76.300003 L 358.200012 107.500000 L 342.299988 123.599998 Z" class="MsftOfcThm_Text1_Fill" fill="#62A39F" fill-opacity="1.000000"/></g></g><g><g><rect x="234.700000" y="42.700000" width="21.300000" height="21.300000" class="MsftOfcThm_Text1_Fill" fill="#62A39F" fill-opacity="1.000000"/></g></g><g><g><rect x="192.000000" y="42.700000" width="21.300000" height="21.300000" class="MsftOfcThm_Text1_Fill" fill="#62A39F" fill-opacity="1.000000"/></g></g><g><g><rect x="42.700000" y="42.700000" width="128.000000" height="21.300000" class="MsftOfcThm_Text1_Fill" fill="#62A39F" fill-opacity="1.000000"/></g></g></g></svg>