<svg version="1.1" width="512.000000" height="512.000000" viewBox="0.000000 0.000000 512.000000 512.000000" xmlns="http://www.w3.org/2000/svg" xmlns:xlink="http://www.w3.org/1999/xlink" overflow="hidden"><style>
.MsftOfcThm_Accent6_Fill {
 fill:#62A39F; 
}
</style>
<defs></defs><g><g><g><path d=" M 394.700012 0.000000 L 32.000000 0.000000 C 14.300000 0.000000 0.000000 14.300000 0.000000 32.000000 L 0.000000 288.000000 C 0.000000 305.700012 14.300000 320.000000 32.000000 320.000000 L 170.699997 320.000000 L 170.699997 298.700012 L 32.000000 298.700012 C 26.100000 298.700012 21.299999 293.899994 21.299999 288.000000 L 21.299999 32.000000 C 21.299999 26.100000 26.100000 21.299999 32.000000 21.299999 L 394.700012 21.299999 C 400.600006 21.299999 405.399994 26.100000 405.399994 32.000000 L 405.399994 224.000000 L 426.700012 224.000000 L 426.700012 32.000000 C 426.700012 14.300000 412.299988 0.000000 394.700012 0.000000 Z" fill="#62A39F" fill-opacity="1.000000"/></g></g><g><g><rect x="128.000000" y="309.300000" width="21.300000" height="64.000000" fill="#62A39F" fill-opacity="1.000000"/></g></g><g><g><path d=" M 74.699997 256.000000 C 68.800003 256.000000 64.000000 251.199997 64.000000 245.300003 L 64.000000 224.000000 L 42.700001 224.000000 L 42.700001 245.300003 C 42.700001 263.000000 57.000000 277.299988 74.699997 277.299988 L 96.000000 277.299988 L 96.000000 256.000000 L 74.699997 256.000000 Z" fill="#62A39F" fill-opacity="1.000000"/></g></g><g><g><rect x="42.700000" y="181.300000" width="21.300000" height="21.300000" fill="#62A39F" fill-opacity="1.000000"/></g></g><g><g><path d=" M 389.799988 225.899994 C 368.100006 204.199997 338.600006 191.899994 307.799988 191.899994 C 243.800003 191.899994 191.899994 243.800003 191.899994 307.799988 C 191.899994 371.799988 243.800003 423.700012 307.799988 423.700012 C 338.500000 423.700012 368.000000 411.500000 389.700012 389.799988 C 435.100006 344.600006 435.100006 271.200012 389.799988 225.899994 Z M 307.799988 402.500000 C 255.600006 402.500000 213.300003 360.100006 213.300003 307.899994 C 213.300003 255.699997 255.699997 213.399994 307.899994 213.399994 C 333.000000 213.300003 357.100006 223.300003 374.799988 241.100006 C 392.500000 258.799988 402.500000 282.899994 402.500000 308.000000 C 402.399994 360.100006 360.000000 402.500000 307.799988 402.500000 Z" fill="#62A39F" fill-opacity="1.000000"/></g></g><g><g><path d=" M 508.899994 464.000000 L 441.899994 397.100006 C 439.899994 395.100006 437.200012 394.000000 434.399994 394.000000 C 431.600006 394.000000 428.899994 395.100006 426.899994 397.100006 L 397.100006 426.899994 C 392.899994 431.100006 392.899994 437.799988 397.100006 442.000000 L 464.100006 509.000000 C 466.100006 511.000000 468.799988 512.099976 471.600006 512.099976 L 471.600006 512.099976 C 474.399994 512.099976 477.100006 511.000000 479.100006 508.899994 L 508.899994 479.100006 C 513.000000 474.899994 513.000000 468.200012 508.899994 464.000000 Z M 471.600006 486.299988 L 419.700012 434.399994 L 434.399994 419.700012 L 486.299988 471.600006 L 471.600006 486.299988 Z" fill="#62A39F" fill-opacity="1.000000"/></g></g><g><g><rect x="390.200000" y="374.600000" width="21.300000" height="52.600000" fill="#62A39F" fill-opacity="1.000000" transform="matrix(0.707100,-0.707100,0.707100,0.707100,-166.050000,400.889000)"/></g></g><g><g><path d=" M 309.299988 234.699997 L 309.299988 256.000000 C 338.700012 256.000000 362.600006 279.899994 362.600006 309.299988 L 384.000000 309.299988 C 384.000000 268.100006 350.600006 234.699997 309.299988 234.699997 Z" fill="#62A39F" fill-opacity="1.000000"/></g></g><g><g><rect x="106.700000" y="362.700000" width="85.300000" height="21.300000" fill="#62A39F" fill-opacity="1.000000"/></g></g><g><g><path d=" M 160.000000 42.700001 C 142.300003 42.700001 128.000000 57.000000 128.000000 74.699997 C 128.000000 92.400002 142.300003 106.699997 160.000000 106.699997 C 177.699997 106.699997 192.000000 92.400002 192.000000 74.699997 C 192.000000 57.000000 177.699997 42.700001 160.000000 42.700001 Z M 160.000000 85.300003 C 154.100006 85.300003 149.300003 80.500000 149.300003 74.599998 C 149.300003 68.699997 154.100006 64.000000 160.000000 64.000000 C 165.899994 64.000000 170.699997 68.800003 170.699997 74.699997 C 170.699997 80.599998 165.899994 85.300003 160.000000 85.300003 Z" fill="#62A39F" fill-opacity="1.000000"/></g></g><g><g><path d=" M 234.699997 117.300003 C 217.000000 117.300003 202.699997 131.600006 202.699997 149.300003 C 202.699997 167.000000 217.000000 181.300003 234.699997 181.300003 C 252.399994 181.300003 266.700012 167.000000 266.700012 149.300003 C 266.700012 131.600006 252.300003 117.300003 234.699997 117.300003 Z M 234.699997 160.000000 C 228.800003 160.000000 224.000000 155.199997 224.000000 149.300003 C 224.000000 143.399994 228.800003 138.600006 234.699997 138.600006 C 240.600006 138.600006 245.399994 143.399994 245.399994 149.300003 C 245.300003 155.199997 240.600006 160.000000 234.699997 160.000000 Z" fill="#62A39F" fill-opacity="1.000000"/></g></g><g><g><rect x="85.000000" y="101.300000" width="75.400000" height="21.300000" fill="#62A39F" fill-opacity="1.000000" transform="matrix(0.707100,-0.707100,0.707100,0.707100,-43.270100,119.543000)"/></g></g><g><g><rect x="186.600000" y="74.300000" width="21.300000" height="75.400000" fill="#62A39F" fill-opacity="1.000000" transform="matrix(0.707100,-0.707100,0.707100,0.707100,-21.433500,172.315000)"/></g></g><g><g><path d=" M 309.299988 42.700001 C 291.600006 42.700001 277.299988 57.000000 277.299988 74.699997 C 277.299988 92.400002 291.600006 106.699997 309.299988 106.699997 C 327.000000 106.699997 341.299988 92.400002 341.299988 74.699997 C 341.299988 57.000000 327.000000 42.700001 309.299988 42.700001 Z M 309.299988 85.300003 C 303.399994 85.300003 298.600006 80.500000 298.600006 74.599998 C 298.600006 68.699997 303.399994 64.000000 309.299988 64.000000 C 315.200012 64.000000 320.000000 68.800003 320.000000 74.699997 C 320.000000 80.599998 315.200012 85.300003 309.299988 85.300003 Z" fill="#62A39F" fill-opacity="1.000000"/></g></g><g><g><rect x="234.300000" y="101.400000" width="75.400000" height="21.300000" fill="#62A39F" fill-opacity="1.000000" transform="matrix(0.707100,-0.707100,0.707100,0.707100,0.440500,225.144000)"/></g></g></g></svg>