<svg version="1.1" width="426.700000" height="512.100000" viewBox="0.000000 0.000000 426.700000 512.100000" xmlns="http://www.w3.org/2000/svg" xmlns:xlink="http://www.w3.org/1999/xlink" overflow="hidden"><style>
.MsftOfcThm_Accent6_Fill {
 fill:#62A39F; 
}
</style>
<defs></defs><g><g><g><path d=" M 394.700012 128.100006 L 373.399994 128.100006 L 373.399994 149.399994 L 394.700012 149.399994 C 400.600006 149.399994 405.399994 154.199997 405.399994 160.100006 L 405.399994 416.100006 C 405.399994 422.000000 400.600006 426.799988 394.700012 426.799988 L 32.000000 426.799988 C 26.100000 426.799988 21.299999 422.000000 21.299999 416.100006 L 21.299999 160.100006 C 21.299999 154.199997 26.100000 149.399994 32.000000 149.399994 L 53.299999 149.399994 L 53.299999 128.100006 L 32.000000 128.100006 C 14.300000 128.100006 0.000000 142.399994 0.000000 160.100006 L 0.000000 416.100006 C 0.000000 433.799988 14.300000 448.100006 32.000000 448.100006 L 394.700012 448.100006 C 412.399994 448.100006 426.700012 433.799988 426.700012 416.100006 L 426.700012 160.100006 C 426.700012 142.399994 412.299988 128.100006 394.700012 128.100006 Z" class="MsftOfcThm_Text1_Fill" fill="#62A39F" fill-opacity="1.000000"/></g></g><g><g><path d=" M 266.700012 437.399994 L 266.700012 490.700012 L 160.000000 490.700012 L 160.000000 437.399994 L 138.699997 437.399994 L 138.699997 501.399994 C 138.699997 507.299988 143.500000 512.099976 149.399994 512.099976 L 277.399994 512.099976 C 283.299988 512.099976 288.100006 507.299988 288.100006 501.399994 L 288.100006 437.399994 L 266.700012 437.399994 L 266.700012 437.399994 Z" class="MsftOfcThm_Text1_Fill" fill="#62A39F" fill-opacity="1.000000"/></g></g><g><g><rect x="117.300000" y="490.700000" width="192.000000" height="21.300000" class="MsftOfcThm_Text1_Fill" fill="#62A39F" fill-opacity="1.000000"/></g></g><g><g><rect x="10.700000" y="362.700000" width="373.300000" height="21.300000" class="MsftOfcThm_Text1_Fill" fill="#62A39F" fill-opacity="1.000000"/></g></g><g><g><path d=" M 288.000000 64.099998 L 287.200012 64.099998 C 282.500000 31.299999 256.700012 5.500000 223.899994 0.800000 C 183.100006 -5.100000 145.199997 23.299999 139.399994 64.099998 L 138.600006 64.099998 C 103.300003 64.099998 74.599998 92.800003 74.599998 128.100006 C 74.599998 163.399994 103.300003 192.100006 138.600006 192.100006 L 288.000000 192.100006 C 323.299988 192.100006 352.000000 163.399994 352.000000 128.100006 C 352.000000 92.699997 323.299988 64.099998 288.000000 64.099998 Z M 288.000000 170.699997 L 138.699997 170.699997 C 115.099998 170.699997 96.000000 151.600006 96.000000 128.000000 C 96.000000 104.400002 115.099998 85.300003 138.699997 85.300003 L 149.399994 85.300003 C 155.300003 85.300003 160.100006 80.500000 160.100006 74.599998 C 160.100006 45.099998 184.000000 21.299999 213.399994 21.299999 C 242.800003 21.299999 266.700012 45.200001 266.700012 74.599998 C 266.700012 80.500000 271.500000 85.300003 277.399994 85.300003 L 288.000000 85.300003 C 311.600006 85.300003 330.700012 104.400002 330.700012 128.000000 C 330.700012 151.600006 311.600006 170.699997 288.000000 170.699997 Z" class="MsftOfcThm_Text1_Fill" fill="#62A39F" fill-opacity="1.000000"/></g></g><g><g><path d=" M 178.199997 145.899994 L 202.699997 121.400002 L 202.699997 234.300003 L 224.000000 234.300003 L 224.000000 95.699997 C 224.000000 89.800003 219.199997 85.000000 213.300003 85.000000 C 210.500000 85.000000 207.800003 86.099998 205.800003 88.099998 L 163.100006 130.800003 L 178.199997 145.899994 Z" class="MsftOfcThm_Text1_Fill" fill="#62A39F" fill-opacity="1.000000"/></g></g><g><g><rect x="224.000000" y="86.900000" width="21.300000" height="60.300000" class="MsftOfcThm_Text1_Fill" fill="#62A39F" fill-opacity="1.000000" transform="matrix(0.707100,-0.707100,0.707100,0.707100,-14.044600,200.221000)"/></g></g><g><g><path d=" M 74.699997 320.100006 C 68.800003 320.100006 64.000000 315.299988 64.000000 309.399994 L 64.000000 288.100006 L 42.700001 288.100006 L 42.700001 309.399994 C 42.700001 327.100006 57.000000 341.399994 74.699997 341.399994 L 96.000000 341.399994 L 96.000000 320.100006 L 74.699997 320.100006 Z" class="MsftOfcThm_Text1_Fill" fill="#62A39F" fill-opacity="1.000000"/></g></g><g><g><rect x="42.700000" y="245.400000" width="21.300000" height="21.300000" class="MsftOfcThm_Text1_Fill" fill="#62A39F" fill-opacity="1.000000"/></g></g></g></svg>