<?xml version="1.0" encoding="UTF-8" standalone="no"?>
<svg
   xmlns:dc="http://purl.org/dc/elements/1.1/"
   xmlns:cc="http://creativecommons.org/ns#"
   xmlns:rdf="http://www.w3.org/1999/02/22-rdf-syntax-ns#"
   xmlns:svg="http://www.w3.org/2000/svg"
   xmlns="http://www.w3.org/2000/svg"
   xmlns:sodipodi="http://sodipodi.sourceforge.net/DTD/sodipodi-0.dtd"
   xmlns:inkscape="http://www.inkscape.org/namespaces/inkscape"
   sodipodi:docname="mv-logo.svg"
   inkscape:version="1.1-dev (bc69992, 2020-04-15)"
   id="svg1179"
   version="1.1"
   viewBox="0 0 161.11301 75.673073"
   height="75.673073mm"
   width="161.11301mm">
  <defs
     id="defs1173" />
  <sodipodi:namedview
     inkscape:window-maximized="0"
     inkscape:window-y="26"
     inkscape:window-x="0"
     inkscape:window-height="874"
     inkscape:window-width="1440"
     showgrid="false"
     inkscape:current-layer="layer1"
     inkscape:document-units="mm"
     inkscape:cy="210.84256"
     inkscape:cx="299.04995"
     inkscape:zoom="0.35"
     inkscape:pageshadow="2"
     inkscape:pageopacity="0.0"
     borderopacity="1.0"
     bordercolor="#666666"
     pagecolor="#ffffff"
     id="base" />
  <metadata
     id="metadata1176">
    <rdf:RDF>
      <cc:Work
         rdf:about="">
        <dc:format>image/svg+xml</dc:format>
        <dc:type
           rdf:resource="http://purl.org/dc/dcmitype/StillImage" />
        <dc:title></dc:title>
      </cc:Work>
    </rdf:RDF>
  </metadata>
  <g
     transform="translate(-26.709701,-92.381241)"
     id="layer1"
     inkscape:groupmode="layer"
     inkscape:label="Layer 1">
    <g
       transform="translate(-10.583336,-4.5357144)"
       id="g1264">
      <path
         id="path1268"
         d="m 37.405894,172.07768 c -0.106184,-0.46236 -0.117089,-0.76984 -0.111781,-3.15171 0.0099,-4.44493 0.341404,-9.45909 0.864504,-13.07626 1.973852,-13.64894 7.307925,-26.15092 15.550998,-36.44838 4.732164,-5.91154 11.198283,-11.64918 17.920781,-15.90181 2.210794,-1.39853 5.754305,-3.36992 5.943805,-3.30675 0.096,0.032 -0.52932,0.58633 -1.940548,1.72024 -2.354803,1.89207 -3.79276,3.1857 -5.744169,5.16762 -4.59332,4.66514 -8.613047,9.84409 -11.826656,15.23727 -2.134221,3.58172 -4.313726,8.01005 -5.914385,12.01687 -2.841911,7.11396 -4.829271,14.68579 -5.884287,22.41907 -0.538243,3.94534 -0.766191,6.93705 -0.973569,12.77763 l -0.108598,3.05856 h -3.829216 -3.829216 z m 49.211278,0.40782 c 0.04483,-0.0179 0.09839,-0.0157 0.119032,0.005 0.02064,0.0206 -0.01605,0.0353 -0.08151,0.0326 -0.07235,-0.003 -0.08706,-0.0177 -0.03752,-0.0375 z m 10.992176,0 c 0.04483,-0.0179 0.09839,-0.0157 0.119032,0.005 0.02064,0.0206 -0.01605,0.0353 -0.08151,0.0326 -0.07235,-0.003 -0.08706,-0.0177 -0.03752,-0.0375 z m 1.117848,0 c 0.04483,-0.0179 0.09839,-0.0157 0.119032,0.005 0.02064,0.0206 -0.01605,0.0353 -0.08151,0.0326 -0.07235,-0.003 -0.08706,-0.0177 -0.03752,-0.0375 z m 59.804884,0 c 0.0448,-0.0179 0.0984,-0.0157 0.11904,0.005 0.0206,0.0206 -0.016,0.0353 -0.0815,0.0326 -0.0724,-0.003 -0.0871,-0.0177 -0.0375,-0.0375 z m 24.46846,0 c 0.0448,-0.0179 0.0984,-0.0157 0.11904,0.005 0.0206,0.0206 -0.0161,0.0353 -0.0815,0.0326 -0.0724,-0.003 -0.0871,-0.0177 -0.0375,-0.0375 z m 12.29633,0 c 0.0448,-0.0179 0.0984,-0.0157 0.11904,0.005 0.0206,0.0206 -0.0161,0.0353 -0.0815,0.0326 -0.0724,-0.003 -0.0871,-0.0177 -0.0375,-0.0375 z M 91.191134,169.23648 c 0,-1.7249 0.008,-2.43054 0.01771,-1.56809 0.0097,0.86245 0.0097,2.27373 0,3.13618 -0.0097,0.86246 -0.01771,0.15681 -0.01771,-1.56809 z m 3.840791,2.76357 c 6.21e-4,-0.20494 0.01194,-0.28129 0.02576,-0.16967 0.01382,0.11162 0.01354,0.2793 -6.21e-4,0.37262 -0.01417,0.0933 -0.02548,0.002 -0.02513,-0.20295 z m 15.843035,-0.86944 c -6e-5,-0.68313 0.009,-0.97106 0.0202,-0.63985 0.0112,0.3312 0.0112,0.89013 0,1.24205 -0.0111,0.35192 -0.0202,0.0809 -0.0203,-0.6022 z m 5.40566,-1.89413 c 0,-1.7249 0.008,-2.43054 0.0177,-1.56809 0.01,0.86245 0.01,2.27373 0,3.13618 -0.01,0.86246 -0.0177,0.15681 -0.0177,-1.56809 z m 0.71641,0.52787 c 0,-1.42887 0.0152,-2.58278 0.0337,-2.56424 0.0415,0.0415 0.0376,5.09091 -0.004,5.13244 -0.0164,0.0164 -0.0298,-1.13932 -0.0298,-2.5682 z m 4.33304,0.0561 c -0.009,-1.38664 0.004,-2.55339 0.0287,-2.59279 0.0251,-0.0394 0.0461,1.09514 0.0466,2.52117 6.2e-4,1.42603 -0.0124,2.59279 -0.0287,2.59279 -0.0163,0 -0.0373,-1.13453 -0.0466,-2.52117 z m 0.7882,-0.58397 c 0,-1.7249 0.008,-2.43054 0.0177,-1.56809 0.01,0.86245 0.01,2.27373 0,3.13618 -0.01,0.86246 -0.0177,0.15681 -0.0177,-1.56809 z m 13.7868,0 c 0,-1.7249 0.008,-2.43054 0.0177,-1.56809 0.01,0.86245 0.01,2.27373 0,3.13618 -0.01,0.86246 -0.0177,0.15681 -0.0177,-1.56809 z m 7.0176,0 c 0,-1.7249 0.008,-2.43054 0.0177,-1.56809 0.01,0.86245 0.01,2.27373 0,3.13618 -0.01,0.86246 -0.0177,0.15681 -0.0177,-1.56809 z m 20.18338,0 c 0,-1.7249 0.008,-2.43054 0.0177,-1.56809 0.01,0.86245 0.01,2.27373 0,3.13618 -0.01,0.86246 -0.0177,0.15681 -0.0177,-1.56809 z m 3.84079,2.76357 c 6.2e-4,-0.20494 0.0119,-0.28129 0.0258,-0.16967 0.0138,0.11162 0.0135,0.2793 -6.2e-4,0.37262 -0.0142,0.0933 -0.0255,0.002 -0.0251,-0.20295 z m 25.47166,-2.73252 c 0,-1.70782 0.008,-2.39755 0.0177,-1.53271 0.01,0.86483 0.01,2.26214 -2e-5,3.10513 -0.01,0.84299 -0.0177,0.13541 -0.0177,-1.57242 z m -20.83321,2.80223 c 0,-0.0129 0.0489,-0.0618 0.10868,-0.10868 0.0985,-0.0773 0.1007,-0.0751 0.0234,0.0234 -0.0811,0.10344 -0.13213,0.13634 -0.13213,0.0852 z m 22.44622,-0.17839 -0.1824,-0.20183 0.20183,0.1824 c 0.18814,0.17002 0.23038,0.22127 0.1824,0.22127 -0.0107,0 -0.10151,-0.0908 -0.20183,-0.20184 z m -104.918586,-0.004 c 0,-0.0107 0.09082,-0.10152 0.201833,-0.20184 l 0.201834,-0.1824 -0.182402,0.20183 c -0.170024,0.18814 -0.221265,0.23039 -0.221265,0.18241 z m 71.914916,0 c 0,-0.0107 0.0908,-0.10152 0.20183,-0.20184 l 0.20183,-0.1824 -0.1824,0.20183 c -0.17002,0.18814 -0.22126,0.23039 -0.22126,0.18241 z m 20.45892,-0.18241 -0.1824,-0.20183 0.20184,0.1824 c 0.18814,0.17003 0.23038,0.22127 0.1824,0.22127 -0.0107,0 -0.10151,-0.0908 -0.20184,-0.20184 z m -77.04612,0.0973 c 0.0448,-0.0179 0.0984,-0.0157 0.11904,0.005 0.0206,0.0206 -0.0161,0.0353 -0.0815,0.0326 -0.0724,-0.003 -0.0871,-0.0177 -0.0375,-0.0375 z m 0.80734,0 c 0.0448,-0.0179 0.0984,-0.0157 0.11903,0.005 0.0206,0.0206 -0.016,0.0353 -0.0815,0.0326 -0.0724,-0.003 -0.0871,-0.0177 -0.0375,-0.0375 z m 1.40895,-0.0818 c 0.0618,-0.0683 0.12638,-0.12421 0.14346,-0.12421 0.0171,0 -0.0195,0.0559 -0.0813,0.12421 -0.0618,0.0683 -0.12638,0.1242 -0.14346,0.1242 -0.0171,0 0.0195,-0.0559 0.0814,-0.1242 z m 18.96073,0.0818 c 0.0448,-0.0179 0.0984,-0.0157 0.11903,0.005 0.0206,0.0206 -0.016,0.0353 -0.0815,0.0326 -0.0724,-0.003 -0.0871,-0.0177 -0.0375,-0.0375 z m 0.80733,0 c 0.0448,-0.0179 0.0984,-0.0157 0.11904,0.005 0.0206,0.0206 -0.0161,0.0353 -0.0815,0.0326 -0.0724,-0.003 -0.0871,-0.0177 -0.0375,-0.0375 z m 1.62632,0.019 c 0,-0.0129 0.0489,-0.0618 0.10868,-0.10867 0.0985,-0.0772 0.10069,-0.0751 0.0234,0.0234 -0.0811,0.10344 -0.13213,0.13634 -0.13213,0.0852 z m 24.51892,-0.019 c 0.0448,-0.0179 0.0984,-0.0157 0.11903,0.005 0.0206,0.0206 -0.016,0.0353 -0.0815,0.0326 -0.0724,-0.003 -0.0871,-0.0177 -0.0375,-0.0375 z m 0.99364,0 c 0.0448,-0.0179 0.0984,-0.0157 0.11903,0.005 0.0206,0.0206 -0.016,0.0353 -0.0815,0.0326 -0.0724,-0.003 -0.0871,-0.0177 -0.0375,-0.0375 z m -22.75119,-1.23068 0.002,-1.05575 1.07133,-0.002 1.07133,-0.002 -1.05434,0.0192 -1.05435,0.0192 -0.0192,1.03876 -0.0192,1.03877 0.002,-1.05575 z m 8.07304,-1.64572 c 0,-1.51996 0.008,-2.14177 0.018,-1.38179 0.01,0.75999 0.01,2.00359 0,2.76357 -0.01,0.75998 -0.018,0.13818 -0.018,-1.38178 z m 15.37292,2.64696 c 0,-0.0129 0.0489,-0.0618 0.10868,-0.10868 0.0985,-0.0772 0.1007,-0.0751 0.0234,0.0234 -0.0811,0.10345 -0.13213,0.13635 -0.13213,0.0852 z m -84.366498,-0.16285 c 0.06182,-0.0683 0.126379,-0.12421 0.143457,-0.12421 0.01708,0 -0.01953,0.0559 -0.08135,0.12421 -0.06182,0.0683 -0.126379,0.1242 -0.143458,0.1242 -0.01708,0 0.01953,-0.0559 0.08136,-0.1242 z m 101.289488,0 c 0.0618,-0.0683 0.12637,-0.12421 0.14345,-0.12421 0.0171,0 -0.0195,0.0559 -0.0814,0.12421 -0.0618,0.0683 -0.12638,0.1242 -0.14346,0.1242 -0.0171,0 0.0195,-0.0559 0.0814,-0.1242 z m 23.40681,-0.0155 -0.11831,-0.13973 0.13973,0.1183 c 0.0769,0.0651 0.13974,0.12795 0.13974,0.13974 0,0.0497 -0.05,0.013 -0.16116,-0.11831 z m -127.186305,-0.0621 -0.118306,-0.13973 0.139731,0.1183 c 0.07685,0.0651 0.139731,0.12795 0.139731,0.13973 0,0.0497 -0.04998,0.013 -0.161156,-0.1183 z m 38.851135,-0.0155 c 0.0802,-0.0854 0.15982,-0.15525 0.1769,-0.15525 0.0171,0 -0.0346,0.0699 -0.1148,0.15525 -0.0802,0.0854 -0.15983,0.15526 -0.17691,0.15526 -0.0171,0 0.0346,-0.0699 0.11481,-0.15526 z m -9.56852,-0.0776 -0.150555,-0.17078 0.170782,0.15056 c 0.159623,0.14072 0.199263,0.19101 0.150556,0.19101 -0.01112,0 -0.08798,-0.0769 -0.170783,-0.17079 z m 2.98563,0.0155 c 0.08022,-0.0854 0.159828,-0.15526 0.176906,-0.15526 0.01708,0 -0.03458,0.0699 -0.114803,0.15526 -0.08022,0.0854 -0.159827,0.15526 -0.176906,0.15526 -0.01708,0 0.03459,-0.0699 0.114803,-0.15526 z m 3.68921,0.0155 -0.1183,-0.13973 0.13973,0.11831 c 0.13131,0.11118 0.168,0.16116 0.1183,0.16116 -0.0118,0 -0.0747,-0.0629 -0.13973,-0.13974 z m 57.17142,0.0542 c 0,-0.0129 0.0489,-0.0618 0.10868,-0.10868 0.0985,-0.0772 0.1007,-0.075 0.0234,0.0235 -0.0811,0.10345 -0.13213,0.13635 -0.13213,0.0852 z m 21.54171,-0.0852 c -0.0772,-0.0985 -0.0751,-0.10069 0.0234,-0.0235 0.10345,0.0811 0.13635,0.13213 0.0852,0.13213 -0.0129,0 -0.0618,-0.0489 -0.10868,-0.10868 z m 9.55646,-1.70778 c 0.009,-0.89663 0.0235,-2.03546 0.0328,-2.53072 0.009,-0.49527 0.0233,0.23831 0.0308,1.63019 0.008,1.39188 -0.007,2.5307 -0.0328,2.53073 -0.0256,2e-5 -0.0395,-0.73356 -0.0308,-1.6302 z m 6.66517,1.40762 c 0.003,-0.0724 0.0177,-0.0871 0.0375,-0.0375 0.0179,0.0448 0.0157,0.0984 -0.005,0.11903 -0.0206,0.0206 -0.0353,-0.016 -0.0326,-0.0815 z m -42.83799,-0.30534 c 6.2e-4,-0.17078 0.0125,-0.23327 0.0268,-0.13888 0.0143,0.0944 0.0139,0.23414 -8.7e-4,0.31052 -0.0147,0.0764 -0.0264,-8.7e-4 -0.0259,-0.17164 z m 12.9094,0.0932 c 0,-0.0854 0.0141,-0.12033 0.0313,-0.0776 0.0172,0.0427 0.0172,0.11256 0,0.15525 -0.0172,0.0427 -0.0313,0.008 -0.0313,-0.0776 z m -33.71716,-0.12421 c 0,-0.11955 0.0128,-0.16845 0.0284,-0.10868 0.0156,0.0598 0.0156,0.15759 0,0.21736 -0.0156,0.0598 -0.0284,0.0109 -0.0284,-0.10868 z m 15.95579,0.0621 c 0,-0.0854 0.0141,-0.12032 0.0313,-0.0776 0.0172,0.0427 0.0172,0.11256 0,0.15525 -0.0172,0.0427 -0.0313,0.008 -0.0313,-0.0776 z m 20.94691,-2.20464 c 2e-5,-1.26379 0.008,-1.77198 0.0184,-1.12931 0.0101,0.64267 0.0101,1.67668 -4e-5,2.2978 -0.0101,0.62112 -0.0184,0.0953 -0.0184,-1.16849 z m -3.97457,-0.0621 c 1e-5,-1.26379 0.008,-1.77199 0.0184,-1.12932 0.0101,0.64267 0.0101,1.67668 -4e-5,2.2978 -0.0101,0.62112 -0.0184,0.0953 -0.0184,-1.16848 z m 25.87591,2.093 c -0.007,-0.13623 0.0104,-0.14186 0.38032,-0.12421 0.33488,0.016 0.38922,0.0354 0.4001,0.1427 0.01,0.0967 0.006,0.10017 -0.0195,0.0155 -0.0253,-0.086 -0.10149,-0.10868 -0.3645,-0.10868 -0.26441,0 -0.33828,0.0223 -0.36086,0.10868 -0.0209,0.0801 -0.0303,0.0712 -0.0356,-0.034 z m -59.62088,-0.11089 c 0.003,-0.0724 0.0177,-0.0871 0.0375,-0.0375 0.0179,0.0448 0.0157,0.0984 -0.005,0.11903 -0.0206,0.0206 -0.0353,-0.0161 -0.0326,-0.0815 z m 16.93361,-0.009 c 0.11101,-0.0138 0.29266,-0.0138 0.40366,0 0.11101,0.0138 0.0202,0.025 -0.20183,0.025 -0.22202,0 -0.31284,-0.0113 -0.20183,-0.025 z m -43.94472,-0.37266 -0.008,-0.20021 -0.94707,-0.0189 -0.94706,-0.0189 0.94901,-0.0138 c 1.01956,-0.0148 1.04928,-0.006 0.98954,0.30775 -0.0211,0.11071 -0.0295,0.0977 -0.036,-0.056 z m -16.709183,0.009 c 0.003,-0.0724 0.0177,-0.0871 0.03752,-0.0375 0.01794,0.0448 0.01574,0.0984 -0.0049,0.11903 -0.02064,0.0206 -0.03532,-0.0161 -0.03262,-0.0815 z m 71.914913,0 c 0.003,-0.0724 0.0177,-0.0871 0.0375,-0.0375 0.0179,0.0448 0.0157,0.0984 -0.005,0.11903 -0.0206,0.0206 -0.0353,-0.0161 -0.0326,-0.0815 z m -96.072859,-0.0621 c 0.003,-0.0724 0.0177,-0.0871 0.03752,-0.0375 0.01794,0.0448 0.01574,0.0984 -0.0049,0.11903 -0.02064,0.0206 -0.03532,-0.016 -0.03262,-0.0815 z m 57.134469,-0.0621 c 0.003,-0.0724 0.0177,-0.0871 0.0375,-0.0375 0.0179,0.0448 0.0157,0.0984 -0.005,0.11904 -0.0206,0.0206 -0.0353,-0.0161 -0.0326,-0.0815 z m 5.89976,0 c 0.003,-0.0724 0.0177,-0.0871 0.0375,-0.0375 0.0179,0.0448 0.0157,0.0984 -0.005,0.11904 -0.0206,0.0206 -0.0353,-0.0161 -0.0326,-0.0815 z m -44.776039,-0.12421 c 0.003,-0.0724 0.0177,-0.0871 0.03752,-0.0375 0.01794,0.0448 0.01574,0.0984 -0.0049,0.11903 -0.02064,0.0206 -0.03532,-0.0161 -0.03262,-0.0815 z m 11.799511,0 c 0.003,-0.0724 0.0177,-0.0871 0.03752,-0.0375 0.01794,0.0448 0.01574,0.0984 -0.0049,0.11903 -0.02064,0.0206 -0.03532,-0.0161 -0.03262,-0.0815 z m 60.115398,0 c 0.003,-0.0724 0.0177,-0.0871 0.0375,-0.0375 0.0179,0.0448 0.0157,0.0984 -0.005,0.11903 -0.0206,0.0206 -0.0353,-0.0161 -0.0326,-0.0815 z m 30.43032,0 c 0.003,-0.0724 0.0177,-0.0871 0.0375,-0.0375 0.0179,0.0448 0.0157,0.0984 -0.005,0.11903 -0.0206,0.0206 -0.0353,-0.0161 -0.0326,-0.0815 z m -85.38169,-0.15008 c 0,-0.11955 0.0128,-0.16846 0.0284,-0.10868 0.0156,0.0598 0.0156,0.15758 0,0.21736 -0.0156,0.0598 -0.0284,0.0109 -0.0284,-0.10868 z m 60.1108,0.0621 c 0,-0.0854 0.0141,-0.12032 0.0313,-0.0776 0.0172,0.0427 0.0172,0.11256 0,0.15526 -0.0172,0.0427 -0.0313,0.008 -0.0313,-0.0776 z m 20.12127,0 c 0,-0.0854 0.0141,-0.12032 0.0313,-0.0776 0.0172,0.0427 0.0172,0.11256 0,0.15526 -0.0172,0.0427 -0.0313,0.008 -0.0313,-0.0776 z m -92.03618,-0.0621 c 0,-0.0854 0.0141,-0.12033 0.03133,-0.0776 0.01723,0.0427 0.01723,0.11256 0,0.15526 -0.01723,0.0427 -0.03133,0.008 -0.03133,-0.0776 z m 5.842255,-0.0621 c 0,-0.11955 0.01278,-0.16846 0.0284,-0.10868 0.01563,0.0598 0.01563,0.15758 0,0.21736 -0.01562,0.0598 -0.0284,0.0109 -0.0284,-0.10868 z m -28.500929,-0.24842 c 0,-0.18786 0.01164,-0.26471 0.02587,-0.17078 0.01423,0.0939 0.01423,0.24764 0,0.34157 -0.01423,0.0939 -0.02587,0.0171 -0.02587,-0.17079 z m 23.47312,0.0621 c 0,-0.15371 0.01211,-0.21659 0.02691,-0.13973 0.0148,0.0769 0.0148,0.20261 0,0.27946 -0.0148,0.0769 -0.02691,0.014 -0.02691,-0.13973 z m 12.485604,-0.12421 c 0,-0.22202 0.0113,-0.31284 0.025,-0.20183 0.0138,0.11101 0.0138,0.29266 0,0.40367 -0.0138,0.111 -0.025,0.0202 -0.025,-0.20184 z m 21.17575,0.0621 c 0,-0.18786 0.0116,-0.26471 0.0259,-0.17078 0.0142,0.0939 0.0142,0.24764 0,0.34157 -0.0142,0.0939 -0.0259,0.0171 -0.0259,-0.17079 z m 4.40929,0 c 0,-0.18786 0.0116,-0.26471 0.0259,-0.17078 0.0142,0.0939 0.0142,0.24764 0,0.34157 -0.0142,0.0939 -0.0259,0.0171 -0.0259,-0.17079 z m 33.84511,0.0311 c 6.2e-4,-0.17079 0.0125,-0.23328 0.0268,-0.13888 0.0143,0.0944 0.0139,0.23413 -8.7e-4,0.31051 -0.0147,0.0764 -0.0264,-8.7e-4 -0.026,-0.17163 z m 18.50745,-0.0311 c 0,-0.18786 0.0116,-0.26471 0.0259,-0.17078 0.0142,0.0939 0.0142,0.24764 0,0.34157 -0.0142,0.0939 -0.0259,0.0171 -0.0259,-0.17079 z m -117.268507,0.20237 1.676798,-0.018 v -0.30852 -0.30852 l -1.661247,-0.018 -1.661247,-0.018 1.676773,0.001 1.676772,0.001 v 0.34157 0.34156 l -1.692323,0.002 -1.692323,0.001 1.676797,-0.018 z m 10.507241,-6.2e-4 c 0.433477,-0.0107 1.160078,-0.0107 1.61467,0 0.454585,0.0106 0.09992,0.0193 -0.788145,0.0194 -0.888069,3e-5 -1.260008,-0.009 -0.826525,-0.0193 z m 71.530406,6.2e-4 1.6768,-0.018 v -0.30852 -0.30852 l -1.66125,-0.018 -1.66124,-0.018 1.67677,0.001 1.67677,0.001 v 0.34157 0.34156 l -1.69232,0.002 -1.69232,0.001 1.67679,-0.018 z m -44.20142,-0.41972 c 6.8e-4,-0.13663 0.0134,-0.18521 0.0283,-0.10796 0.0149,0.0772 0.0143,0.18904 -10e-4,0.24841 -0.0156,0.0594 -0.0277,-0.004 -0.027,-0.14045 z m -5.963115,-0.0311 c 0,-0.11954 0.01278,-0.16845 0.0284,-0.10868 0.01563,0.0598 0.01563,0.15759 0,0.21736 -0.01562,0.0598 -0.0284,0.0109 -0.0284,-0.10868 z m 15.238195,0.0725 c -0.0176,-0.0285 0.007,-0.0518 0.0557,-0.0518 0.0482,0 0.0733,0.0233 0.0557,0.0518 -0.0176,0.0285 -0.0427,0.0518 -0.0557,0.0518 -0.0131,0 -0.0381,-0.0233 -0.0557,-0.0518 z m -21.08045,-0.13456 c 0,-0.0854 0.0141,-0.12032 0.03133,-0.0776 0.01723,0.0427 0.01723,0.11256 0,0.15526 -0.01723,0.0427 -0.03133,0.008 -0.03133,-0.0776 z m 16.21452,0.0779 c 0.36718,-0.011 0.96803,-0.011 1.33521,0 0.36718,0.011 0.0668,0.02 -0.6676,0.02 -0.73437,0 -1.03479,-0.009 -0.66761,-0.02 z m 55.69549,-0.11409 c 0.003,-0.0724 0.0177,-0.0871 0.0375,-0.0375 0.0179,0.0448 0.0157,0.0984 -0.005,0.11904 -0.0206,0.0206 -0.0353,-0.016 -0.0326,-0.0815 z m 20.12617,-0.0259 c 0,-0.0854 0.0141,-0.12033 0.0313,-0.0776 0.0172,0.0427 0.0172,0.11256 0,0.15526 -0.0172,0.0427 -0.0313,0.008 -0.0313,-0.0776 z m 5.14962,-0.0362 c 0.003,-0.0724 0.0177,-0.0871 0.0375,-0.0375 0.0179,0.0448 0.0157,0.0984 -0.005,0.11903 -0.0206,0.0206 -0.0353,-0.016 -0.0326,-0.0815 z m -102.345229,-0.0621 c 0.003,-0.0724 0.0177,-0.0871 0.03752,-0.0375 0.01794,0.0448 0.01574,0.0984 -0.0049,0.11903 -0.02064,0.0206 -0.03532,-0.0161 -0.03262,-0.0815 z m 11.799511,0 c 0.003,-0.0724 0.0177,-0.0871 0.03752,-0.0375 0.01794,0.0448 0.01574,0.0984 -0.0049,0.11903 -0.02064,0.0206 -0.03532,-0.0161 -0.03262,-0.0815 z m 4.347188,0 c 0.003,-0.0724 0.0177,-0.0871 0.0375,-0.0375 0.0179,0.0448 0.0157,0.0984 -0.005,0.11903 -0.0206,0.0206 -0.0353,-0.0161 -0.0326,-0.0815 z m 55.76821,0 c 0.003,-0.0724 0.0177,-0.0871 0.0375,-0.0375 0.0179,0.0448 0.0157,0.0984 -0.005,0.11903 -0.0206,0.0206 -0.0353,-0.0161 -0.0326,-0.0815 z m -82.279096,-0.0102 c 0.433477,-0.0107 1.160078,-0.0107 1.61467,0 0.454585,0.0106 0.09992,0.0193 -0.788145,0.0194 -0.888069,4e-5 -1.260008,-0.009 -0.826525,-0.0193 z m 60.041436,0.0229 c 0,-0.0129 0.0489,-0.0618 0.10868,-0.10868 0.0985,-0.0772 0.10069,-0.0751 0.0234,0.0234 -0.0811,0.10344 -0.13213,0.13634 -0.13213,0.0852 z m -67.935439,-0.13698 c 0.003,-0.0724 0.0177,-0.0871 0.03752,-0.0375 0.01794,0.0448 0.01574,0.0984 -0.0049,0.11904 -0.02064,0.0206 -0.03532,-0.0161 -0.03262,-0.0815 z m 57.134469,0 c 0.003,-0.0724 0.0177,-0.0871 0.0375,-0.0375 0.0179,0.0448 0.0157,0.0984 -0.005,0.11904 -0.0206,0.0206 -0.0353,-0.0161 -0.0326,-0.0815 z m 5.89976,0 c 0.003,-0.0724 0.0177,-0.0871 0.0375,-0.0375 0.0179,0.0448 0.0157,0.0984 -0.005,0.11904 -0.0206,0.0206 -0.0353,-0.0161 -0.0326,-0.0815 z m 1.82468,-0.87973 0.002,-0.97818 0.94714,-0.002 0.94714,-0.002 -0.93005,0.0196 -0.93004,0.0197 -0.0195,0.96105 -0.0195,0.96104 0.002,-0.97818 z m -28.90145,0.81762 c 0.003,-0.0724 0.0177,-0.0871 0.0375,-0.0375 0.0179,0.0448 0.0157,0.0984 -0.005,0.11903 -0.0206,0.0206 -0.0353,-0.016 -0.0326,-0.0815 z m 48.87481,-0.55892 c 0.003,-0.0724 0.0177,-0.0871 0.0375,-0.0375 0.018,0.0448 0.0157,0.0984 -0.005,0.11903 -0.0206,0.0206 -0.0353,-0.016 -0.0326,-0.0815 z m -43.92702,-0.0708 c 0.11101,-0.0138 0.29266,-0.0138 0.40366,0 0.11101,0.0138 0.0202,0.025 -0.20183,0.025 -0.22202,0 -0.31284,-0.0113 -0.20183,-0.025 z m 86.78864,-0.17244 c 6.8e-4,-0.13662 0.0134,-0.18521 0.0283,-0.10795 0.0149,0.0772 0.0143,0.18903 -0.001,0.24841 -0.0155,0.0594 -0.0277,-0.004 -0.027,-0.14046 z m -38.96957,0.11033 c 0.111,-0.0138 0.29265,-0.0138 0.40366,0 0.11101,0.0138 0.0202,0.025 -0.20183,0.025 -0.22202,0 -0.31284,-0.0113 -0.20183,-0.025 z m 42.71038,-0.0184 c -0.0235,-0.038 -0.026,-0.0859 -0.005,-0.10644 0.0205,-0.0205 0.0373,-0.005 0.0373,0.0352 0,0.0463 0.12175,0.0725 0.33744,0.0725 0.31176,0 0.33951,-0.0119 0.36466,-0.15603 0.0249,-0.1429 0.0266,-0.14159 0.0197,0.0155 -0.007,0.16392 -0.0232,0.17238 -0.35918,0.19002 -0.21079,0.0111 -0.36873,-0.009 -0.39436,-0.0507 z m -63.80487,-0.0971 c 0.003,-0.0724 0.0177,-0.0871 0.0375,-0.0375 0.0179,0.0448 0.0157,0.0984 -0.005,0.11903 -0.0206,0.0206 -0.0353,-0.0161 -0.0326,-0.0815 z m 17.20244,-0.18631 c 0.003,-0.0724 0.0177,-0.0871 0.0375,-0.0375 0.018,0.0448 0.0157,0.0984 -0.005,0.11903 -0.0206,0.0206 -0.0353,-0.016 -0.0326,-0.0815 z m -62.112286,-0.32087 -0.150556,-0.17078 0.170782,0.15056 c 0.159623,0.14072 0.199263,0.19101 0.150556,0.19101 -0.01112,0 -0.08798,-0.0769 -0.170782,-0.17079 z m 14.536726,0.15135 c 0,-0.0107 0.0908,-0.10151 0.20184,-0.20183 l 0.20183,-0.1824 -0.1824,0.20183 c -0.17003,0.18814 -0.22127,0.23039 -0.22127,0.1824 z m 57.37819,-0.15135 -0.15056,-0.17078 0.17078,0.15056 c 0.15963,0.14072 0.19927,0.19101 0.15056,0.19101 -0.0111,0 -0.088,-0.0769 -0.17078,-0.17079 z m 21.49223,0.0155 c 0.0802,-0.0854 0.15982,-0.15526 0.1769,-0.15526 0.0171,0 -0.0346,0.0699 -0.1148,0.15526 -0.0802,0.0854 -0.15983,0.15526 -0.17691,0.15526 -0.0171,0 0.0346,-0.0699 0.11481,-0.15526 z m -48.75854,-0.20183 c -0.0772,-0.0985 -0.0751,-0.1007 0.0234,-0.0234 0.10345,0.0811 0.13635,0.13213 0.0852,0.13213 -0.0129,0 -0.0618,-0.0489 -0.10868,-0.10868 z m 61.30328,0.0231 c 0,-0.0129 0.0489,-0.0618 0.10868,-0.10868 0.0985,-0.0772 0.10069,-0.0751 0.0234,0.0234 -0.0811,0.10345 -0.13213,0.13635 -0.13213,0.0852 z M 89.233788,166.83 l -0.214018,-0.23288 0.232885,0.21402 c 0.128086,0.11771 0.232885,0.2225 0.232885,0.23288 0,0.0474 -0.05255,0.003 -0.251752,-0.21402 z m 92.101622,0.21346 c 0,-0.0107 0.0908,-0.10152 0.20184,-0.20184 l 0.20183,-0.1824 -0.1824,0.20183 c -0.17002,0.18814 -0.22127,0.23039 -0.22127,0.18241 z m -53.2267,-0.21346 -0.15056,-0.17078 0.17079,0.15056 c 0.15962,0.14071 0.19926,0.19101 0.15055,0.19101 -0.0111,0 -0.088,-0.0769 -0.17078,-0.17079 z m -61.414857,0.0892 c 0,-0.0107 0.09083,-0.10151 0.201834,-0.20183 l 0.201834,-0.1824 -0.182402,0.20183 c -0.170025,0.18814 -0.221266,0.23038 -0.221266,0.1824 z m 40.083377,-0.1824 -0.1824,-0.20183 0.20183,0.1824 c 0.11101,0.10032 0.20184,0.19114 0.20184,0.20183 0,0.048 -0.0512,0.006 -0.22127,-0.1824 z m 17.1132,0.17838 c 0,-0.0129 0.0489,-0.0618 0.10868,-0.10868 0.0985,-0.0772 0.10069,-0.075 0.0234,0.0235 -0.0811,0.10345 -0.13213,0.13635 -0.13213,0.0852 z m -68.660186,-0.12417 c -0.01805,-0.047 -0.02221,-0.2217 -0.0092,-0.38814 l 0.02357,-0.30262 0.01119,0.35555 0.01119,0.35555 1.009169,0.0187 1.009168,0.0187 -1.011118,0.0139 c -0.810909,0.0111 -1.017615,-0.003 -1.043934,-0.0717 z m 3.346732,0.0392 c 0.300546,-0.0114 0.775632,-0.0113 1.055746,0 0.280114,0.0115 0.03421,0.0208 -0.546448,0.0208 -0.58066,0 -0.809844,-0.009 -0.509298,-0.0209 z m 4.806841,0 1.751327,-0.018 0.02323,-0.32507 0.02323,-0.32508 -0.0047,0.34157 -0.0047,0.34156 -1.769927,0.001 -1.769926,0.001 1.751333,-0.018 z m 82.037653,0 1.75132,-0.018 0.0232,-0.32507 0.0232,-0.32508 -0.005,0.34157 -0.005,0.34156 -1.76993,0.001 -1.76993,0.001 1.75134,-0.018 z m 15.63152,-0.0937 -0.11831,-0.13973 0.13973,0.1183 c 0.0769,0.0651 0.13973,0.12795 0.13973,0.13974 0,0.0497 -0.05,0.013 -0.16115,-0.11831 z m 12.53816,0.0934 c 0.30055,-0.0114 0.77564,-0.0114 1.05575,0 0.28011,0.0115 0.0342,0.0208 -0.54645,0.0207 -0.58066,0 -0.80984,-0.009 -0.5093,-0.0209 z m 3.31639,6.2e-4 1.00612,-0.0195 0.0237,-0.34035 0.0237,-0.34035 -0.005,0.3574 -0.005,0.3574 -1.02469,0.002 -1.0247,0.002 1.00612,-0.0195 z m 20.69408,-0.18724 -0.15056,-0.17078 0.17078,0.15055 c 0.15963,0.14072 0.19927,0.19101 0.15056,0.19101 -0.0111,0 -0.088,-0.0769 -0.17078,-0.17078 z m -63.65848,0 c -0.0772,-0.0985 -0.0751,-0.1007 0.0234,-0.0234 0.10344,0.0811 0.13635,0.13213 0.0852,0.13213 -0.0129,0 -0.0618,-0.0489 -0.10868,-0.10868 z m 17.21037,0.0855 c 0,-0.0129 0.0489,-0.0618 0.10868,-0.10868 0.0985,-0.0772 0.10069,-0.0751 0.0234,0.0234 -0.0811,0.10345 -0.13213,0.13635 -0.13213,0.0852 z m 1.54092,-0.019 c 0.0448,-0.0179 0.0984,-0.0157 0.11903,0.005 0.0206,0.0206 -0.016,0.0353 -0.0815,0.0326 -0.0724,-0.003 -0.0871,-0.0177 -0.0375,-0.0375 z m 0.49294,0.001 c 0.0427,-0.0172 0.11256,-0.0172 0.15526,0 0.0427,0.0172 0.008,0.0313 -0.0776,0.0313 -0.0854,0 -0.12032,-0.0141 -0.0776,-0.0313 z m 42.35792,-0.001 c 0.0448,-0.0179 0.0984,-0.0157 0.11903,0.005 0.0206,0.0206 -0.0161,0.0353 -0.0815,0.0326 -0.0724,-0.003 -0.0871,-0.0177 -0.0375,-0.0375 z m 0.55892,0 c 0.0448,-0.0179 0.0984,-0.0157 0.11903,0.005 0.0206,0.0206 -0.0161,0.0353 -0.0815,0.0326 -0.0724,-0.003 -0.0871,-0.0177 -0.0375,-0.0375 z m -63.34862,-0.55763 c 0.0427,-0.0172 0.11256,-0.0172 0.15525,0 0.0427,0.0172 0.008,0.0313 -0.0776,0.0313 -0.0854,0 -0.12033,-0.0141 -0.0776,-0.0313 z m -46.200521,-0.0634 c 0.04483,-0.018 0.0984,-0.0157 0.119032,0.005 0.02064,0.0206 -0.01605,0.0353 -0.08151,0.0326 -0.07235,-0.003 -0.08706,-0.0177 -0.03752,-0.0375 z m 71.914911,0 c 0.0448,-0.018 0.0984,-0.0157 0.11903,0.005 0.0206,0.0206 -0.016,0.0353 -0.0815,0.0326 -0.0724,-0.003 -0.0871,-0.0177 -0.0375,-0.0375 z m 25.71051,0 c 0.0448,-0.018 0.0984,-0.0157 0.11904,0.005 0.0206,0.0206 -0.0161,0.0353 -0.0815,0.0326 -0.0724,-0.003 -0.0871,-0.0177 -0.0375,-0.0375 z m -115.452774,-0.0608 c 0.0427,-0.0172 0.112562,-0.0172 0.155257,0 0.0427,0.0172 0.0078,0.0313 -0.07763,0.0313 -0.08539,0 -0.120324,-0.0141 -0.07763,-0.0313 z m 18.44838,-0.001 c 0.04483,-0.0179 0.0984,-0.0157 0.119032,0.005 0.02064,0.0206 -0.01605,0.0353 -0.08151,0.0326 -0.07235,-0.003 -0.08706,-0.0177 -0.03752,-0.0375 z m 10.992176,0 c 0.04483,-0.0179 0.09839,-0.0157 0.119032,0.005 0.02064,0.0206 -0.01605,0.0353 -0.08151,0.0326 -0.07235,-0.003 -0.08706,-0.0177 -0.03752,-0.0375 z m 6.611238,-6.2e-4 c 0.0604,-0.0157 0.14426,-0.0147 0.1863,0.002 0.042,0.017 -0.007,0.0299 -0.10986,0.0286 -0.10246,-0.001 -0.13686,-0.0152 -0.0764,-0.0309 z m 21.21077,6.2e-4 c 0.0448,-0.0179 0.0984,-0.0157 0.11903,0.005 0.0206,0.0206 -0.016,0.0353 -0.0815,0.0326 -0.0724,-0.003 -0.0871,-0.0177 -0.0375,-0.0375 z m 26.88658,0.001 c 0.0427,-0.0172 0.11256,-0.0172 0.15525,0 0.0427,0.0172 0.008,0.0313 -0.0776,0.0313 -0.0854,0 -0.12033,-0.0141 -0.0776,-0.0313 z m 6.21415,-0.001 c 0.0448,-0.0179 0.0984,-0.0157 0.11903,0.005 0.0206,0.0206 -0.016,0.0353 -0.0815,0.0326 -0.0724,-0.003 -0.0871,-0.0177 -0.0375,-0.0375 z m 24.46846,0 c 0.0448,-0.0179 0.0984,-0.0157 0.11903,0.005 0.0206,0.0206 -0.0161,0.0353 -0.0815,0.0326 -0.0724,-0.003 -0.0871,-0.0177 -0.0375,-0.0375 z m 12.23035,0.001 c 0.0427,-0.0172 0.11256,-0.0172 0.15525,0 0.0427,0.0172 0.008,0.0313 -0.0776,0.0313 -0.0854,0 -0.12032,-0.0141 -0.0776,-0.0313 z M 82.299029,163.3531 c 0.163274,-0.0128 0.41479,-0.0127 0.558924,6.2e-4 0.144134,0.013 0.01055,0.0235 -0.296863,0.0233 -0.307408,0 -0.425335,-0.0109 -0.262061,-0.0237 z m 7.326242,-6.2e-4 c 0.367182,-0.011 0.968025,-0.011 1.335208,0 0.367182,0.011 0.06676,0.02 -0.667604,0.02 -0.734365,0 -1.034786,-0.009 -0.667604,-0.02 z m 10.526409,0.005 c 0.0427,-0.0172 0.11256,-0.0172 0.15525,0 0.0427,0.0172 0.008,0.0313 -0.0776,0.0313 -0.0854,0 -0.12032,-0.0141 -0.0776,-0.0313 z m -36.330076,-0.0669 c 0.213478,-0.0121 0.562806,-0.0121 0.776284,0 0.213478,0.0121 0.03881,0.022 -0.388142,0.022 -0.426956,0 -0.60162,-0.01 -0.388142,-0.022 z m 16.86088,0.003 c 0.05977,-0.0156 0.157585,-0.0156 0.217359,0 0.05977,0.0156 0.01087,0.0284 -0.10868,0.0284 -0.119547,0 -0.168453,-0.0128 -0.108679,-0.0284 z m 13.694754,-0.002 c 0.111623,-0.0138 0.279301,-0.0135 0.372616,6.2e-4 0.09332,0.0142 0.002,0.0255 -0.202945,0.0251 -0.204939,-6.2e-4 -0.281288,-0.0119 -0.169671,-0.0258 z m 31.298642,0 c 0.11101,-0.0138 0.29266,-0.0138 0.40367,0 0.11101,0.0138 0.0202,0.025 -0.20184,0.025 -0.22201,0 -0.31284,-0.0113 -0.20183,-0.025 z m 10.06064,10e-4 c 0.0768,-0.0148 0.20261,-0.0148 0.27946,0 0.0768,0.0148 0.014,0.0269 -0.13973,0.0269 -0.15371,0 -0.21659,-0.0121 -0.13973,-0.0269 z m 10.5604,-0.002 c 0.28341,-0.0115 0.73055,-0.0115 0.99365,0 0.26309,0.0116 0.0312,0.0211 -0.5153,0.021 -0.5465,0 -0.76176,-0.01 -0.47835,-0.0211 z m 17.44791,0.001 c 0.11101,-0.0138 0.29266,-0.0138 0.40367,0 0.111,0.0138 0.0202,0.025 -0.20184,0.025 -0.22202,0 -0.31284,-0.0113 -0.20183,-0.025 z m 3.32533,-0.001 c 0.26627,-0.0117 0.68546,-0.0116 0.93154,0 0.24608,0.0118 0.0282,0.0213 -0.48413,0.0212 -0.51235,0 -0.71368,-0.01 -0.44741,-0.0214 z m -87.097976,-0.0583 c 0.04483,-0.0179 0.0984,-0.0157 0.119033,0.005 0.02064,0.0206 -0.01605,0.0353 -0.08151,0.0326 -0.07235,-0.003 -0.08706,-0.0177 -0.03752,-0.0375 z m 15.71198,0 c 0.04483,-0.0179 0.0984,-0.0157 0.119032,0.005 0.02064,0.0206 -0.01605,0.0353 -0.08151,0.0326 -0.07235,-0.003 -0.08706,-0.0177 -0.03752,-0.0375 z m 3.991116,-0.0559 c 0.003,-0.0724 0.0177,-0.0871 0.03752,-0.0375 0.01794,0.0448 0.01574,0.0984 -0.0049,0.11904 -0.02064,0.0206 -0.03532,-0.0161 -0.03262,-0.0815 z m 18.58051,0.0553 c 0.0604,-0.0157 0.14426,-0.0147 0.18631,0.002 0.0421,0.017 -0.007,0.0299 -0.10986,0.0286 -0.10247,-0.001 -0.13687,-0.0152 -0.0764,-0.0309 z m 6.21027,0 c 0.0604,-0.0157 0.14426,-0.0147 0.18631,0.002 0.042,0.017 -0.007,0.0299 -0.10986,0.0286 -0.10247,-0.001 -0.13687,-0.0152 -0.0764,-0.0309 z m 12.2641,0.002 c 0.0427,-0.0172 0.11256,-0.0172 0.15526,0 0.0427,0.0172 0.008,0.0313 -0.0776,0.0313 -0.0854,0 -0.12033,-0.0141 -0.0776,-0.0313 z m 6.9874,-0.003 c 0.0944,-0.0143 0.23414,-0.0139 0.31052,8.7e-4 0.0764,0.0147 -8.7e-4,0.0264 -0.17164,0.026 -0.17078,-6.2e-4 -0.23327,-0.0125 -0.13888,-0.0268 z m 19.22381,0.002 c 0.0448,-0.0179 0.0984,-0.0157 0.11904,0.005 0.0206,0.0206 -0.016,0.0353 -0.0815,0.0326 -0.0724,-0.003 -0.0871,-0.0177 -0.0375,-0.0375 z m 8.56629,-0.003 c 0.17933,-0.0125 0.47276,-0.0125 0.65208,0 0.17932,0.0126 0.0326,0.0228 -0.32604,0.0228 -0.35864,0 -0.50536,-0.0103 -0.32604,-0.0228 z m -52.41466,-0.0574 c 0.0427,-0.0172 0.11256,-0.0172 0.15525,0 0.0427,0.0172 0.008,0.0313 -0.0776,0.0313 -0.0854,0 -0.12032,-0.0141 -0.0776,-0.0313 z m 4.72368,-0.001 c 0.0448,-0.0179 0.0984,-0.0157 0.11903,0.005 0.0206,0.0206 -0.016,0.0353 -0.0815,0.0326 -0.0724,-0.003 -0.0871,-0.0177 -0.0375,-0.0375 z m 18.90757,-6.2e-4 c 0.0604,-0.0157 0.14426,-0.0147 0.18631,0.002 0.042,0.017 -0.007,0.0299 -0.10986,0.0286 -0.10247,-0.001 -0.13687,-0.0152 -0.0764,-0.0309 z m 31.79539,-0.001 c 0.0939,-0.0142 0.24764,-0.0142 0.34157,0 0.0939,0.0142 0.0171,0.0259 -0.17078,0.0259 -0.18786,0 -0.26472,-0.0116 -0.17079,-0.0259 z m -32.32056,-0.06 c 0.0448,-0.0179 0.0984,-0.0157 0.11903,0.005 0.0206,0.0206 -0.016,0.0353 -0.0815,0.0326 -0.0724,-0.003 -0.0871,-0.0177 -0.0375,-0.0375 z m 20.27855,-0.0534 c -0.0202,-0.0527 -0.0229,-0.10971 -0.006,-0.12667 0.017,-0.017 0.0457,0.0262 0.064,0.0958 0.0387,0.14799 -0.004,0.17084 -0.058,0.0308 z m 13.59576,0.0528 c 0.0604,-0.0157 0.14427,-0.0147 0.18631,0.002 0.042,0.017 -0.007,0.0299 -0.10986,0.0286 -0.10247,-0.001 -0.13687,-0.0152 -0.0765,-0.0309 z m 0.713,-0.0602 c 0.0427,-0.0172 0.11256,-0.0172 0.15526,0 0.0427,0.0172 0.008,0.0313 -0.0776,0.0313 -0.0854,0 -0.12032,-0.0141 -0.0776,-0.0313 z M 96.87576,162.9424 c 0,-0.0129 0.04891,-0.0618 0.108679,-0.10868 0.0985,-0.0772 0.100694,-0.075 0.02345,0.0235 -0.08113,0.10345 -0.132129,0.13635 -0.132129,0.0852 z m 81.60293,-0.49682 c 0,-0.0129 0.0489,-0.0618 0.10868,-0.10868 0.0985,-0.0772 0.10069,-0.0751 0.0234,0.0234 -0.0811,0.10344 -0.13213,0.13635 -0.13213,0.0852 z m -41.6857,-0.26889 c 0.0772,-0.0148 0.18903,-0.0143 0.24841,0.001 0.0594,0.0155 -0.004,0.0277 -0.14046,0.027 -0.13662,-6.8e-4 -0.18521,-0.0134 -0.10795,-0.0283 z m 26.0203,0.003 c 0.0427,-0.0172 0.11256,-0.0172 0.15525,0 0.0427,0.0172 0.008,0.0313 -0.0776,0.0313 -0.0854,0 -0.12033,-0.0141 -0.0776,-0.0313 z m -33.87702,-0.0672 c 0.29887,-0.0114 0.78793,-0.0114 1.0868,0 0.29887,0.0114 0.0543,0.0207 -0.5434,0.0207 -0.59774,0 -0.84227,-0.009 -0.5434,-0.0207 z m 35.42959,7.5e-4 c 0.14516,-0.0131 0.3827,-0.0131 0.52787,0 0.14516,0.0131 0.0264,0.0238 -0.26394,0.0238 -0.29033,0 -0.4091,-0.0107 -0.26393,-0.0238 z m -37.5714,-0.0606 c 0.0772,-0.0149 0.18903,-0.0143 0.24841,0.001 0.0594,0.0155 -0.004,0.0277 -0.14046,0.027 -0.13663,-6.8e-4 -0.18521,-0.0134 -0.10795,-0.0283 z m 44.6511,-0.002 c 0.17932,-0.0126 0.47276,-0.0126 0.65208,0 0.17932,0.0125 0.0326,0.0228 -0.32604,0.0228 -0.35864,0 -0.50536,-0.0103 -0.32604,-0.0228 z m -87.564788,-0.0613 c 0.111009,-0.0138 0.292659,-0.0138 0.403668,0 0.111008,0.0138 0.02018,0.0251 -0.201834,0.0251 -0.222017,0 -0.312842,-0.0113 -0.201834,-0.0251 z m 42.167728,0.004 c 0.0427,-0.0172 0.11256,-0.0172 0.15525,0 0.0427,0.0172 0.008,0.0313 -0.0776,0.0313 -0.0854,0 -0.12033,-0.0141 -0.0776,-0.0313 z m 47.63276,-0.003 c 0.0768,-0.0148 0.20261,-0.0148 0.27946,0 0.0768,0.0148 0.014,0.0269 -0.13973,0.0269 -0.1537,0 -0.21658,-0.0121 -0.13973,-0.0269 z m -91.01031,-0.0613 c 0.06043,-0.0158 0.144264,-0.0147 0.186308,0.002 0.04205,0.017 -0.0074,0.0299 -0.10986,0.0286 -0.102469,-0.001 -0.136868,-0.0152 -0.07645,-0.0309 z m 92.00395,0.002 c 0.0427,-0.0172 0.11256,-0.0172 0.15526,0 0.0427,0.0172 0.008,0.0313 -0.0776,0.0313 -0.0854,0 -0.12032,-0.0141 -0.0776,-0.0313 z m -92.591224,-0.0634 c 0.04483,-0.0179 0.09839,-0.0157 0.119032,0.005 0.02064,0.0206 -0.01605,0.0353 -0.08151,0.0326 -0.07235,-0.003 -0.08706,-0.0177 -0.03752,-0.0375 z m 93.154034,0 c 0.0448,-0.0179 0.0984,-0.0157 0.11903,0.005 0.0206,0.0206 -0.0161,0.0353 -0.0815,0.0326 -0.0724,-0.003 -0.0871,-0.0177 -0.0375,-0.0375 z m -94.18833,-0.64071 c 0,-0.0854 0.0141,-0.12033 0.03132,-0.0776 0.01723,0.0427 0.01723,0.11256 0,0.15525 -0.01723,0.0427 -0.03132,0.008 -0.03132,-0.0776 z m 95.37992,0.10075 c 0,-0.0129 0.0489,-0.0618 0.10868,-0.10868 0.0985,-0.0772 0.1007,-0.0751 0.0234,0.0234 -0.0811,0.10345 -0.13213,0.13635 -0.13213,0.0852 z M 87.944834,157.7028 c 0.433477,-0.0107 1.160078,-0.0107 1.61467,0 0.454585,0.0106 0.09992,0.0193 -0.788145,0.0194 -0.888069,4e-5 -1.260008,-0.009 -0.826525,-0.0193 z m -3.659544,-0.0603 c 0.0944,-0.0143 0.234134,-0.0139 0.310514,8.7e-4 0.07639,0.0147 -8.7e-4,0.0264 -0.171633,0.0259 -0.170783,-6.2e-4 -0.233277,-0.0125 -0.138881,-0.0268 z m 9.314553,-6.9e-4 c 0.128087,-0.0134 0.337683,-0.0134 0.46577,0 0.128087,0.0134 0.02329,0.0244 -0.232885,0.0244 -0.256174,0 -0.360972,-0.011 -0.232885,-0.0244 z m -10.277995,-0.058 c 0.0427,-0.0172 0.112561,-0.0172 0.155257,0 0.0427,0.0172 0.0078,0.0313 -0.07763,0.0313 -0.08539,0 -0.120324,-0.0141 -0.07763,-0.0313 z m 12.390337,-0.003 c 0.0944,-0.0143 0.234133,-0.0139 0.310513,8.7e-4 0.07639,0.0147 -8.69e-4,0.0264 -0.171633,0.0259 -0.170782,-6.2e-4 -0.233276,-0.0125 -0.13888,-0.0268 z m 1.18028,-0.0606 c 0.06043,-0.0157 0.144265,-0.0147 0.186308,0.002 0.04205,0.017 -0.0074,0.0299 -0.109859,0.0286 -0.10247,-0.001 -0.136869,-0.0152 -0.07645,-0.0309 z m 49.964315,-0.18569 c 0.0448,-0.0179 0.0984,-0.0157 0.11903,0.005 0.0206,0.0206 -0.0161,0.0353 -0.0815,0.0326 -0.0724,-0.003 -0.0871,-0.0177 -0.0375,-0.0375 z m 0.6482,-0.0625 c 0.0598,-0.0156 0.15758,-0.0156 0.21735,0 0.0598,0.0156 0.0109,0.0284 -0.10867,0.0284 -0.11955,0 -0.16846,-0.0128 -0.10868,-0.0284 z m 1.36625,-0.0638 c 0.0939,-0.0142 0.24764,-0.0142 0.34157,0 0.0939,0.0142 0.0171,0.0259 -0.17078,0.0259 -0.18786,0 -0.26472,-0.0116 -0.17079,-0.0259 z m 11.33763,0.002 c 0.0448,-0.0179 0.0984,-0.0157 0.11903,0.005 0.0206,0.0206 -0.0161,0.0353 -0.0815,0.0326 -0.0724,-0.003 -0.0871,-0.0177 -0.0375,-0.0375 z m -8.69826,-0.0655 c 0.17932,-0.0125 0.47276,-0.0125 0.65208,0 0.17932,0.0125 0.0326,0.0228 -0.32604,0.0228 -0.35865,0 -0.50536,-0.0103 -0.32604,-0.0228 z m 7.76283,0.002 c 0.0769,-0.0148 0.20261,-0.0148 0.27947,0 0.0769,0.0148 0.014,0.0269 -0.13973,0.0269 -0.15371,0 -0.21659,-0.0121 -0.13974,-0.0269 z m -60.658795,-0.41438 c 0,-0.0129 0.04891,-0.0618 0.108679,-0.10868 0.0985,-0.0772 0.100694,-0.0751 0.02345,0.0234 -0.08113,0.10345 -0.132129,0.13635 -0.132129,0.0852 z m 46.813785,-0.57789 c 0.0448,-0.018 0.0984,-0.0157 0.11903,0.005 0.0206,0.0206 -0.0161,0.0353 -0.0815,0.0326 -0.0724,-0.003 -0.0871,-0.0177 -0.0375,-0.0375 z m 0.61714,-0.0608 c 0.0427,-0.0172 0.11256,-0.0172 0.15526,0 0.0427,0.0172 0.008,0.0313 -0.0776,0.0313 -0.0854,0 -0.12032,-0.0141 -0.0776,-0.0313 z m 1.08765,-0.0655 c 0.0944,-0.0143 0.23413,-0.0139 0.31051,8.7e-4 0.0764,0.0147 -8.7e-4,0.0264 -0.17163,0.0259 -0.17078,-6.2e-4 -0.23328,-0.0125 -0.13888,-0.0268 z m 2.48584,-0.0636 c 0.23198,-0.012 0.59528,-0.0119 0.80734,0 0.21205,0.0121 0.0223,0.0219 -0.42178,0.0218 -0.44404,0 -0.61754,-0.01 -0.38556,-0.022 z m 5.58394,-0.062 c 0.22906,-0.0119 0.62031,-0.012 0.86944,0 0.24913,0.0118 0.0617,0.0216 -0.41648,0.0217 -0.47819,0 -0.68202,-0.01 -0.45296,-0.0215 z m 3.38843,-0.0611 c 0.11162,-0.0138 0.2793,-0.0135 0.37261,6.2e-4 0.0933,0.0142 0.002,0.0255 -0.20294,0.0251 -0.20494,-6.2e-4 -0.28129,-0.012 -0.16967,-0.0258 z m 1.45948,-0.0601 c 0.0604,-0.0157 0.14426,-0.0147 0.18631,0.002 0.042,0.017 -0.007,0.0299 -0.10986,0.0286 -0.10247,-0.001 -0.13687,-0.0152 -0.0764,-0.0309 z m 0.713,-0.0602 c 0.0427,-0.0172 0.11256,-0.0172 0.15526,0 0.0427,0.0172 0.008,0.0313 -0.0776,0.0313 -0.0854,0 -0.12033,-0.0141 -0.0776,-0.0313 z m -40.0309,-1.51144 c 0,-0.0854 0.0141,-0.12032 0.0313,-0.0776 0.0172,0.0427 0.0172,0.11256 0,0.15526 -0.0172,0.0427 -0.0313,0.008 -0.0313,-0.0776 z m 63.6959,-0.35293 c 0.0448,-0.018 0.0984,-0.0157 0.11904,0.005 0.0206,0.0206 -0.0161,0.0353 -0.0815,0.0326 -0.0724,-0.003 -0.0871,-0.0177 -0.0375,-0.0375 z m -23.35449,-0.0608 c 0.0427,-0.0172 0.11256,-0.0172 0.15526,0 0.0427,0.0172 0.008,0.0313 -0.0776,0.0313 -0.0854,0 -0.12032,-0.0141 -0.0776,-0.0313 z m 23.94177,-0.002 c 0.0604,-0.0157 0.14426,-0.0147 0.18631,0.002 0.042,0.017 -0.007,0.0299 -0.10986,0.0286 -0.10247,-0.001 -0.13687,-0.0152 -0.0765,-0.0309 z m -59.64693,-0.0615 c 0.0448,-0.0179 0.0984,-0.0157 0.11903,0.005 0.0206,0.0206 -0.0161,0.0353 -0.0815,0.0326 -0.0724,-0.003 -0.0871,-0.0177 -0.0375,-0.0375 z m 13.09978,-0.003 c 0.17933,-0.0126 0.47276,-0.0126 0.65208,0 0.17932,0.0125 0.0326,0.0228 -0.32604,0.0228 -0.35864,0 -0.50536,-0.0103 -0.32604,-0.0228 z m 20.52721,0 c 0.19765,-0.0124 0.50506,-0.0123 0.68313,0 0.17807,0.0125 0.0164,0.0226 -0.35936,0.0225 -0.37572,0 -0.52142,-0.0104 -0.32377,-0.0227 z m 6.44579,-0.0524 c 0.003,-0.0724 0.0177,-0.0871 0.0375,-0.0375 0.0179,0.0448 0.0157,0.0984 -0.005,0.11903 -0.0206,0.0206 -0.0353,-0.016 -0.0326,-0.0815 z m 20.69167,0.0538 c 0.0944,-0.0143 0.23413,-0.0139 0.31051,8.6e-4 0.0764,0.0147 -8.7e-4,0.0264 -0.17163,0.026 -0.17078,-6.2e-4 -0.23328,-0.0125 -0.13888,-0.0268 z m -45.64633,-0.0603 c 0.0598,-0.0156 0.15759,-0.0156 0.21736,0 0.0598,0.0156 0.0109,0.0284 -0.10868,0.0284 -0.11955,0 -0.16845,-0.0128 -0.10868,-0.0284 z m 6.95738,-0.003 c 0.16327,-0.0128 0.41479,-0.0127 0.55892,6.2e-4 0.14414,0.013 0.0105,0.0235 -0.29686,0.0233 -0.30741,0 -0.42534,-0.0108 -0.26206,-0.0237 z m 43.71841,-8.1e-4 c 0.70875,-0.01 1.86852,-0.01 2.57727,0 0.70874,0.01 0.12886,0.0181 -1.28863,0.0181 -1.4175,0 -1.99738,-0.008 -1.28864,-0.0181 z m -82.68972,-0.0567 c 0.0427,-0.0172 0.11256,-0.0172 0.15525,0 0.0427,0.0172 0.008,0.0313 -0.0776,0.0313 -0.0854,0 -0.12032,-0.0141 -0.0776,-0.0313 z m 32.7941,-0.001 c 0.0448,-0.018 0.0984,-0.0157 0.11903,0.005 0.0206,0.0206 -0.0161,0.0353 -0.0815,0.0326 -0.0724,-0.003 -0.0871,-0.0177 -0.0375,-0.0375 z m 4.68605,-6.3e-4 c 0.0604,-0.0157 0.14426,-0.0147 0.18631,0.002 0.042,0.017 -0.007,0.0299 -0.10986,0.0286 -0.10247,-0.001 -0.13687,-0.0152 -0.0765,-0.0309 z m 50.55041,0 c 0.0598,-0.0156 0.15758,-0.0156 0.21736,0 0.0598,0.0156 0.0109,0.0284 -0.10868,0.0284 -0.11955,0 -0.16846,-0.0128 -0.10868,-0.0284 z m -110.321547,-0.0617 c 0.04483,-0.0179 0.0984,-0.0157 0.119032,0.005 0.02064,0.0206 -0.01605,0.0353 -0.08151,0.0326 -0.07235,-0.003 -0.08706,-0.0177 -0.03752,-0.0375 z m 12.668948,0 c 0.04483,-0.0179 0.0984,-0.0157 0.119033,0.005 0.02064,0.0206 -0.01605,0.0353 -0.08151,0.0326 -0.07235,-0.003 -0.08706,-0.0177 -0.03752,-0.0375 z m 10.337399,-6.2e-4 c 0.0604,-0.0157 0.14426,-0.0147 0.18631,0.002 0.042,0.017 -0.007,0.0299 -0.10986,0.0286 -0.10247,-0.001 -0.13687,-0.0152 -0.0764,-0.0309 z m 36.11541,6.2e-4 c 0.0448,-0.0179 0.0984,-0.0157 0.11903,0.005 0.0206,0.0206 -0.016,0.0353 -0.0815,0.0326 -0.0724,-0.003 -0.0871,-0.0177 -0.0375,-0.0375 z m -58.50073,-0.0621 c 0.04483,-0.0179 0.0984,-0.0157 0.119032,0.005 0.02064,0.0206 -0.01605,0.0353 -0.08151,0.0326 -0.07235,-0.003 -0.08706,-0.0177 -0.03752,-0.0375 z m 11.423013,10e-4 c 0.0427,-0.0172 0.112561,-0.0172 0.155257,0 0.0427,0.0172 0.0078,0.0313 -0.07763,0.0313 -0.08539,0 -0.120324,-0.0141 -0.07763,-0.0313 z m 11.924447,-0.003 c 0.0772,-0.0148 0.18903,-0.0143 0.24841,0.001 0.0594,0.0155 -0.004,0.0277 -0.14046,0.027 -0.13663,-6.8e-4 -0.18521,-0.0134 -0.10795,-0.0283 z m 9.75327,0.001 c 0.0448,-0.0179 0.0984,-0.0157 0.11903,0.005 0.0206,0.0206 -0.016,0.0353 -0.0815,0.0326 -0.0723,-0.003 -0.0871,-0.0177 -0.0375,-0.0375 z m -32.265045,-0.0627 c 0.06043,-0.0157 0.144264,-0.0147 0.186308,0.002 0.04205,0.017 -0.0074,0.0299 -0.10986,0.0286 -0.102469,-0.001 -0.136868,-0.0152 -0.07645,-0.0309 z m 9.686839,0 c 0.05977,-0.0156 0.157586,-0.0156 0.217359,0 0.05977,0.0156 0.01087,0.0284 -0.108679,0.0284 -0.119548,0 -0.168454,-0.0128 -0.10868,-0.0284 z m 14.222366,-0.002 c 0.0944,-0.0143 0.23413,-0.0139 0.31051,8.7e-4 0.0764,0.0147 -8.7e-4,0.0264 -0.17163,0.026 -0.17078,-6.2e-4 -0.23328,-0.0125 -0.13888,-0.0268 z m 7.63778,0.002 c 0.0598,-0.0156 0.15759,-0.0156 0.21736,0 0.0598,0.0156 0.0109,0.0284 -0.10868,0.0284 -0.11955,0 -0.16845,-0.0128 -0.10868,-0.0284 z m -30.244009,-0.0638 c 0.09393,-0.0142 0.247635,-0.0142 0.341565,0 0.09393,0.0142 0.01708,0.0259 -0.170782,0.0259 -0.187861,0 -0.264713,-0.0116 -0.170783,-0.0259 z m 6.925562,-6.2e-4 c 0.111623,-0.0138 0.2793,-0.0135 0.372616,6.2e-4 0.09332,0.0142 0.002,0.0255 -0.202946,0.0251 -0.204939,-6.2e-4 -0.281288,-0.0119 -0.16967,-0.0258 z m 18.073207,-10e-4 c 0.21481,-0.0122 0.55017,-0.0121 0.74523,0 0.19506,0.0123 0.0193,0.0222 -0.39058,0.0221 -0.40987,0 -0.56947,-0.0102 -0.35465,-0.0223 z m 3.29109,0 c 0.18047,-0.0126 0.45993,-0.0125 0.62102,0 0.1611,0.0127 0.0135,0.023 -0.32812,0.0229 -0.34156,0 -0.47337,-0.0106 -0.2929,-0.0232 z m -25.215776,-0.0624 c 0.247635,-0.0118 0.652855,-0.0118 0.900489,0 0.247635,0.0118 0.04502,0.0214 -0.450244,0.0214 -0.495269,0 -0.697879,-0.01 -0.450245,-0.0214 z m 50.567116,-0.0394 c 0,-0.0129 0.0489,-0.0618 0.10868,-0.10868 0.0985,-0.0772 0.10069,-0.075 0.0234,0.0235 -0.0811,0.10345 -0.13213,0.13635 -0.13213,0.0852 z m 40.97613,-0.7642 c 0.0448,-0.0179 0.0984,-0.0157 0.11903,0.005 0.0206,0.0206 -0.0161,0.0353 -0.0815,0.0326 -0.0724,-0.003 -0.0871,-0.0177 -0.0375,-0.0375 z m -98.308557,-0.0621 c 0.04483,-0.0179 0.09839,-0.0157 0.119032,0.005 0.02064,0.0206 -0.01605,0.0353 -0.08151,0.0326 -0.07235,-0.003 -0.08706,-0.0177 -0.03752,-0.0375 z m 15.740327,-6.2e-4 c 0.0604,-0.0157 0.14427,-0.0147 0.18631,0.002 0.0421,0.017 -0.007,0.0299 -0.10986,0.0286 -0.10247,-0.001 -0.13687,-0.0152 -0.0764,-0.0309 z m 7.35799,0.002 c 0.0427,-0.0172 0.11256,-0.0172 0.15526,0 0.0427,0.0172 0.008,0.0313 -0.0776,0.0313 -0.0854,0 -0.12032,-0.0141 -0.0776,-0.0313 z m 13.41806,-0.001 c 0.0448,-0.0179 0.0984,-0.0157 0.11904,0.005 0.0206,0.0206 -0.0161,0.0353 -0.0815,0.0326 -0.0724,-0.003 -0.0871,-0.0177 -0.0375,-0.0375 z m 41.72913,0.001 c 0.0427,-0.0172 0.11256,-0.0172 0.15525,0 0.0427,0.0172 0.008,0.0313 -0.0776,0.0313 -0.0854,0 -0.12033,-0.0141 -0.0776,-0.0313 z m 20.49777,-0.001 c 0.0448,-0.0179 0.0984,-0.0157 0.11903,0.005 0.0206,0.0206 -0.0161,0.0353 -0.0815,0.0326 -0.0724,-0.003 -0.0871,-0.0177 -0.0375,-0.0375 z m 14.36226,-0.0559 c 0.003,-0.0724 0.0177,-0.0871 0.0375,-0.0375 0.0179,0.0448 0.0157,0.0984 -0.005,0.11903 -0.0206,0.0206 -0.0353,-0.0161 -0.0326,-0.0815 z m -112.456161,-0.006 c 0.06043,-0.0157 0.144265,-0.0147 0.186309,0.002 0.04205,0.017 -0.0074,0.0299 -0.10986,0.0286 -0.10247,-0.001 -0.136868,-0.0152 -0.07645,-0.0309 z m 13.693575,-0.002 c 0.111623,-0.0138 0.2793,-0.0135 0.372616,6.2e-4 0.09332,0.0142 0.002,0.0255 -0.202945,0.0251 -0.204939,-6.2e-4 -0.281288,-0.012 -0.169671,-0.0258 z m 9.780066,0.002 c 0.0598,-0.0156 0.15758,-0.0156 0.21735,0 0.0598,0.0156 0.0109,0.0284 -0.10867,0.0284 -0.11955,0 -0.16846,-0.0128 -0.10868,-0.0284 z m 11.48899,0 c 0.0598,-0.0156 0.15759,-0.0156 0.21736,0 0.0598,0.0156 0.0109,0.0284 -0.10868,0.0284 -0.11955,0 -0.16845,-0.0128 -0.10868,-0.0284 z m 21.27405,6.2e-4 c 0.0448,-0.0179 0.0984,-0.0157 0.11904,0.005 0.0206,0.0206 -0.0161,0.0353 -0.0815,0.0326 -0.0724,-0.003 -0.0871,-0.0177 -0.0375,-0.0375 z m 20.64645,-6.2e-4 c 0.0604,-0.0157 0.14426,-0.0147 0.1863,0.002 0.0421,0.017 -0.007,0.0299 -0.10985,0.0286 -0.10247,-0.001 -0.13687,-0.0152 -0.0764,-0.0309 z m 21.76581,0.002 c 0.0427,-0.0172 0.11256,-0.0172 0.15526,0 0.0427,0.0172 0.008,0.0313 -0.0776,0.0313 -0.0854,0 -0.12033,-0.0141 -0.0776,-0.0313 z m -96.971472,-0.0667 c 0.163274,-0.0128 0.41479,-0.0127 0.558924,6.2e-4 0.144134,0.013 0.01055,0.0235 -0.296863,0.0233 -0.307409,0 -0.425336,-0.0108 -0.262061,-0.0237 z m 8.943495,-6.2e-4 c 0.231978,-0.012 0.595279,-0.0119 0.807334,0 0.212056,0.0121 0.02226,0.0219 -0.421776,0.0218 -0.444034,0 -0.617537,-0.01 -0.385558,-0.022 z m 14.437407,0.001 c 0.11162,-0.0138 0.2793,-0.0135 0.37261,6.2e-4 0.0933,0.0142 0.002,0.0255 -0.20294,0.0251 -0.20494,-6.2e-4 -0.28129,-0.0119 -0.16967,-0.0258 z m 8.4138,6.2e-4 c 0.0939,-0.0142 0.24763,-0.0142 0.34156,0 0.0939,0.0142 0.0171,0.0259 -0.17078,0.0259 -0.18786,0 -0.26471,-0.0116 -0.17078,-0.0259 z m 21.95402,6.2e-4 c 0.0772,-0.0149 0.18904,-0.0143 0.24842,0.001 0.0594,0.0155 -0.004,0.0277 -0.14046,0.027 -0.13663,-6.8e-4 -0.18521,-0.0134 -0.10796,-0.0283 z m 3.97773,0.001 c 0.0448,-0.0179 0.0984,-0.0157 0.11903,0.005 0.0206,0.0206 -0.016,0.0353 -0.0815,0.0326 -0.0724,-0.003 -0.0871,-0.0177 -0.0375,-0.0375 z m 16.11177,-0.002 c 0.0939,-0.0142 0.24763,-0.0142 0.34156,0 0.0939,0.0142 0.0171,0.0259 -0.17078,0.0259 -0.18786,0 -0.26471,-0.0116 -0.17078,-0.0259 z m 24.12689,6.8e-4 c 0.0769,-0.0148 0.20261,-0.0148 0.27946,0 0.0769,0.0148 0.014,0.0269 -0.13973,0.0269 -0.1537,0 -0.21658,-0.0121 -0.13973,-0.0269 z m -70.85561,-0.0647 c 0.42038,-0.0108 1.09109,-0.0107 1.49047,0 0.39938,0.0108 0.0554,0.0196 -0.76432,0.0196 -0.81975,-4e-5 -1.14652,-0.009 -0.72615,-0.0196 z m 10.21352,0.003 c 0.0604,-0.0157 0.14426,-0.0147 0.18631,0.002 0.0421,0.017 -0.007,0.0299 -0.10986,0.0286 -0.10247,-0.001 -0.13687,-0.0152 -0.0765,-0.0309 z m 13.78289,-0.003 c 0.22907,-0.0119 0.62032,-0.012 0.86944,0 0.24913,0.0118 0.0617,0.0216 -0.41647,0.0217 -0.47819,0 -0.68203,-0.01 -0.45297,-0.0215 z m 7.4861,0.002 c 0.0769,-0.0148 0.20261,-0.0148 0.27946,0 0.0769,0.0148 0.014,0.0269 -0.13973,0.0269 -0.15371,0 -0.21658,-0.0121 -0.13973,-0.0269 z m 12.29841,-0.002 c 0.18047,-0.0126 0.45993,-0.0125 0.62103,0 0.1611,0.0127 0.0134,0.023 -0.32812,0.0229 -0.34157,0 -0.47337,-0.0106 -0.29291,-0.0232 z m 29.12408,0 c 0.17932,-0.0125 0.47276,-0.0125 0.65208,0 0.17932,0.0125 0.0326,0.0228 -0.32604,0.0228 -0.35864,0 -0.50536,-0.0103 -0.32604,-0.0228 z m 10.15379,0.003 c 0.0598,-0.0156 0.15759,-0.0156 0.21736,0 0.0598,0.0156 0.0109,0.0284 -0.10868,0.0284 -0.11955,0 -0.16845,-0.0128 -0.10868,-0.0284 z m -66.54303,-0.0631 c 0.0768,-0.0148 0.20261,-0.0148 0.27946,0 0.0768,0.0148 0.014,0.0269 -0.13973,0.0269 -0.1537,0 -0.21658,-0.0121 -0.13973,-0.0269 z m 18.41751,-0.003 c 0.64267,-0.0101 1.67668,-0.0101 2.2978,4e-5 0.62112,0.0101 0.0953,0.0184 -1.16849,0.0184 -1.26379,-2e-5 -1.77198,-0.008 -1.12931,-0.0184 z m 43.4406,4e-5 c 0.523,-0.0104 1.36139,-0.0104 1.86309,5e-5 0.50169,0.0104 0.0738,0.0189 -0.95091,0.0189 -1.02469,-2e-5 -1.43517,-0.009 -0.91218,-0.0189 z M 60.2507,152.11213 c 0.264712,-0.0117 0.697879,-0.0117 0.962591,0 0.264713,0.0116 0.04813,0.0212 -0.481296,0.0212 -0.529425,0 -0.746008,-0.01 -0.481295,-0.0212 z m 19.6555,0.002 c 0.07685,-0.0148 0.20261,-0.0148 0.279462,0 0.07685,0.0148 0.01397,0.0269 -0.139731,0.0269 -0.153704,0 -0.216583,-0.0121 -0.139731,-0.0269 z m 47.02726,-0.35224 c 0,-0.0129 0.0489,-0.0618 0.10868,-0.10868 0.0985,-0.0772 0.10069,-0.0751 0.0234,0.0234 -0.0811,0.10344 -0.13213,0.13634 -0.13213,0.0852 z m 0.52787,-0.65975 c 0.0618,-0.0683 0.12638,-0.12421 0.14346,-0.12421 0.0171,0 -0.0195,0.0559 -0.0814,0.12421 -0.0618,0.0683 -0.12638,0.1242 -0.14346,0.1242 -0.0171,0 0.0195,-0.0559 0.0814,-0.1242 z m 1.44389,-0.41809 c 0.14517,-0.0131 0.38271,-0.0131 0.52787,0 0.14517,0.0131 0.0264,0.0238 -0.26393,0.0238 -0.29033,0 -0.4091,-0.0107 -0.26394,-0.0238 z m 10.1891,-2.54727 c 0.79648,-0.01 2.08201,-0.01 2.85673,2e-5 0.77471,0.01 0.12305,0.0179 -1.44815,0.0179 -1.5712,-1e-5 -2.20506,-0.008 -1.40858,-0.0179 z m -70.52186,-0.0601 c 0.09393,-0.0142 0.247634,-0.0142 0.341564,0 0.09393,0.0142 0.01708,0.0259 -0.170782,0.0259 -0.187861,0 -0.264713,-0.0116 -0.170782,-0.0259 z m 9.47066,0.003 c 0.04269,-0.0172 0.112561,-0.0172 0.155256,0 0.0427,0.0172 0.0078,0.0313 -0.07763,0.0313 -0.08539,0 -0.120324,-0.0141 -0.07763,-0.0313 z m 0.997524,-0.001 c 0.04483,-0.0179 0.09839,-0.0157 0.119032,0.005 0.02064,0.0206 -0.01605,0.0353 -0.08151,0.0326 -0.07235,-0.003 -0.08706,-0.0177 -0.03752,-0.0375 z m 33.463336,-0.004 c -0.016,-0.0256 0.22694,-0.0391 0.53973,-0.03 1.02723,0.0299 1.1411,0.054 0.30845,0.0654 -0.45055,0.006 -0.83224,-0.01 -0.84818,-0.0354 z m 14.66237,0.005 c 0.0427,-0.0172 0.11256,-0.0172 0.15525,0 0.0427,0.0172 0.008,0.0313 -0.0776,0.0313 -0.0854,0 -0.12032,-0.0141 -0.0776,-0.0313 z m 8.19828,-0.003 c 0.0772,-0.0148 0.18903,-0.0143 0.24841,10e-4 0.0594,0.0155 -0.004,0.0277 -0.14046,0.027 -0.13663,-6.8e-4 -0.18521,-0.0134 -0.10795,-0.0283 z m 9.99853,0 c 0.0773,-0.0148 0.18903,-0.0143 0.24841,10e-4 0.0594,0.0155 -0.004,0.0277 -0.14046,0.027 -0.13662,-6.8e-4 -0.18521,-0.0134 -0.10795,-0.0283 z m -77.691189,-0.0593 c 0.04269,-0.0172 0.112561,-0.0172 0.155256,0 0.0427,0.0172 0.0078,0.0313 -0.07763,0.0313 -0.08539,0 -0.120324,-0.0141 -0.07763,-0.0313 z m 9.754003,-0.001 c 0.04483,-0.0179 0.0984,-0.0157 0.119032,0.005 0.02064,0.0206 -0.01605,0.0353 -0.08151,0.0326 -0.07235,-0.003 -0.08706,-0.0177 -0.03752,-0.0375 z m 56.914416,-6.2e-4 c 0.0604,-0.0157 0.14426,-0.0147 0.1863,0.002 0.042,0.017 -0.007,0.0299 -0.10986,0.0286 -0.10247,-0.001 -0.13686,-0.0152 -0.0764,-0.0309 z m -0.58728,-0.0615 c 0.0448,-0.0179 0.0984,-0.0157 0.11903,0.005 0.0206,0.0206 -0.016,0.0353 -0.0815,0.0326 -0.0724,-0.003 -0.0871,-0.0177 -0.0375,-0.0375 z m -76.422355,-0.20597 c 0,-0.11955 0.01278,-0.16845 0.0284,-0.10868 0.01563,0.0598 0.01563,0.15759 0,0.21736 -0.01562,0.0598 -0.0284,0.0109 -0.0284,-0.10868 z m 75.987635,0.14389 c 0.0448,-0.0179 0.0984,-0.0157 0.11904,0.005 0.0206,0.0206 -0.0161,0.0353 -0.0815,0.0326 -0.0724,-0.003 -0.0871,-0.0177 -0.0375,-0.0375 z m -44.218912,-0.0655 c 0.180471,-0.0126 0.459933,-0.0125 0.621027,0 0.161101,0.0127 0.01344,0.023 -0.328119,0.0229 -0.341565,0 -0.473372,-0.0106 -0.292908,-0.0232 z m 4.222983,0 c 0.180471,-0.0126 0.459933,-0.0125 0.621027,0 0.161101,0.0127 0.01345,0.023 -0.32812,0.0229 -0.341564,0 -0.473371,-0.0106 -0.292907,-0.0232 z m -6.336554,-0.0601 c 0.07685,-0.0148 0.20261,-0.0148 0.279462,0 0.07685,0.0148 0.01397,0.0269 -0.139731,0.0269 -0.153705,0 -0.216584,-0.0121 -0.139731,-0.0269 z m 8.788381,-7.5e-4 c 0.0944,-0.0143 0.234133,-0.0139 0.310513,8.7e-4 0.07639,0.0147 -8.69e-4,0.0264 -0.171633,0.026 -0.170783,-6.3e-4 -0.233276,-0.0125 -0.13888,-0.0268 z m -9.998204,-0.0606 c 0.06043,-0.0157 0.144265,-0.0147 0.186308,0.002 0.04205,0.017 -0.0074,0.0299 -0.109859,0.0286 -0.10247,-0.001 -0.136869,-0.0152 -0.07645,-0.0309 z m 11.363612,0 c 0.05977,-0.0156 0.157586,-0.0156 0.217359,0 0.05977,0.0156 0.01087,0.0284 -0.108679,0.0284 -0.119548,0 -0.168454,-0.0128 -0.10868,-0.0284 z m -12.23305,-0.0623 c 0.06043,-0.0157 0.144265,-0.0147 0.186309,0.002 0.04205,0.017 -0.0074,0.0299 -0.10986,0.0286 -0.10247,-0.001 -0.136868,-0.0152 -0.07645,-0.0309 z m 13.16577,0 c 0.06043,-0.0157 0.144265,-0.0147 0.186308,0.002 0.04205,0.017 -0.0074,0.0299 -0.109859,0.0286 -0.10247,-0.001 -0.136868,-0.0152 -0.07645,-0.0309 z m -13.815146,-0.0615 c 0.04483,-0.0179 0.09839,-0.0157 0.119032,0.005 0.02064,0.0206 -0.01605,0.0353 -0.08151,0.0326 -0.07235,-0.003 -0.08706,-0.0177 -0.03752,-0.0375 z m 14.528147,10e-4 c 0.0427,-0.0172 0.112561,-0.0172 0.155257,0 0.04269,0.0172 0.0078,0.0313 -0.07763,0.0313 -0.08539,0 -0.120324,-0.0141 -0.07763,-0.0313 z M 83.760448,147.52 c 0.04483,-0.0179 0.0984,-0.0157 0.119032,0.005 0.02064,0.0206 -0.01605,0.0353 -0.08151,0.0326 -0.07235,-0.003 -0.08706,-0.0177 -0.03752,-0.0375 z m 62.782662,-0.87094 c 0.0772,-0.0149 0.18903,-0.0143 0.24841,0.001 0.0594,0.0155 -0.004,0.0277 -0.14046,0.027 -0.13662,-6.9e-4 -0.18521,-0.0134 -0.10795,-0.0283 z m -2.26747,-0.0638 c 0.16224,-0.0128 0.42773,-0.0128 0.58997,0 0.16224,0.0128 0.0295,0.0233 -0.29499,0.0233 -0.32448,0 -0.45723,-0.0105 -0.29498,-0.0233 z m -7.45233,-0.0617 c 0.12809,-0.0134 0.33769,-0.0134 0.46577,0 0.12809,0.0134 0.0233,0.0244 -0.23288,0.0244 -0.25618,0 -0.36097,-0.011 -0.23289,-0.0244 z m -49.123223,-0.0621 c 0.128087,-0.0134 0.337684,-0.0134 0.465771,0 0.128086,0.0134 0.02329,0.0244 -0.232885,0.0244 -0.256174,0 -0.360972,-0.011 -0.232886,-0.0244 z m 8.537735,6.2e-4 c 0.110245,-0.0137 0.305868,-0.0139 0.434719,-6.2e-4 0.128851,0.0135 0.03865,0.0247 -0.200449,0.0249 -0.239095,0 -0.344515,-0.0107 -0.23427,-0.0244 z m 39.564678,0.002 c 0.0448,-0.018 0.0984,-0.0157 0.11903,0.005 0.0206,0.0206 -0.016,0.0353 -0.0815,0.0326 -0.0724,-0.003 -0.0871,-0.0177 -0.0375,-0.0375 z m -49.375518,-0.0608 c 0.0427,-0.0172 0.112561,-0.0172 0.155257,0 0.0427,0.0172 0.0078,0.0313 -0.07763,0.0313 -0.08539,0 -0.120324,-0.0141 -0.07763,-0.0313 z m 11.240587,0 c 0.04269,-0.0172 0.112561,-0.0172 0.155257,0 0.04269,0.0172 0.0078,0.0313 -0.07763,0.0313 -0.08539,0 -0.120324,-0.0141 -0.07763,-0.0313 z m 1.257579,-0.29284 c 0,-0.0129 0.04891,-0.0618 0.10868,-0.10868 0.0985,-0.0772 0.100693,-0.0751 0.02345,0.0234 -0.08113,0.10345 -0.13213,0.13635 -0.13213,0.0852 z m -25.462102,-1.11785 c 0,-0.0129 0.04891,-0.0618 0.10868,-0.10868 0.0985,-0.0772 0.100693,-0.0751 0.02345,0.0234 -0.08113,0.10345 -0.13213,0.13635 -0.13213,0.0852 z m 49.930564,-3.72616 c 0,-0.0129 0.0489,-0.0618 0.10868,-0.10868 0.0985,-0.0772 0.10069,-0.0751 0.0234,0.0234 -0.0811,0.10345 -0.13213,0.13635 -0.13213,0.0852 z m 4.40929,-3.60195 c 0,-0.0129 0.0489,-0.0618 0.10868,-0.10868 0.0985,-0.0772 0.10069,-0.075 0.0234,0.0235 -0.0811,0.10344 -0.13213,0.13634 -0.13213,0.0852 z m -38.45321,-0.88841 c 0.04483,-0.0179 0.0984,-0.0157 0.119032,0.005 0.02064,0.0206 -0.01605,0.0353 -0.08151,0.0326 -0.07235,-0.003 -0.08706,-0.0177 -0.03752,-0.0375 z m 0.71148,-0.0627 c 0.06042,-0.0157 0.144264,-0.0147 0.186308,0.002 0.04205,0.017 -0.0074,0.0299 -0.10986,0.0286 -0.102469,-10e-4 -0.136868,-0.0152 -0.07645,-0.0309 z m 1.241724,-0.0636 c 0.0944,-0.0143 0.234133,-0.0139 0.310514,8.7e-4 0.07639,0.0147 -8.7e-4,0.0264 -0.171634,0.0259 -0.170782,-6.2e-4 -0.233276,-0.0125 -0.13888,-0.0268 z m 10.525556,0.003 c 0.0427,-0.0172 0.11256,-0.0172 0.15526,0 0.0427,0.0172 0.008,0.0313 -0.0776,0.0313 -0.0854,0 -0.12033,-0.0141 -0.0776,-0.0313 z m -8.257224,-0.067 c 0.214813,-0.0122 0.550168,-0.0121 0.745232,0 0.195058,0.0123 0.0193,0.0222 -0.390576,0.0221 -0.409878,0 -0.569476,-0.0102 -0.354656,-0.0223 z m 6.703274,0.001 c 0.11024,-0.0137 0.30586,-0.0139 0.43472,-6.2e-4 0.12885,0.0135 0.0386,0.0247 -0.20045,0.0249 -0.2391,0 -0.34452,-0.0107 -0.23427,-0.0245 z m 5.13448,-0.52963 -0.11831,-0.13973 0.13973,0.11831 c 0.13131,0.11117 0.168,0.16115 0.11831,0.16115 -0.0118,0 -0.0747,-0.0629 -0.13973,-0.13973 z m 24.69172,-0.31442 c 0,-0.0107 0.0908,-0.10151 0.20183,-0.20183 l 0.20183,-0.1824 -0.1824,0.20183 c -0.17002,0.18814 -0.22126,0.23038 -0.22126,0.1824 z m -39.81947,-0.51981 c 0.04483,-0.0179 0.0984,-0.0157 0.119033,0.005 0.02064,0.0206 -0.01605,0.0353 -0.08151,0.0326 -0.07235,-0.003 -0.08706,-0.0177 -0.03752,-0.0375 z m 13.47628,0 c 0.0448,-0.0179 0.0984,-0.0157 0.11904,0.005 0.0206,0.0206 -0.016,0.0353 -0.0815,0.0326 -0.0724,-0.003 -0.0871,-0.0177 -0.0375,-0.0375 z m -12.7648,-0.0627 c 0.06043,-0.0157 0.144264,-0.0147 0.186308,0.002 0.04205,0.017 -0.0074,0.0299 -0.10986,0.0286 -0.102469,-0.001 -0.136868,-0.0152 -0.07645,-0.0309 z m 12.17213,0 c 0.0604,-0.0157 0.14426,-0.0147 0.1863,0.002 0.0421,0.017 -0.007,0.0299 -0.10985,0.0286 -0.10247,-0.001 -0.13687,-0.0152 -0.0765,-0.0309 z m 29.62298,0 c 0.0604,-0.0157 0.14426,-0.0147 0.18631,0.002 0.042,0.017 -0.007,0.0299 -0.10986,0.0286 -0.10247,-0.001 -0.13687,-0.0152 -0.0764,-0.0309 z m 5.21544,-0.001 c 0.0939,-0.0142 0.24764,-0.0142 0.34157,0 0.0939,0.0142 0.0171,0.0259 -0.17078,0.0259 -0.18786,0 -0.26472,-0.0116 -0.17079,-0.0259 z m -54.120407,-0.0635 c 0.18047,-0.0126 0.459932,-0.0125 0.621026,0 0.161101,0.0127 0.01345,0.023 -0.328119,0.0229 -0.341565,0 -0.473372,-0.0106 -0.292907,-0.0232 z m 8.412833,6.2e-4 c 0.128087,-0.0134 0.337684,-0.0134 0.46577,0 0.128087,0.0134 0.02329,0.0244 -0.232885,0.0244 -0.256173,0 -0.360971,-0.011 -0.232885,-0.0244 z m 9.315404,0 c 0.12809,-0.0134 0.33768,-0.0134 0.46577,0 0.12809,0.0134 0.0233,0.0244 -0.23289,0.0244 -0.25617,0 -0.36097,-0.011 -0.23288,-0.0244 z m 6.67992,0.003 c 0.0448,-0.0179 0.0984,-0.0157 0.11903,0.005 0.0206,0.0206 -0.016,0.0353 -0.0815,0.0326 -0.0724,-0.003 -0.0871,-0.0177 -0.0375,-0.0375 z m 25.39612,-0.002 c 0.11101,-0.0138 0.29266,-0.0138 0.40367,0 0.111,0.0138 0.0202,0.0251 -0.20184,0.0251 -0.22202,0 -0.31284,-0.0113 -0.20183,-0.0251 z m -70.389896,-0.18779 c 0.40327,-0.0108 1.046033,-0.0108 1.428362,0 0.382335,0.0109 0.05239,0.0197 -0.733209,0.0197 -0.785599,-5e-5 -1.098417,-0.009 -0.695153,-0.0198 z m -2.192622,-3.84965 c 0,-0.40452 0.545044,-2.08863 1.27154,-3.9289 3.010539,-7.62589 6.656327,-13.39312 11.582492,-18.32219 3.987533,-3.98989 8.586088,-7.12222 13.508558,-9.201417 1.897871,-0.80164 6.284966,-2.273095 7.755713,-2.601301 0.511316,-0.114102 0.56003,-0.115692 0.663915,-0.02168 0.246181,0.222788 0.261254,0.503982 0.288163,5.375358 l 0.02594,4.69649 -2.969552,0.0336 c -3.187103,0.0361 -3.765546,0.0812 -5.049998,0.39427 -3.087224,0.75239 -6.399856,2.23579 -9.408557,4.21316 -5.430805,3.56922 -10.407317,8.85847 -15.444522,16.41511 -1.025912,1.53903 -1.919843,2.80254 -2.091526,2.95621 -0.130303,0.11664 -0.132166,0.11651 -0.132166,-0.009 z"
         style="fill:#1078a3;stroke-width:0.0621027" />
      <path
         id="path1266"
         d="m 67.966959,172.44428 c -0.735917,-0.1915 -1.251463,-0.62734 -1.614304,-1.36474 -0.886261,-1.80112 -0.234972,-4.21262 1.304032,-4.82841 0.320251,-0.12815 0.476682,-0.14908 1.117606,-0.14953 0.690806,-6.2e-4 0.773632,0.0126 1.134107,0.17868 0.584492,0.26935 0.933497,0.70813 1.153496,1.45021 l 0.09666,0.32604 H 70.760623 70.3627 l -0.06436,-0.23903 c -0.13067,-0.48526 -0.509143,-0.86878 -0.988867,-1.00203 -0.414766,-0.11521 -1.062435,-0.0766 -1.40698,0.0838 -0.852527,0.397 -1.328706,1.59759 -1.152608,2.9061 0.11694,0.86892 0.48891,1.5018 1.072781,1.82522 0.300981,0.16674 0.383459,0.18314 0.920579,0.18314 0.536188,0 0.617307,-0.0161 0.889783,-0.17622 0.363282,-0.21354 0.610339,-0.58148 0.758863,-1.13017 l 0.108661,-0.40143 h 0.395638 0.395631 l -0.03765,0.17078 c -0.26244,1.19026 -0.670175,1.7741 -1.446043,2.07058 -0.435756,0.16652 -1.382368,0.21639 -1.841164,0.097 z m 18.544377,0.0165 c -0.766732,-0.15058 -1.561255,-0.75466 -1.898094,-1.44314 -0.666455,-1.36217 -0.449052,-3.17497 0.493841,-4.11786 0.89362,-0.89362 2.438524,-1.09938 3.581915,-0.47707 0.362705,0.19741 0.9174,0.76527 1.103112,1.1293 0.484506,0.94971 0.496902,2.41025 0.02885,3.39963 -0.204982,0.4333 -0.734743,1.00669 -1.127673,1.22055 -0.573704,0.31225 -1.462735,0.42984 -2.181947,0.28859 z m 1.651988,-0.82207 c 0.672615,-0.34519 1.086337,-0.9743 1.213219,-1.84485 0.184079,-1.26297 -0.331361,-2.45344 -1.245065,-2.87564 -0.240686,-0.11121 -0.40563,-0.13476 -0.943738,-0.13476 -0.588236,0 -0.683135,0.0164 -0.969274,0.16734 -0.414355,0.21861 -0.85239,0.71222 -1.025278,1.15534 -0.208367,0.53408 -0.238586,1.59851 -0.06156,2.16864 0.222011,0.71503 0.692811,1.23079 1.331531,1.45869 0.480017,0.17128 1.267261,0.1274 1.700167,-0.0948 z m 9.209257,0.77657 c -1.002635,-0.26207 -1.733907,-1.02174 -2.018635,-2.09703 -0.128298,-0.4845 -0.128298,-1.55477 0,-2.03927 0.362617,-1.36942 1.449048,-2.20971 2.857021,-2.20971 1.426555,0 2.495573,0.83329 2.854453,2.22502 0.12069,0.46804 0.13677,1.46335 0.0308,1.90481 -0.1275,0.53103 -0.47539,1.18622 -0.80469,1.51552 -0.708171,0.70818 -1.845607,0.9812 -2.918909,0.70066 z m 1.534874,-0.67133 c 0.91055,-0.30909 1.427795,-1.08144 1.492095,-2.22798 0.0936,-1.66931 -0.772977,-2.76357 -2.188583,-2.76357 -0.857886,0 -1.523509,0.39579 -1.886176,1.12155 -0.254211,0.50872 -0.339845,0.97319 -0.302738,1.64202 0.07967,1.43605 0.905134,2.32067 2.171221,2.32683 0.229358,10e-4 0.550739,-0.0434 0.714181,-0.0988 z m 5.049515,0.68445 c -0.954,-0.25637 -1.6482,-1.01622 -1.92805,-2.11039 -0.3952,-1.54525 0.16997,-3.22678 1.30885,-3.89421 0.66472,-0.38955 1.90644,-0.46914 2.68241,-0.17193 0.63223,0.24215 1.23095,0.92121 1.38584,1.57181 l 0.0407,0.17078 h -0.40546 c -0.39924,0 -0.40609,-0.003 -0.44604,-0.18468 -0.0675,-0.30752 -0.54783,-0.78414 -0.93685,-0.92969 -0.46779,-0.17503 -1.143,-0.17277 -1.61924,0.005 -0.9621,0.35997 -1.52021,1.5514 -1.33621,2.8525 0.12936,0.91471 0.49922,1.51778 1.14108,1.86059 0.33584,0.17936 0.4654,0.21228 0.91884,0.23347 0.43522,0.0203 0.59226,6.2e-4 0.8947,-0.1136 0.67123,-0.253 1.13744,-0.88874 1.16945,-1.59468 l 0.0163,-0.3594 -0.94707,-0.0171 -0.94706,-0.0171 v -0.30889 -0.3089 h 1.30519 1.30518 l -0.0165,1.63019 -0.0166,1.6302 -0.229,0.019 c -0.21768,0.0181 -0.23223,0.007 -0.29464,-0.21736 -0.0361,-0.13002 -0.0662,-0.27832 -0.0669,-0.32955 -6.8e-4,-0.0512 -0.0268,-0.13349 -0.058,-0.18279 -0.0458,-0.0724 -0.11024,-0.0403 -0.33444,0.16637 -0.67279,0.62017 -1.6595,0.84906 -2.58637,0.59999 z m 21.3197,0.005 c -1.36426,-0.36761 -2.19358,-1.55265 -2.19358,-3.13451 0,-1.90618 1.21715,-3.22934 2.97062,-3.22934 1.50519,0 2.57848,0.88748 2.89814,2.3964 0.40258,1.90032 -0.5576,3.64925 -2.19223,3.99306 -0.43846,0.0922 -1.08724,0.081 -1.48295,-0.0256 z m 1.5583,-0.71585 c 1.01592,-0.3801 1.60289,-1.58862 1.4085,-2.89996 -0.12946,-0.87336 -0.5472,-1.51654 -1.21328,-1.86809 -0.28262,-0.14916 -0.37943,-0.16578 -0.96617,-0.16578 -0.58674,0 -0.68355,0.0166 -0.96617,0.16578 -0.66608,0.35155 -1.08381,0.99473 -1.21328,1.86809 -0.19091,1.28787 0.36245,2.46906 1.34616,2.87346 0.48114,0.1978 1.11827,0.20833 1.60424,0.0265 z m 25.38985,0.71849 c -0.39423,-0.11073 -0.74363,-0.28386 -0.98825,-0.48969 -0.23037,-0.19384 -0.49545,-0.67912 -0.54719,-1.00175 -0.0219,-0.13662 -0.0528,-0.31129 -0.0685,-0.38814 -0.0271,-0.1321 -0.009,-0.13973 0.33045,-0.13973 h 0.3591 l 0.077,0.32419 c 0.0933,0.39284 0.33618,0.70985 0.70317,0.91786 0.25011,0.14177 0.33867,0.15526 1.01914,0.15526 0.68016,0 0.76926,-0.0136 1.02034,-0.15526 0.37311,-0.21057 0.58351,-0.60019 0.54608,-1.01119 -0.051,-0.55997 -0.31964,-0.72462 -1.84588,-1.13135 -0.59061,-0.15739 -1.17457,-0.33783 -1.29768,-0.40098 -0.44578,-0.22864 -0.69825,-0.64732 -0.70911,-1.17597 -0.0117,-0.56727 0.12296,-0.92482 0.48183,-1.27977 0.45283,-0.44787 0.79904,-0.55893 1.74232,-0.55893 0.68671,0 0.7745,0.0137 1.11785,0.17429 0.62835,0.29392 0.99754,0.75806 1.06657,1.34086 l 0.0375,0.31688 h -0.37309 -0.37309 l -0.0336,-0.25073 c -0.0449,-0.33444 -0.30873,-0.66588 -0.65912,-0.82792 -0.43485,-0.2011 -1.30013,-0.18895 -1.68111,0.0236 -0.37516,0.2093 -0.56132,0.49769 -0.56132,0.86955 0,0.56912 0.25239,0.73336 1.74365,1.13465 0.56096,0.15095 1.1317,0.33162 1.26833,0.4015 0.58138,0.29734 0.83838,0.71852 0.83838,1.37397 0,0.36623 -0.0306,0.49059 -0.20183,0.81931 -0.36944,0.70937 -0.92842,0.99224 -2.03386,1.02923 -0.44609,0.0149 -0.75507,-0.007 -0.97808,-0.0697 z m 6.20143,0.025 c -0.79468,-0.15606 -1.57684,-0.76681 -1.92101,-1.5 -0.25808,-0.5498 -0.3491,-0.98315 -0.3491,-1.66217 0,-0.32448 0.0375,-0.74368 0.0832,-0.93154 0.35078,-1.43949 1.43978,-2.2978 2.91538,-2.2978 1.06797,0 2.04204,0.55175 2.51802,1.42628 0.51687,0.94965 0.54406,2.4394 0.0631,3.45609 -0.20498,0.43329 -0.73474,1.00669 -1.12767,1.22054 -0.57371,0.31226 -1.46274,0.42985 -2.18195,0.2886 z m 1.65666,-0.82444 c 0.9711,-0.49828 1.43287,-1.66244 1.18754,-2.99392 -0.15335,-0.83232 -0.67156,-1.51351 -1.34422,-1.76697 -0.48189,-0.18159 -1.33908,-0.15479 -1.74239,0.0545 -0.89669,0.46523 -1.29496,1.28401 -1.24261,2.55457 0.0224,0.54322 0.0554,0.71543 0.19615,1.02286 0.4432,0.96806 1.06561,1.36097 2.08948,1.31902 0.42431,-0.0174 0.59225,-0.0547 0.85605,-0.19001 z m 9.03256,0.79917 c -0.63865,-0.17943 -1.04013,-0.48318 -1.3069,-0.98877 l -0.1668,-0.3161 -0.0182,-2.49963 -0.0182,-2.49963 h 0.37526 0.37526 v 2.33084 c 0,2.50238 0.0105,2.5961 0.329,2.93756 0.2962,0.31753 0.5858,0.41287 1.25595,0.41345 0.54637,6.2e-4 0.66011,-0.0189 0.93154,-0.1584 0.33252,-0.17093 0.55011,-0.4376 0.64976,-0.79635 0.0365,-0.13138 0.0626,-1.1594 0.0627,-2.47588 l 6.3e-4,-2.25122 h 0.37261 0.37262 l -6.2e-4,2.34437 c 0,1.46376 -0.0252,2.43769 -0.0666,2.59279 -0.0802,0.30039 -0.37799,0.75282 -0.62978,0.95666 -0.10144,0.0821 -0.35646,0.21932 -0.56671,0.30488 -0.48302,0.19655 -1.44269,0.24839 -1.95159,0.10543 z m 13.64831,-0.0202 c -0.52991,-0.13851 -0.89113,-0.35691 -1.29286,-0.78168 -0.55392,-0.58568 -0.81864,-1.34073 -0.81864,-2.33499 0,-1.00521 0.26649,-1.75502 0.83593,-2.35201 0.56373,-0.59102 1.24673,-0.87733 2.09289,-0.87733 1.40697,0 2.39937,0.70906 2.82488,2.01834 0.13152,0.40467 0.16252,0.62354 0.16712,1.17995 0.006,0.75682 -0.0838,1.15609 -0.4038,1.78999 -0.5862,1.16125 -2.0003,1.72504 -3.40552,1.35773 z m 1.81597,-0.77724 c 0.43098,-0.21086 0.74989,-0.558 0.99623,-1.08442 0.1623,-0.34683 0.19411,-0.49798 0.21805,-1.03632 0.0156,-0.35139 -0.003,-0.77481 -0.042,-0.95692 -0.15554,-0.72525 -0.58773,-1.31338 -1.19661,-1.62838 -0.368,-0.19038 -1.2127,-0.23748 -1.65063,-0.092 -0.9152,0.30398 -1.50725,1.26725 -1.50725,2.45231 0,1.23834 0.59881,2.16473 1.61467,2.498 0.0854,0.028 0.39506,0.0434 0.68814,0.0341 0.43231,-0.0136 0.59831,-0.0488 0.87942,-0.18636 z m 10.62591,0.82524 c -0.96914,-0.19174 -1.69812,-0.98193 -1.69812,-1.84073 v -0.20609 h 0.34083 0.34084 l 0.0407,0.25481 c 0.0612,0.38276 0.37202,0.79895 0.73535,0.98464 0.27799,0.14209 0.38039,0.15786 1.02469,0.15786 0.57729,0 0.76159,-0.0227 0.95223,-0.11741 0.36248,-0.18006 0.5591,-0.4805 0.5895,-0.9008 0.0228,-0.31474 0.007,-0.37633 -0.14402,-0.55557 -0.24829,-0.29508 -0.51626,-0.4083 -1.77534,-0.75016 -1.26789,-0.34424 -1.53968,-0.48683 -1.77401,-0.93069 -0.10569,-0.20019 -0.14441,-0.37532 -0.14415,-0.65208 7.4e-4,-0.78638 0.27422,-1.23984 0.95864,-1.58937 0.41706,-0.213 0.44072,-0.21736 1.1772,-0.21736 0.90127,0 1.25369,0.10074 1.68714,0.48228 0.33398,0.29397 0.58446,0.77189 0.58535,1.11686 l 6.2e-4,0.23289 h -0.34038 c -0.32071,0 -0.34258,-0.01 -0.37839,-0.17079 -0.0748,-0.33618 -0.0992,-0.3913 -0.25592,-0.5775 -0.28561,-0.33943 -0.60091,-0.45741 -1.22995,-0.46022 -0.64426,-0.003 -1.048,0.14713 -1.28255,0.47654 -0.19333,0.2715 -0.2179,0.70866 -0.0545,0.96907 0.16801,0.26772 0.43733,0.38225 1.7186,0.73083 1.1627,0.31633 1.49443,0.47498 1.76014,0.84178 0.53181,0.73415 0.29231,1.85583 -0.51088,2.39261 -0.50181,0.33538 -1.5443,0.4828 -2.32368,0.3286 z m -137.951415,-2.8852 v -2.76357 h -0.993643 -0.993643 v -0.34229 -0.3423 l 2.406479,0.0163 2.406479,0.0162 0.01877,0.32604 0.01877,0.32604 H 59.089522 58.06158 v 2.76357 2.76357 h -0.403668 -0.403667 z m 3.616904,-0.32604 0.0161,-3.08961 2.127017,-0.0163 2.127017,-0.0164 v 0.34239 0.34238 h -1.738875 -1.738875 v 1.02469 1.0247 h 1.676772 1.676773 v 0.31051 0.31051 h -1.676773 -1.676772 v 1.0868 1.0868 h 1.832029 1.832029 v 0.34156 0.34157 H 63.09132 60.855039 Z m 11.411946,-0.0185 v -3.1081 l 0.388142,0.0185 0.388142,0.0185 0.01674,1.35073 0.01674,1.35074 h 1.581197 1.581196 l 0.01674,-1.35074 0.01674,-1.35073 0.388141,-0.0185 0.388142,-0.0185 v 3.1081 3.1081 H 76.661348 76.25768 v -1.42837 -1.42836 H 74.674049 73.09043 v 1.42836 1.42837 h -0.403667 -0.403668 z m 6.101012,0.0185 0.0161,-3.08961 0.406065,-0.0181 0.406064,-0.0181 1.612273,2.52347 1.612273,2.52346 0.03105,-2.5054 0.03105,-2.5054 0.357091,-0.0186 0.35709,-0.0186 v 3.11095 3.11096 l -0.445382,-0.0182 -0.445375,-0.0182 -1.54283,-2.41982 c -0.848558,-1.3309 -1.570365,-2.44736 -1.604013,-2.481 -0.04017,-0.0402 -0.06118,0.79612 -0.06118,2.43535 v 2.49653 h -0.373194 -0.3732 z m 12.840308,-0.0155 v -3.10513 h 0.372616 0.372616 v 2.76357 2.76357 h 1.521516 1.521516 v 0.34156 0.34157 h -1.894132 -1.894132 z m 18.879215,1.88589 v -1.21925 l -1.17995,-1.85789 c -0.64897,-1.02185 -1.17995,-1.87049 -1.17995,-1.88589 0,-0.0154 0.20801,-0.028 0.46223,-0.028 h 0.46223 l 0.88189,1.47494 c 0.48504,0.81121 0.90107,1.49673 0.92452,1.52338 0.0235,0.0266 0.44289,-0.63709 0.9321,-1.47494 l 0.88947,-1.52338 h 0.46344 0.46344 l -0.0908,0.13973 c -0.0499,0.0768 -0.58412,0.93915 -1.18709,1.91622 l -1.09632,1.77649 v 1.18891 1.18892 h -0.37261 -0.37262 z m 6.21027,-1.88589 v -3.10513 h 0.52077 0.52077 l 0.43161,1.25758 c 0.23739,0.69167 0.65258,1.90615 0.92264,2.69884 0.27007,0.79269 0.50871,1.42148 0.53032,1.39731 0.0216,-0.0242 0.43637,-1.23865 0.92167,-2.69884 l 0.88237,-2.65489 h 0.5227 0.5227 v 3.10513 3.10514 h -0.34156 -0.34157 V 169.754 c 0,-1.42318 -0.017,-2.57058 -0.0378,-2.54977 -0.0208,0.0208 -0.42265,1.17825 -0.89299,2.57209 l -0.85515,2.53424 -0.40442,0.0182 -0.40441,0.0182 -0.10374,-0.29767 c -0.0571,-0.16372 -0.43747,-1.28544 -0.84537,-2.49272 -0.4079,-1.20728 -0.76863,-2.24129 -0.80162,-2.2978 -0.0393,-0.0673 -0.0606,0.79222 -0.0619,2.49004 l -0.002,2.59279 h -0.34157 -0.34156 v -3.10514 z m 13.72469,-0.002 v -3.11652 l 1.53705,0.0253 c 1.43245,0.0236 1.55817,0.0349 1.84755,0.16553 0.17078,0.0771 0.38993,0.21556 0.48699,0.30766 0.59817,0.56761 0.61847,1.62554 0.0412,2.14706 -0.137,0.12378 -0.27695,0.22504 -0.31101,0.22504 -0.13994,0 -0.0469,0.12548 0.1689,0.22791 0.34663,0.16449 0.68358,0.53354 0.76575,0.83872 0.10709,0.39771 0.0523,1.02467 -0.11851,1.35537 -0.19517,0.37791 -0.35545,0.54109 -0.72281,0.73586 l -0.31051,0.16463 -1.6923,0.02 -1.6923,0.02 z m 3.26654,2.30617 c 0.35165,-0.1597 0.52714,-0.42791 0.56429,-0.86245 0.0395,-0.46175 -0.14909,-0.84301 -0.5108,-1.03274 -0.22324,-0.11711 -0.352,-0.12902 -1.39484,-0.12902 h -1.1489 l -0.017,1.07127 -0.017,1.07128 1.13484,-10e-4 c 0.97221,-0.001 1.17131,-0.0179 1.38939,-0.11697 z m -0.16077,-2.87812 c 0.33867,-0.2305 0.45183,-0.43196 0.45183,-0.80443 0,-0.41419 -0.13264,-0.67809 -0.43543,-0.86635 -0.22195,-0.13799 -0.29041,-0.14572 -1.29014,-0.14572 h -1.05574 l -0.0171,0.97811 -0.0171,0.97812 h 1.07919 c 1.01693,0 1.09104,-0.008 1.2845,-0.13973 z m 2.79399,0.57443 v -3.10513 h 0.37262 0.37261 v 3.10513 3.10514 h -0.37261 -0.37262 z m 2.17359,0 v -3.10513 h 0.37262 0.37262 v 2.76357 2.76357 h 1.55256 1.55257 v 0.34156 0.34157 h -1.92518 -1.92519 z m 4.84401,0 v -3.10513 h 2.1115 2.11149 v 0.34156 0.34157 h -1.73888 -1.73887 v 1.02469 1.0247 h 1.67677 1.67677 v 0.31051 0.31051 h -1.67677 -1.67677 v 1.0868 1.0868 h 1.83203 1.83202 v 0.34156 0.34157 h -2.20464 -2.20465 z m 20.18338,0 v -3.10513 h 0.37261 0.37262 v 2.76357 2.76357 h 1.52152 1.52151 v 0.34156 0.34157 h -1.89413 -1.89413 z m 11.98582,0.34157 v -2.76357 h -1.02795 -1.02793 l 0.0188,-0.32604 0.0188,-0.32604 2.40648,-0.0162 2.40648,-0.0163 v 0.3423 0.34229 h -0.99365 -0.99364 v 2.76357 2.76357 h -0.40367 -0.40366 z m 3.66405,-0.34453 v -3.1081 l 0.38815,0.0185 0.38814,0.0185 0.0161,3.08961 0.0161,3.08961 h -0.40425 -0.40425 z m 8.77143,0.0185 0.0161,-3.08961 0.40967,-0.0181 0.40965,-0.0181 1.60752,2.51778 c 0.88413,1.38477 1.629,2.51778 1.65526,2.51778 0.0263,0 0.0477,-1.13183 0.0477,-2.51516 v -2.51516 h 0.34157 0.34156 v 3.10785 3.10786 l -0.44259,-0.0182 -0.44259,-0.0182 -1.53797,-2.41217 c -0.84588,-1.32669 -1.56894,-2.44314 -1.6068,-2.481 -0.0504,-0.0504 -0.0688,0.60071 -0.0688,2.4277 v 2.49653 h -0.3732 -0.3732 z M 81.722704,163.3364 c -2.232312,-0.0827 -3.15096,-0.29238 -3.378206,-0.77126 -0.310166,-0.65363 0.09967,-1.84404 1.830029,-5.31543 1.180802,-2.36889 1.694441,-3.21987 2.170682,-3.59632 0.370535,-0.29289 1.384231,-0.81423 1.923705,-0.98936 0.629448,-0.20434 1.126431,-0.25427 3.260391,-0.32758 2.252899,-0.0774 10.633191,-0.0304 12.731055,0.0713 1.70802,0.0829 2.13992,0.21146 2.50416,0.74556 0.12658,0.18561 0.14226,0.2651 0.11176,0.56682 -0.0455,0.44976 -0.32933,1.22605 -0.69758,1.90767 -0.61612,1.14039 -1.1648,1.81688 -2.02546,2.49727 l -0.622094,0.4918 h -8.656673 -8.656674 l -0.551106,1.13971 c -0.30311,0.62684 -0.57068,1.22882 -0.594602,1.33773 -0.09151,0.41663 0.296106,0.6861 1.179411,0.81994 0.358953,0.0544 2.531045,0.0822 7.865634,0.10056 l 7.369745,0.0254 -0.220365,0.36993 c -0.42441,0.71245 -0.605191,0.77811 -2.378042,0.86365 -1.616378,0.078 -11.482384,0.12484 -13.16577,0.0625 z m 10.712713,-5.65192 c 3.950408,-0.0729 5.106928,-0.13984 5.477023,-0.3169 0.680372,-0.32548 2.19266,-2.47862 2.19266,-3.12182 0,-0.2548 -0.249045,-0.49743 -0.608328,-0.59266 -0.817637,-0.21672 -3.115598,-0.32535 -6.906098,-0.32646 -3.743711,-0.001 -6.160251,0.11276 -6.986552,0.3292 -0.677478,0.17746 -2.456702,2.69243 -2.561308,3.62046 l -0.03025,0.26837 0.240033,0.0476 c 0.230066,0.0456 2.906555,0.12353 4.928786,0.14349 0.529426,0.005 2.443741,-0.0178 4.254034,-0.0513 z m 7.656763,5.65691 c -0.160807,-0.0225 -0.312002,-0.0605 -0.335986,-0.0845 -0.08808,-0.0881 0.127335,-0.58703 1.032536,-2.39155 1.35715,-2.70549 3.13086,-5.99108 3.80526,-7.04883 0.34734,-0.54476 0.51811,-0.6599 1.37981,-0.93028 1.12157,-0.35193 1.88949,-0.44029 4.75044,-0.54666 2.26955,-0.0844 9.32535,-0.0422 10.61998,0.0634 0.46111,0.0376 1.02438,0.12371 1.25169,0.19129 0.55637,0.16537 0.86367,0.15862 1.13416,-0.0249 0.26981,-0.18311 0.76258,-0.27643 1.80613,-0.34205 0.92131,-0.0579 1.21216,-0.16331 1.50318,-0.54459 0.66885,-0.8763 0.84056,-0.95287 2.13701,-0.95287 1.25218,0 1.32321,0.0528 1.00997,0.75079 -0.0895,0.19946 -0.14695,0.40382 -0.12764,0.45414 0.0844,0.21997 0.42015,0.23728 5.62064,0.28976 4.95731,0.05 6.54847,0.10791 6.96594,0.25345 0.18963,0.0661 0.19873,0.0833 0.16752,0.31588 -0.0613,0.45724 -0.40618,0.66066 -1.34733,0.79474 -0.80422,0.11457 -3.72565,0.17975 -8.19756,0.18288 l -4.31613,0.003 -1.199,2.31251 c -1.67663,3.23372 -2.38536,4.78891 -2.47585,5.43282 -0.0358,0.25497 -0.03,0.26655 0.17876,0.35377 0.45018,0.1881 1.52696,0.23337 6.72543,0.28272 4.98509,0.0473 5.59282,0.0723 5.75712,0.2366 0.0931,0.0931 -0.17387,0.555 -0.38328,0.66328 -0.44365,0.22942 -0.98797,0.24944 -6.77115,0.24901 -6.58869,-6.3e-4 -7.36205,-0.0449 -8.03639,-0.4617 -0.25446,-0.15726 -0.58135,-0.51627 -0.66112,-0.72606 -0.0953,-0.25056 0.29298,-1.15528 2.20838,-5.1463 1.47446,-3.07223 1.47784,-3.07989 1.39538,-3.16235 -0.10996,-0.10996 -0.99863,-0.12302 -1.24911,-0.0184 -0.50249,0.20996 -0.80225,0.73079 -3.1951,5.55148 l -1.88578,3.79912 -0.35867,0.0462 c -0.48282,0.0622 -2.47736,0.0686 -2.53852,0.008 -0.0505,-0.0499 0.90731,-1.99301 2.51705,-5.10634 1.14131,-2.20734 1.76435,-3.57935 1.76846,-3.89434 0.004,-0.28311 -0.25186,-0.5785 -0.58062,-0.67111 -1.1191,-0.31525 -10.97914,-0.1631 -12.30702,0.18991 -0.41726,0.11093 -0.9609,0.81808 -1.93153,2.51246 -0.59198,1.0334 -1.36635,2.5016 -1.34114,2.5428 0.0107,0.0175 -0.49726,1.06639 -1.12878,2.33092 l -1.14823,2.29914 -0.96327,-0.008 c -0.52979,-0.005 -1.09483,-0.0267 -1.25564,-0.0491 z m 45.40998,-0.0716 c -2.17647,-0.0441 -3.16135,-0.11092 -3.69511,-0.25079 -0.37998,-0.0996 -0.76254,-0.34735 -0.93227,-0.60383 -0.41352,-0.62486 -0.21219,-1.42701 0.85198,-3.39463 1.06084,-1.96147 1.40913,-2.31352 2.6073,-2.6355 1.10651,-0.29734 2.37481,-0.35866 9.07166,-0.43851 6.68174,-0.0797 7.92104,-0.14724 8.379,-0.45676 0.25386,-0.17156 0.50024,-0.66662 0.53464,-1.07422 0.0242,-0.28677 0.0111,-0.33032 -0.12658,-0.42053 -0.0845,-0.0553 -0.34621,-0.1293 -0.58163,-0.16433 -0.25682,-0.0382 -3.37204,-0.0849 -7.78723,-0.11659 -7.34848,-0.0528 -8.34771,-0.0844 -9.05066,-0.28576 -0.41264,-0.11824 -0.4786,-0.28984 -0.26568,-0.69121 0.17861,-0.33667 0.32413,-0.38066 1.51299,-0.45743 1.16173,-0.075 10.49951,-0.0731 13.76521,0.003 4.94828,0.11498 5.65135,0.27757 5.65135,1.30687 0,0.52689 -0.98249,2.74433 -3.05995,6.90617 l -1.41822,2.8412 -6.59503,-0.0105 c -3.62726,-0.006 -7.61505,-0.0311 -8.86177,-0.0564 z m 13.93701,-2.92957 c 0.75871,-1.55879 1.20721,-2.54875 1.30495,-2.88042 0.0501,-0.16999 -0.0217,-0.19654 -0.73422,-0.27162 -0.74129,-0.0781 -7.358,-0.0775 -10.1295,9.9e-4 -2.31707,0.0656 -3.18449,0.13308 -3.7094,0.2886 -0.86796,0.25716 -2.08245,2.09154 -2.67639,4.04243 l -0.15598,0.51235 h 7.63842 7.63842 l 0.8237,-1.6923 z m 4.13163,2.93599 c -1.09031,-0.0647 -1.14408,-0.10543 -0.9593,-0.72767 0.0893,-0.30075 0.10423,-0.31565 0.35709,-0.35692 0.14514,-0.0237 2.65329,-0.0684 5.57367,-0.0994 6.31606,-0.0671 7.11093,-0.11925 7.63855,-0.50146 0.48163,-0.34889 1.30033,-1.59584 2.36024,-3.59487 1.91587,-3.61341 1.9825,-3.72458 2.61424,-4.3623 0.70712,-0.71381 1.58992,-1.04607 3.25421,-1.22476 0.34156,-0.0367 1.58517,-0.0935 2.76357,-0.1262 2.42171,-0.0673 9.88555,-0.0824 10.66613,-0.0217 0.60503,0.0471 0.61017,0.0578 0.31052,0.64839 -0.15051,0.29662 -0.25711,0.42477 -0.4192,0.50393 -0.35776,0.1747 -1.42958,0.23515 -4.22298,0.23816 -3.59281,0.004 -8.24003,0.0995 -8.87037,0.18263 -0.8665,0.11421 -0.94408,0.16489 -1.46329,0.95594 -0.43911,0.669 -1.00592,1.65821 -2.2106,3.85795 -0.97687,1.78378 -1.83329,3.10791 -2.38326,3.68482 -0.46177,0.48439 -0.89991,0.63681 -2.16467,0.75299 -1.31662,0.12096 -11.47627,0.27161 -12.84455,0.19048 z M 62.565944,161.36497 c -2.160932,-4.80521 -3.643372,-8.19481 -3.819278,-8.73281 -0.06507,-0.19901 -0.06398,-0.24932 0.0063,-0.29298 0.201474,-0.12512 0.753256,-0.18094 1.788651,-0.18094 h 1.107682 l 0.447953,1.10233 c 2.228394,5.48364 3.219534,7.73045 3.448991,7.8185 0.04968,0.0191 0.223408,-0.043 0.386074,-0.13798 0.492493,-0.28749 3.876791,-2.57333 6.381815,-4.31044 4.115079,-2.85361 5.653021,-3.84832 6.558174,-4.24169 0.439532,-0.19102 0.494393,-0.19967 1.266764,-0.19967 0.809484,0 1.1489,0.0453 1.1489,0.15346 0,0.23785 -11.114723,8.17982 -13.755745,9.8291 -1.569174,0.97992 -1.925488,1.10277 -3.1984,1.10277 h -0.909109 z m -5.091949,-13.32713 c -0.197325,-0.14429 -0.09802,-0.69224 0.323046,-1.78256 0.203778,-0.52766 1.359714,-3.28523 2.568741,-6.12793 l 2.198243,-5.16855 1.399856,-0.001 1.399857,-0.001 1.171629,3.27591 c 2.016301,5.63763 2.370777,6.6155 2.578591,7.11339 l 0.201989,0.48392 0.163889,-0.1044 c 0.466335,-0.29707 4.077768,-3.15939 6.777831,-5.37192 4.765562,-3.90507 5.950854,-4.7931 6.792339,-5.08885 0.284579,-0.10003 0.510055,-0.12158 1.263932,-0.12079 0.504665,6.2e-4 0.953885,0.024 0.99827,0.0521 0.062,0.0393 -0.01908,0.28015 -0.349936,1.03927 -0.965039,2.21421 -3.654482,8.04048 -4.762084,10.31635 -0.622691,1.27947 -0.721236,1.44675 -0.878076,1.49046 -0.211062,0.0588 -1.486769,0.0405 -1.891505,-0.0271 l -0.286474,-0.0479 0.830736,-1.95623 c 1.381828,-3.25396 2.734325,-6.68556 2.663069,-6.75681 -0.09133,-0.0913 -1.929134,1.36781 -6.149464,4.8824 -4.061411,3.38224 -4.681804,3.83142 -5.393308,3.90485 -0.401718,0.0415 -1.977325,-0.0351 -2.084434,-0.10133 -0.04137,-0.0256 -0.474905,-1.1338 -0.963405,-2.46274 -1.532502,-4.16912 -2.279249,-6.04928 -2.402598,-6.04928 -0.09314,0 -1.389945,2.7255 -1.905894,4.00563 -0.06883,0.17078 -0.540113,1.29525 -1.047293,2.49883 l -0.922138,2.18831 -1.090455,8.1e-4 c -0.817743,6.2e-4 -1.119091,-0.0201 -1.204954,-0.0829 z m 69.621765,0.019 c -0.16691,-0.0284 -0.32634,-0.0745 -0.35427,-0.10239 -0.0622,-0.0622 0.54075,-1.5259 2.41282,-5.85683 0.7899,-1.82737 1.7698,-4.10202 2.17756,-5.05478 0.40776,-0.95276 0.78227,-1.75517 0.83225,-1.78313 0.12577,-0.0704 2.02154,-0.14566 2.30923,-0.0917 0.21513,0.0404 0.2311,0.0574 0.19374,0.20621 -0.0472,0.1881 -0.82048,2.08201 -1.88299,4.6119 -0.40884,0.97346 -0.76053,1.82644 -0.78153,1.89551 -0.021,0.0691 -0.62129,1.49433 -1.33398,3.16724 l -1.29579,3.04165 -0.98679,0.009 c -0.54273,0.005 -1.12334,-0.0143 -1.29025,-0.0427 z m 7.8179,-0.004 c -1.68035,-0.10547 -2.54823,-0.33626 -2.85395,-0.75894 -0.0989,-0.13678 -0.12616,-0.2671 -0.12326,-0.58998 0.003,-0.34464 0.0593,-0.56079 0.33366,-1.28385 1.19522,-3.14978 3.79951,-8.9692 4.34149,-9.70132 0.29483,-0.39827 0.48595,-0.47087 1.32217,-0.50225 0.68289,-0.0256 0.72988,-0.0196 0.86076,0.11134 0.11613,0.11613 0.13182,0.17986 0.0974,0.39553 -0.0711,0.44537 -0.37148,1.25658 -1.15301,3.11381 -1.71626,4.07847 -2.7321,6.73733 -2.7321,7.15099 0,0.24511 0.15405,0.37837 0.5326,0.46074 0.19076,0.0415 2.1747,0.086 5.274,0.11839 4.83528,0.0505 6.40206,0.0954 6.55175,0.18793 0.0533,0.0329 0.0348,0.13523 -0.0689,0.37966 -0.30715,0.72427 -0.49539,0.83331 -1.59589,0.92451 -0.86329,0.0715 -9.62727,0.0662 -10.7867,-0.007 z m -22.44176,-0.12769 c -0.0302,-0.0799 -0.48043,-1.277 -1.00064,-2.66034 -0.52021,-1.38334 -1.55872,-4.13268 -2.30779,-6.10966 -0.74908,-1.97697 -1.36798,-3.65247 -1.37532,-3.72332 -0.0241,-0.23203 0.26929,-0.31085 1.26577,-0.34009 0.74628,-0.0219 0.94389,-0.009 1.11785,0.0739 0.43201,0.20545 0.70503,0.77004 1.76042,3.64049 1.90877,5.19144 2.50472,6.7692 2.55687,6.7692 0.10015,0 0.65037,-0.33174 1.25405,-0.7561 1.29768,-0.91219 3.11744,-2.34518 8.11627,-6.3912 2.94063,-2.38013 3.91384,-3.06001 4.65522,-3.25214 0.3699,-0.0959 1.59705,-0.13289 1.88109,-0.0568 0.40251,0.10788 0.51704,0.008 -7.65416,6.6769 -5.65051,4.61166 -6.8587,5.54301 -7.78472,6.00098 l -0.46788,0.23139 -0.98111,0.021 c -0.97996,0.0209 -0.98118,0.0208 -1.03592,-0.1242 z m -24.240804,-0.11508 c -3.075604,-0.0907 -4.914272,-0.28281 -5.363237,-0.56029 -0.607781,-0.37563 -0.648744,-0.87512 -0.18316,-2.23338 0.386204,-1.12665 2.051743,-5.09271 2.677086,-6.37478 1.106086,-2.26771 2.131972,-3.02455 4.53457,-3.34535 1.283632,-0.1714 3.918065,-0.23167 8.563023,-0.19592 5.514312,0.0424 5.803072,0.071 6.560582,0.64836 0.5281,0.40251 0.64543,0.57584 0.63444,0.93723 -0.0154,0.50746 -0.49671,1.75211 -2.39002,6.18099 -1.62459,3.8003 -2.04776,4.34916 -3.548193,4.60211 -1.723871,0.29062 -7.440187,0.46035 -11.485091,0.34103 z m 9.917769,-1.42277 c 0.204938,-0.0391 0.498374,-0.13302 0.652078,-0.20867 0.250547,-0.12329 0.312935,-0.20177 0.603017,-0.75855 0.99366,-1.90722 3.22141,-7.33137 3.29201,-8.01544 0.0296,-0.28636 0.015,-0.33807 -0.14564,-0.51711 l -0.17848,-0.19894 -0.90049,-0.0577 c -1.20152,-0.077 -7.085831,-0.0752 -9.377507,0.003 -2.207602,0.0753 -3.023805,0.14842 -3.174143,0.28448 -0.442426,0.40039 -3.62512,8.01505 -3.759343,8.99431 -0.03543,0.25848 -0.03021,0.26878 0.171608,0.33914 0.212652,0.0741 1.069949,0.17685 1.793663,0.21492 1.073196,0.0564 10.673918,-0.0127 11.023227,-0.0793 z"
         style="fill:#0d0202;stroke-width:0.0621027" />
    </g>
  </g>
</svg>
