<?xml version="1.0" encoding="UTF-8"?>
<svg width="167px" height="48px" viewBox="0 0 167 48" version="1.1" xmlns="http://www.w3.org/2000/svg" xmlns:xlink="http://www.w3.org/1999/xlink">
    <!-- Generator: Sketch 52 (66869) - http://www.bohemiancoding.com/sketch -->
    <title>ark_box 2</title>
    <desc>Created with Sketch.</desc>
    <defs>
        <polygon id="path-1" points="0 47.3015879 165.970342 47.3015879 165.970342 0 0 0"/>
    </defs>
    <g id="404-error" stroke="none" stroke-width="1" fill="none" fill-rule="evenodd">
        <g id="Error-404" transform="translate(-637.000000, -30.000000)">
            <g id="ark_box-2" transform="translate(620.000000, 30.000000)">
                <g id="ark_box">
                    <g id="Group" transform="translate(17.741935, 0.000000)">
                        <g id="Group-31">
                            <path d="M1.85717381,25.2675048 C1.85717381,29.9360959 5.26777805,33.0608761 9.51212687,33.0608761 C19.9327977,33.0608761 19.9327977,17.5114971 9.51212687,17.5114971 C5.26777805,17.5114971 1.85717381,20.5989137 1.85717381,25.2675048 M19.0236338,16.1493713 L19.0236338,34.432856 C19.0236338,34.6732553 18.8273371,34.8680793 18.5853755,34.8680793 L17.6045117,34.8680793 C17.3625502,34.8680793 17.16646,34.6732553 17.16646,34.432856 L17.16646,30.6139768 C15.3479257,33.5131388 12.5435684,34.8680793 9.51212687,34.8680793 C4.2823684,34.8680793 0,30.9523013 0,25.2675048 C0,19.5820925 4.2823684,15.7418627 9.51212687,15.7418627 C12.5435684,15.7418627 15.6130296,17.1353984 17.16646,20.0337393 L17.16646,16.1493713 C17.16646,15.908972 17.3625502,15.7139427 17.6045117,15.7139427 L18.5853755,15.7139427 C18.8273371,15.7139427 19.0236338,15.908972 19.0236338,16.1493713" id="Fill-1" fill="#008D00"/>
                            <path d="M23.2667016,16.1401331 L23.3332358,19.255675 C24.4996517,16.7512933 27.1331275,15.7792262 29.5035656,15.7792262 C30.751393,15.745558 31.9684328,16.0424131 33.1017882,16.6424875 C33.3189544,16.7574522 33.4022256,17.0257714 33.283621,17.2400984 L32.8769768,17.9748457 C32.7637446,18.1795238 32.5071124,18.2604096 32.298418,18.1530409 C31.4175622,17.7001623 30.4606672,17.4987688 29.5035656,17.4987688 C26.0421309,17.5361323 23.3708422,20.3026744 23.3708422,23.667238 L23.3708422,34.432856 C23.3708422,34.6732553 23.174752,34.8680793 22.9327905,34.8680793 L21.9651509,34.8680793 C21.7231893,34.8680793 21.5270992,34.6732553 21.5270992,34.432856 L21.5270992,16.1493713 C21.5270992,15.908972 21.7231893,15.7139427 21.9651509,15.7139427 L22.8286499,15.7139427 C23.0670988,15.7139427 23.2617425,15.9034291 23.2667016,16.1401331" id="Fill-3" fill="#008D00"/>
                            <path d="M37.8018968,10.9588612 L37.8018968,24.0408115 L46.7212075,15.8300775 C46.8022057,15.7553505 46.9086192,15.7140864 47.0189586,15.7140864 L48.1797956,15.7140864 C48.5775548,15.7140864 48.7695123,16.198375 48.4783733,16.467926 L39.6080334,24.6761965 L48.5953248,34.1338863 C48.8591889,34.4114438 48.6610325,34.8680177 48.2767042,34.8680177 L47.1472747,34.8680177 C47.0278436,34.8680177 46.9137849,34.8197736 46.8311336,34.7343713 L37.8018968,25.3867191 L37.8018968,34.4081591 C37.8018968,34.6485584 37.6058067,34.8433824 37.3636385,34.8433824 L36.4338118,34.8433824 C36.1918502,34.8433824 35.9957601,34.6485584 35.9957601,34.4081591 L35.9957601,10.9588612 C35.9957601,10.7184619 36.1918502,10.5234326 36.4338118,10.5234326 L37.3636385,10.5234326 C37.6058067,10.5234326 37.8018968,10.7184619 37.8018968,10.9588612" id="Fill-5" fill="#008D00"/>
                            <path d="M56.3679732,25.2694962 C56.3679732,28.5720609 58.8334603,30.6502522 61.7095175,30.6502522 C64.6223546,30.6502522 66.9384495,28.4609969 66.9384495,25.2694962 C66.9384495,21.9667261 64.6223546,19.9258983 61.7095175,19.9258983 C58.8334603,19.9258983 56.3679732,22.0779955 56.3679732,25.2694962 M56.0691889,11.1040041 L56.0691889,18.6267978 C57.1523337,16.7341924 60.1777831,15.6947888 62.1200877,15.6947888 C67.4984118,15.6947888 71.4950134,18.9610165 71.4950134,25.2694962 C71.4950134,31.2811207 67.4240256,34.8433824 62.0080952,34.8433824 C59.7672129,34.8433824 57.4885177,34.1014498 56.0691889,31.9119892 L55.8233014,34.3457497 C55.7933404,34.6423996 55.5420805,34.8680177 55.2420565,34.8680177 L52.0969694,34.8680177 C51.7742162,34.8680177 51.512625,34.6083208 51.512625,34.2876515 L51.512625,11.1040041 C51.512625,10.7833348 51.7742162,10.5234326 52.0969694,10.5234326 L55.4850512,10.5234326 C55.8078043,10.5234326 56.0691889,10.7833348 56.0691889,11.1040041" id="Fill-7" fill="#163A92"/>
                            <path d="M77.970905,25.3066955 C77.970905,28.0896611 79.6520316,30.6874515 82.9760586,30.6874515 C86.3002923,30.6874515 87.9814189,28.0896611 87.9814189,25.3066955 C87.9814189,22.5604775 86.0389077,19.8885759 82.9760586,19.8885759 C79.6894313,19.8885759 77.970905,22.5604775 77.970905,25.3066955 M92.5753826,25.3066955 C92.5753826,30.5759768 88.9525712,34.8434235 82.9760586,34.8434235 C77.0001659,34.8434235 73.414341,30.5759768 73.414341,25.3066955 C73.414341,20.0741617 77.0747587,15.7693516 82.9386589,15.7693516 C88.8025592,15.7693516 92.5753826,20.0741617 92.5753826,25.3066955" id="Fill-9" fill="#163A92"/>
                            <path d="M106.066982,15.769331 L110.288395,15.769331 C110.754754,15.769331 111.033083,16.2860561 110.774384,16.6718035 L105.11174,25.1108244 L110.804552,33.9501687 C111.053332,34.336532 110.773971,34.8434029 110.31257,34.8434029 L106.068635,34.8434029 C105.859734,34.8434029 105.666743,34.7327495 105.562602,34.5531172 L101.977604,28.3784892 L98.3932254,34.5531172 C98.2888782,34.7327495 98.0958875,34.8434029 97.8871931,34.8434029 L93.6428442,34.8434029 C93.181237,34.8434029 92.9018757,34.336532 93.150656,33.9501687 L98.8434681,25.1108244 L93.1810303,16.6718035 C92.9221253,16.2860561 93.2002468,15.769331 93.6668131,15.769331 L97.8884328,15.769331 C98.0965074,15.769331 98.2888782,15.8793686 98.393432,16.0581797 L101.977604,22.1888748 L105.561776,16.0581797 C105.66633,15.8793686 105.8587,15.769331 106.066982,15.769331" id="Fill-11" fill="#163A92"/>
                            <path d="M51.3783167,42.0025594 C51.3783167,43.2782564 52.2312777,43.9302702 53.2716504,43.9302702 C54.3589277,43.9302702 55.1649842,43.1386565 55.1649842,41.9929106 C55.1649842,40.8477806 54.3401246,40.0654051 53.2716504,40.0654051 C52.2312777,40.0654051 51.3783167,40.7077701 51.3783167,42.0025594 Z M55.6243185,37.7837675 L55.6243185,44.3026735 L55.174489,44.3026735 L55.174489,43.2879052 C54.7901607,43.9861101 54.0308022,44.3769899 53.243549,44.3769899 C51.9500568,44.3769899 50.9284872,43.5295363 50.9284872,42.0025594 C50.9284872,40.4844102 51.9595617,39.6279236 53.2530539,39.6279236 C54.0496054,39.6279236 54.799459,39.9629634 55.174489,40.7077701 L55.174489,37.7837675 L55.6243185,37.7837675 Z" id="Fill-13" fill="#003797"/>
                            <mask id="mask-2" fill="white">
                                <use xlink:href="#path-1"/>
                            </mask>
                            <g id="Clip-16"/>
                            <path d="M56.9582051,44.302653 L57.4584121,44.302653 L57.4584121,39.683743 L56.9582051,39.683743 L56.9582051,44.302653 Z M57.6215475,38.2029573 C57.6215475,38.6874512 56.8150959,38.6874512 56.8150959,38.2029573 C56.8150959,37.7186687 57.6215475,37.7186687 57.6215475,38.2029573 Z" id="Fill-15" fill="#003797" mask="url(#mask-2)"/>
                            <path d="M58.9620244,41.862631 C58.9620244,42.8125264 59.6180687,43.6322654 60.6772446,43.6322654 C61.6333131,43.6322654 62.4112681,42.8125264 62.4112681,41.862631 C62.4112681,40.698614 61.6333131,40.0747255 60.6772446,40.0747255 C59.7306811,40.0747255 58.9620244,40.6614557 58.9620244,41.862631 Z M62.4393695,39.5157099 L62.7391869,39.7770491 L62.2895641,40.2982906 C62.6174829,40.6522175 62.8613042,41.117619 62.8613042,41.862631 C62.8613042,42.6636882 62.3831666,43.474189 61.6145099,43.8184671 C62.4300712,44.1073157 62.8799007,44.675159 62.8799007,45.466978 C62.8799007,46.7055167 61.9052357,47.3014853 60.6772446,47.3014853 C59.4494602,47.3014853 58.4840934,46.630995 58.4840934,45.466978 L58.9432212,45.466978 C58.9432212,46.4074298 59.7492776,46.8541496 60.6772446,46.8541496 C61.6052116,46.8541496 62.4300712,46.4443828 62.4300712,45.466978 C62.4300712,44.4797191 61.5395039,44.088634 60.6772446,44.088634 C59.3368478,44.088634 58.50269,43.0919316 58.50269,41.862631 C58.50269,40.4286523 59.4775616,39.6185622 60.6772446,39.6185622 C61.1458773,39.6185622 61.6333131,39.7862874 61.98954,40.037362 L62.4393695,39.5157099 Z" id="Fill-17" fill="#003797" mask="url(#mask-2)"/>
                            <path d="M63.8201193,44.302653 L64.3203263,44.302653 L64.3203263,39.683743 L63.8201193,39.683743 L63.8201193,44.302653 Z M64.4834617,38.2029573 C64.4834617,38.6874512 63.6770101,38.6874512 63.6770101,38.2029573 C63.6770101,37.7186687 64.4834617,37.7186687 64.4834617,38.2029573 Z" id="Fill-18" fill="#003797" mask="url(#mask-2)"/>
                            <path d="M66.6392519,38.3146988 L66.6392519,39.7022811 L68.2139651,39.7022811 L68.2139651,40.0843332 L66.6392519,40.0843332 L66.6392519,42.8872124 C66.6392519,43.5113062 66.7704608,43.948993 67.4922129,43.948993 C67.7170244,43.948993 67.9701438,43.874266 68.2044602,43.7627913 L68.3637705,44.1351947 C68.0732513,44.2747946 67.7827321,44.3677928 67.4922129,44.3677928 C66.5078364,44.3677928 66.1892158,43.7907113 66.1892158,42.8872124 L66.1892158,40.0843332 L65.2050459,40.0843332 L65.2050459,39.7022811 L66.1892158,39.7022811 L66.1892158,38.3615059 L66.6392519,38.3146988 Z" id="Fill-19" fill="#003797" mask="url(#mask-2)"/>
                            <path d="M69.4797691,42.0025594 C69.4797691,43.1571329 70.3234318,43.9302702 71.3731028,43.9302702 C73.950789,43.9302702 73.950789,40.0842922 71.3731028,40.0842922 C70.3234318,40.0842922 69.4797691,40.8477806 69.4797691,42.0025594 Z M73.7257709,39.70224 L73.7257709,44.3026735 L73.2666432,44.3026735 L73.2666432,43.3248581 C72.8164005,44.0421554 72.1229564,44.3769899 71.3731028,44.3769899 C70.0796106,44.3769899 69.0204347,43.4090287 69.0204347,42.0025594 C69.0204347,40.5962954 70.0796106,39.6464 71.3731028,39.6464 C72.1229564,39.6464 72.8821082,39.9910887 73.2666432,40.7077701 L73.2666432,39.70224 L73.7257709,39.70224 Z" id="Fill-20" fill="#003797" mask="url(#mask-2)"/>
                            <polygon id="Fill-21" fill="#003797" mask="url(#mask-2)" points="74.9729578 44.302653 75.4663775 44.302653 75.4663775 37.7839522 74.9729578 37.7839522"/>
                            <path d="M82.4716173,40.5404555 C82.002778,40.1306886 81.5436503,40.0563722 81.0281131,40.0563722 C80.3063609,40.0467234 79.6129169,40.3170956 79.6315134,40.9040312 C79.6503166,41.5182708 80.456373,41.6395996 81.037618,41.7416307 C81.8622709,41.8816412 82.9964528,42.0210359 82.9495482,43.0920547 C82.9214468,44.1072336 81.8622709,44.3769899 81.0469162,44.3769899 C80.2313549,44.3769899 79.4252985,44.0700754 79.022167,43.4552198 L79.3597974,43.1571329 C79.7439191,43.706705 80.4375698,43.9395084 81.0562145,43.9395084 C81.6186563,43.9395084 82.4716173,43.7906702 82.4997187,43.06434 C82.5185219,42.4028827 81.7498652,42.2727263 80.9907134,42.1513976 C80.0908478,42.0027647 79.2004871,41.8348342 79.1909822,40.9128588 C79.1816839,40.0095651 80.0908478,39.6186853 81.0281131,39.6279236 C81.7029606,39.6279236 82.2935039,39.8141252 82.7528382,40.2425738 L82.4716173,40.5404555 Z" id="Fill-22" fill="#003797" mask="url(#mask-2)"/>
                            <path d="M83.9834956,44.302653 L84.4837026,44.302653 L84.4837026,39.683743 L83.9834956,39.683743 L83.9834956,44.302653 Z M84.6470631,38.2029573 C84.6470631,38.6874512 83.8406115,38.6874512 83.8406115,38.2029573 C83.8406115,37.7186687 84.6470631,37.7186687 84.6470631,38.2029573 Z" id="Fill-23" fill="#003797" mask="url(#mask-2)"/>
                            <path d="M85.9871267,41.862631 C85.9871267,42.8125264 86.6433777,43.6322654 87.7025536,43.6322654 C88.6584154,43.6322654 89.4363704,42.8125264 89.4363704,41.862631 C89.4363704,40.698614 88.6584154,40.0747255 87.7025536,40.0747255 C86.7557834,40.0747255 85.9871267,40.6614557 85.9871267,41.862631 Z M89.4644718,39.5157099 L89.7642892,39.7770491 L89.3146664,40.2982906 C89.6425853,40.6522175 89.8864065,41.117619 89.8864065,41.862631 C89.8864065,42.6636882 89.4084756,43.474189 88.6398188,43.8184671 C89.4551735,44.1073157 89.905003,44.675159 89.905003,45.466978 C89.905003,46.7055167 88.930338,47.3014853 87.7025536,47.3014853 C86.4745625,47.3014853 85.5091958,46.630995 85.5091958,45.466978 L85.9683235,45.466978 C85.9683235,46.4074298 86.7745865,46.8541496 87.7025536,46.8541496 C88.6305206,46.8541496 89.4551735,46.4443828 89.4551735,45.466978 C89.4551735,44.4797191 88.5648128,44.088634 87.7025536,44.088634 C86.3617435,44.088634 85.5277923,43.0919316 85.5277923,41.862631 C85.5277923,40.4286523 86.5026639,39.6185622 87.7025536,39.6185622 C88.1709796,39.6185622 88.6584154,39.7862874 89.0146423,40.037362 L89.4644718,39.5157099 Z" id="Fill-24" fill="#003797" mask="url(#mask-2)"/>
                            <path d="M91.2835847,39.70224 L91.2835847,40.5217737 C91.6398116,39.8884417 92.2865577,39.6279236 92.9330972,39.6186853 C94.1705932,39.6186853 95.0235542,40.3729355 95.0235542,41.6484272 L95.0235542,44.3026735 L94.5642198,44.3026735 L94.5642198,41.6580761 C94.5642198,40.6147719 93.9174737,40.0563722 92.9145007,40.0658157 C91.9586389,40.0746433 91.2930896,40.7919406 91.2930896,41.7416307 L91.2930896,44.3026735 L90.8337552,44.3026735 L90.8337552,39.70224 L91.2835847,39.70224 Z" id="Fill-25" fill="#003797" mask="url(#mask-2)"/>
                            <path d="M96.4301133,42.0025594 C96.4301133,43.1571329 97.2735695,43.9302702 98.3234471,43.9302702 C100.901133,43.9302702 100.901133,40.0842922 98.3234471,40.0842922 C97.2735695,40.0842922 96.4301133,40.8477806 96.4301133,42.0025594 Z M100.676115,39.70224 L100.676115,44.3026735 L100.216781,44.3026735 L100.216781,43.3248581 C99.7667447,44.0421554 99.0733006,44.3769899 98.3234471,44.3769899 C97.0299549,44.3769899 95.970779,43.4090287 95.970779,42.0025594 C95.970779,40.5962954 97.0299549,39.6464 98.3234471,39.6464 C99.0733006,39.6464 99.8324525,39.9910887 100.216781,40.7077701 L100.216781,39.70224 L100.676115,39.70224 Z" id="Fill-26" fill="#003797" mask="url(#mask-2)"/>
                            <path d="M102.166875,41.862631 C102.166875,42.8125264 102.823126,43.6322654 103.882302,43.6322654 C104.838164,43.6322654 105.616119,42.8125264 105.616119,41.862631 C105.616119,40.698614 104.838164,40.0747255 103.882302,40.0747255 C102.935532,40.0747255 102.166875,40.6614557 102.166875,41.862631 Z M105.64422,39.5157099 L105.944245,39.7770491 L105.494415,40.2982906 C105.822334,40.6522175 106.066155,41.117619 106.066155,41.862631 C106.066155,42.6636882 105.588224,43.474189 104.819567,43.8184671 C105.634922,44.1073157 106.084752,44.675159 106.084752,45.466978 C106.084752,46.7055167 105.110087,47.3014853 103.882302,47.3014853 C102.654311,47.3014853 101.688944,46.630995 101.688944,45.466978 L102.148072,45.466978 C102.148072,46.4074298 102.954335,46.8541496 103.882302,46.8541496 C104.810269,46.8541496 105.634922,46.4443828 105.634922,45.466978 C105.634922,44.4797191 104.744561,44.088634 103.882302,44.088634 C102.541699,44.088634 101.707541,43.0919316 101.707541,41.862631 C101.707541,40.4286523 102.682413,39.6185622 103.882302,39.6185622 C104.350728,39.6185622 104.838164,39.7862874 105.194391,40.037362 L105.64422,39.5157099 Z" id="Fill-27" fill="#003797" mask="url(#mask-2)"/>
                            <path d="M110.978037,41.816522 C110.968739,40.6804249 110.218885,40.0468876 109.103506,40.0468876 C108.147438,40.0468876 107.322578,40.6896631 107.219677,41.816522 L110.978037,41.816522 Z M106.750838,42.0025184 C106.750838,40.6241744 107.800716,39.6278825 109.103506,39.6278825 C110.40609,39.6278825 111.568373,40.4192909 111.390467,42.2168453 L107.219677,42.2168453 C107.31328,43.2971024 108.147438,43.9209909 109.103506,43.9209909 C109.712853,43.9209909 110.4251,43.678744 110.772029,43.222786 L111.099947,43.4830988 C110.649911,44.0702396 109.844062,44.367916 109.103506,44.367916 C107.800716,44.367916 106.750838,43.464417 106.750838,42.0025184 Z" id="Fill-28" fill="#003797" mask="url(#mask-2)"/>
                            <path d="M151.611731,0.672810064 L163.443052,7.4594195 C165.006814,8.35655433 165.970321,10.0143035 165.970321,11.8085731 L165.970321,25.381792 C165.970321,27.1760617 165.006814,28.8338108 163.443052,29.7309456 L140.354629,42.9750782 C138.790661,43.8720077 136.86406,43.8720077 135.300298,42.9750782 L123.468977,36.1882635 C121.905009,35.2911286 120.941502,33.6333795 120.941502,31.8391098 L120.941502,18.265891 C120.941502,16.4718266 121.905009,14.8138722 123.468977,13.9169426 L146.557193,0.672810064 C148.120955,-0.224324766 150.047969,-0.224324766 151.611731,0.672810064" id="Fill-29" fill="#003797" mask="url(#mask-2)"/>
                            <path d="M147.399678,3.41833006 L136.697993,9.55703159 C135.655347,10.155053 135.013147,11.260356 135.013147,12.4563989 L135.013147,24.7340073 C135.013147,25.9300502 135.655347,27.0353531 136.697993,27.6333746 L147.399678,33.7720761 C148.442324,34.3705082 149.726931,34.3705082 150.769577,33.7720761 L161.471262,27.6333746 C162.513701,27.0353531 163.156108,25.9300502 163.156108,24.7340073 L163.156108,12.4563989 C163.156108,11.260356 162.513701,10.155053 161.471262,9.55703159 L150.769577,3.41833006 C149.726931,2.82010331 148.442324,2.82010331 147.399678,3.41833006" id="Fill-30" fill="#FFFFFF" mask="url(#mask-2)"/>
                        </g>
                    </g>
                </g>
            </g>
        </g>
    </g>
</svg>