<?xml version="1.0" encoding="UTF-8" standalone="no"?>
<svg
   xmlns:dc="http://purl.org/dc/elements/1.1/"
   xmlns:cc="http://creativecommons.org/ns#"
   xmlns:rdf="http://www.w3.org/1999/02/22-rdf-syntax-ns#"
   xmlns:svg="http://www.w3.org/2000/svg"
   xmlns="http://www.w3.org/2000/svg"
   xmlns:sodipodi="http://sodipodi.sourceforge.net/DTD/sodipodi-0.dtd"
   xmlns:inkscape="http://www.inkscape.org/namespaces/inkscape"
   inkscape:version="1.1-dev (bc69992, 2020-04-15)"
   sodipodi:docname="logo-white.svg"
   id="svg8"
   version="1.1"
   viewBox="0 0 548.91412 703.83215"
   height="703.83215mm"
   width="548.91412mm">
  <defs
     id="defs2" />
  <sodipodi:namedview
     inkscape:window-maximized="0"
     inkscape:window-y="0"
     inkscape:window-x="0"
     inkscape:window-height="900"
     inkscape:window-width="1440"
     showgrid="false"
     inkscape:current-layer="g847"
     inkscape:document-units="mm"
     inkscape:cy="1016.9661"
     inkscape:cx="-473.14608"
     inkscape:zoom="0.098603159"
     inkscape:pageshadow="2"
     inkscape:pageopacity="0.0"
     borderopacity="1.0"
     bordercolor="#666666"
     pagecolor="#ffffff"
     id="base" />
  <metadata
     id="metadata5">
    <rdf:RDF>
      <cc:Work
         rdf:about="">
        <dc:format>image/svg+xml</dc:format>
        <dc:type
           rdf:resource="http://purl.org/dc/dcmitype/StillImage" />
      </cc:Work>
    </rdf:RDF>
  </metadata>
  <g
     transform="translate(131.11292,243.44307)"
     id="layer1"
     inkscape:groupmode="layer"
     inkscape:label="Layer 1">
    <g
       transform="translate(1.391855,2.1536088)"
       id="g847">
      <path
         id="path849"
         d="m 131.74831,458.1642 c -8.64317,-0.47343 -15.44321,-0.99374 -20.54709,-1.57219 -49.078767,-5.5625 -95.301167,-23.78665 -134.429857,-53.00176 -18.48965,-13.80511 -35.77418,-30.53666 -50.34594,-48.73513 -16.42736,-20.51593 -30.467253,-44.79618 -40.338563,-69.7605 -10.01771,-25.33456 -16.11113,-52.20787 -18.2237,-80.37044 -0.51011,-6.80018 -0.4804,-373.36266 0.0307,-378.84122 1.41092,-15.12387 6.53433,-28.44969 15.61332,-40.60972 3.21301,-4.30338 10.75348,-11.84386 15.05686,-15.05687 10.850423,-8.10119 22.690123,-13.04741 36.334263,-15.17919 3.86921,-0.60453 13.45167,-0.63386 207.080557,-0.63386 193.44264,0 203.21504,0.0298 207.08054,0.63233 17.5454,2.73469 32.0222,10.01904 44.2876,22.28434 12.154,12.15406 19.2651,26.1784 22.2772,43.93472 0.5962,3.51424 0.6338,13.15562 0.735,188.0305744 0.1154,199.3887756 0.193,189.9483656 -1.6997,206.9041756 -5.6149,50.30244 -25.889,99.21216 -57.48,138.66566 -9.0623,11.31789 -22.3536,25.33993 -32.2853,34.06049 -46.3228,40.67373 -102.43413,64.21247 -163.86533,68.74161 -5.24676,0.38682 -25.17486,0.73187 -29.28056,0.50698 z M 274.6233,292.04237 c 20.1956,-3.12703 34.7845,-12.1338 47.5846,-29.37726 2.1227,-2.85961 2.7386,-3.48872 2.936,-2.99861 0.1374,0.3411 1.2894,6.25581 2.56,13.1438 1.2706,6.88798 2.3915,12.8808 2.491,13.31736 l 0.1808,0.79375 h 13.2224 13.2224 V 229.06585 171.21029 H 313.958 271.0955 v 18.34445 18.34444 h 24.3538 24.3539 l -0.223,1.85208 c -0.7951,6.60256 -2.912,13.61098 -5.4521,18.05052 -7.8291,13.68361 -22.792,23.89734 -39.0913,26.68383 -5.4732,0.9357 -13.698,0.93574 -19.171,1e-4 -15.61292,-2.66919 -28.68556,-11.42838 -37.93772,-25.41986 -6.29077,-9.51311 -10.27571,-20.62568 -12.33424,-34.39584 -0.91553,-6.12429 -0.91401,-23.4865 0.004,-29.98611 2.01305,-14.27392 5.80877,-25.27614 11.81121,-34.2361 8.17679,-12.20558 19.212,-19.56414 34.10865,-22.74461 5.0223,-1.07225 16.6848,-1.36008 22.4477,-0.554 11.8987,1.6643 21.6003,6.07702 29.4644,13.40171 4.8144,4.48416 7.3826,8.49302 10.5322,16.43994 l 1.4681,3.70417 20.6959,0.091 c 11.6963,0.0514 20.6959,-0.0435 20.6959,-0.21837 0,-0.72397 -1.1236,-6.82036 -1.7884,-9.70347 -2.9972,-12.99807 -9.6346,-25.4231 -18.6308,-34.876635 -6.5092,-6.839991 -13.714,-12.060468 -22.7961,-16.517688 -11.7299,-5.756678 -24.1234,-8.971129 -39.5111,-10.24785 -6.0927,-0.505513 -19.2249,-0.207659 -24.8708,0.564096 -18.19465,2.487073 -34.0784,8.793357 -47.37389,18.808708 -22.48927,16.940929 -36.35757,42.874029 -40.31298,75.383519 -0.77213,6.34605 -1.05907,20.94904 -0.54081,27.52077 2.00258,25.39262 9.86063,46.67966 24.02544,65.08341 3.37869,4.38979 12.3014,13.24476 16.75359,16.62641 14.6382,11.11843 30.75207,17.45517 49.21255,19.35272 4.6134,0.47421 19.3043,0.15145 23.6361,-0.51928 z m -306.829217,-88.20557 0.0889,-82.37908 18.32161,79.46867 c 10.07689,43.70775 18.62394,80.77952 18.99345,82.38169 l 0.67183,2.91306 22.06917,-0.0908 22.06918,-0.0908 18.73322,-82.53388 18.73322,-82.53385 0.0889,82.62204 0.0889,82.62208 h 22.047857 22.04787 V 179.32418 72.432511 H 98.610853 c -31.25149,0 -33.1482,0.03514 -33.32818,0.617361 -0.10496,0.339548 -8.53983,38.476448 -18.74417,84.748648 -10.20433,46.27218 -18.58259,84.15928 -18.61835,84.19353 -0.0358,0.0342 -8.73416,-38.06296 -19.32978,-84.66043 l -19.26464,-84.72272 -32.85816,-0.09001 -32.85816,-0.09002 v 106.89347 106.89351 h 22.04787 22.04787 z M 151.22129,34.705892 c 10.44342,-2.238195 20.27389,-7.765945 29.12216,-16.375646 l 2.20486,-2.145411 v 1.953489 c 0,3.999217 1.15852,7.746881 3.28323,10.620697 l 0.73001,0.987376 h 19.51284 19.51281 v -2.15398 -2.153984 l -2.39931,-2.569168 c -1.31964,-1.413044 -2.90315,-3.514464 -3.51896,-4.669822 -2.26652,-4.252433 -2.18465,-2.471642 -2.1904,-47.645425 -0.004,-26.555571 -0.13751,-42.232519 -0.38029,-44.450003 -1.99161,-18.190349 -12.735,-29.515855 -32.53151,-34.294105 -6.35057,-1.53282 -11.48207,-2.12713 -20.36286,-2.35833 -32.20707,-0.83848 -51.60749,9.33801 -59.23985,31.074263 -1.21791,3.468462 -2.67742,10.277377 -3.05134,14.235131 l -0.24165,2.557639 h 17.31571 17.31571 l 0.21927,-1.322917 c 1.64462,-9.922164 5.20018,-14.417541 13.04187,-16.489113 3.65739,-0.966191 11.24161,-1.431184 16.13715,-0.989379 11.50436,1.038221 16.91344,5.726995 16.42096,14.234242 -0.19756,3.413076 -1.36222,5.950659 -3.7609,8.19434 -3.50975,3.282961 -5.89689,4.048545 -20.15416,6.463708 -26.14404,4.428769 -30.58781,5.521198 -38.27639,9.409618 -7.95602,4.023674 -13.74306,9.742682 -17.09369,16.892758 -2.904957,6.199011 -4.042447,11.930811 -4.049217,20.403969 -0.005,6.46706269 0.40578,9.4426376 1.997547,14.4638898 1.95455,6.1656742 4.52034,10.5323862 8.84314,15.0501782 5.8513,6.115227 13.7553,10.09473 23.00222,11.581156 4.52958,0.728119 14.04264,0.469621 18.59104,-0.505171 z M 148.85803,6.3125423 C 144.09581,5.3683819 141.09516,3.8226295 138.44648,0.94915199 133.06823,-4.885567 133.30844,-16.216578 138.9266,-21.698082 c 3.92525,-3.829766 8.7872,-5.533076 24.24232,-8.492917 10.89463,-2.086448 14.28807,-2.917473 17.4528,-4.274023 l 1.57381,-0.674624 v 6.611302 c 0,7.198435 -0.34667,10.897532 -1.41146,15.060826 -2.58935,10.1243344 -9.05644,16.8444057 -18.52048,19.2450657 -3.69179,0.9364557 -10.09227,1.1918916 -13.40556,0.5349946 z M -40.054477,-12.586939 v -42.333336 h 36.86528 36.86528 v 42.333336 42.333336 h 19.18865 c 17.1721,0 19.21115,-0.05864 19.40278,-0.558021 0.11777,-0.306909 0.21413,-42.296287 0.21413,-93.309728 v -92.751708 h -19.40278 -19.40278 v 34.925 34.925005 h -36.86528 -36.86528 v -34.925005 -34.925 h -19.22639 -19.22639 v 93.309729 93.309728 h 19.22639 19.22639 z M 286.6178,-63.563331 v -93.309729 h -17.9917 -17.9917 v 93.309729 93.309728 h 17.9917 17.9917 z m 71.2611,0 v -93.309729 h -17.9917 -17.9917 v 93.309729 93.309728 h 17.9917 17.9917 z"
         style="fill:#ffffff;stroke-width:0.352778" />
    </g>
  </g>
</svg>
