<svg version="1.1" width="625.800000" height="172.100000" viewBox="0.000000 0.000000 625.800000 172.100000" xmlns="http://www.w3.org/2000/svg" xmlns:xlink="http://www.w3.org/1999/xlink" overflow="hidden"><style>
.MsftOfcThm_Background2_Fill {
 fill:#535353; 
}
</style>
<defs></defs><g id="dev_1_"><g id="sl--site--repricer--1920px_1_" transform="matrix(1.000000,0.000000,0.000000,1.000000,-257.000000,-1958.000000)"><g id="box--content-02_1_" transform="matrix(1.000000,0.000000,0.000000,1.000000,0.000000,1729.000000)"><g id="aws-logo_1_" transform="matrix(1.000000,0.000000,0.000000,1.000000,257.000000,229.000000)"><path d=" M 216.100006 84.199997 C 218.600006 85.800003 222.300003 87.000000 227.000000 88.000000 C 231.699997 89.300003 236.699997 89.599998 241.699997 89.599998 C 246.699997 89.599998 251.100006 89.000000 255.100006 87.699997 C 259.200012 86.400002 262.600006 84.599998 265.700012 82.400002 C 268.500000 80.199997 271.000000 77.400002 272.600006 73.900002 C 274.200012 70.500000 275.100006 67.000000 275.100006 62.599998 C 275.100006 57.599998 273.500000 53.200001 270.700012 49.099998 C 267.899994 45.299999 262.899994 42.200001 256.000000 40.000000 L 242.600006 35.599998 C 237.600006 34.000000 233.899994 32.200001 232.000000 30.299999 C 230.100006 28.400000 229.199997 26.200001 229.199997 23.400000 C 229.199997 19.600000 230.800003 16.500000 233.600006 14.900000 C 236.699997 13.000000 240.800003 12.100000 246.399994 12.100000 C 253.300003 12.100000 259.200012 13.400000 264.799988 15.900000 C 266.399994 16.500000 267.600006 17.200001 268.500000 17.200001 C 270.100006 17.200001 270.700012 16.299999 270.700012 14.100000 L 270.700012 10.300000 C 270.700012 9.000000 270.399994 7.800000 269.799988 7.200000 C 269.200012 6.300000 268.200012 5.300000 267.000000 4.700000 C 266.100006 4.100000 264.500000 3.400000 262.899994 3.100000 C 261.299988 2.500000 259.500000 2.200000 257.600006 1.500000 C 255.699997 1.200000 253.500000 0.600000 251.399994 0.600000 C 249.199997 0.000000 247.000000 0.000000 244.800003 0.000000 C 240.399994 0.000000 236.699997 0.600000 232.899994 1.600000 C 229.199997 2.900000 225.699997 4.400000 222.899994 6.600000 C 220.100006 8.800000 217.899994 11.300000 216.000000 14.400000 C 214.100006 17.500000 213.500000 21.000000 213.500000 25.000000 C 213.500000 30.000000 215.100006 34.700001 218.199997 38.799999 C 221.300003 43.200001 226.300003 46.299999 233.500000 48.500000 L 247.199997 52.900002 C 251.899994 54.500000 255.000000 56.000000 256.899994 57.900002 C 258.799988 59.799999 259.399994 62.000000 259.399994 64.500000 C 259.399994 68.300003 257.799988 71.400002 254.399994 73.599998 C 251.000000 75.800003 246.600006 76.699997 240.399994 76.699997 C 236.699997 76.699997 232.899994 76.400002 229.199997 75.400002 C 225.500000 74.800003 222.000000 73.500000 218.600006 72.000000 C 217.699997 71.699997 216.699997 71.400002 216.100006 71.099998 C 215.500000 70.800003 214.899994 70.800003 214.199997 70.800003 C 212.600006 70.800003 212.000000 71.699997 212.000000 73.900002 L 212.000000 78.599998 C 212.000000 79.500000 212.300003 80.500000 212.600006 81.400002 C 213.600006 82.699997 214.500000 83.300003 216.100006 84.199997" id="Fill-15_1_" fill="#535353" fill-rule="evenodd" fill-opacity="1.000000" clip-rule="evenodd"/><path d=" M 53.799999 37.799999 C 50.299999 37.200001 46.900002 37.200001 43.799999 37.200001 C 34.099998 37.200001 26.200001 39.700001 20.200001 44.700001 C 14.200000 49.700001 11.400000 56.200001 11.400000 64.400002 C 11.400000 72.199997 13.600000 78.099998 18.299999 82.800003 C 23.000000 87.500000 29.299999 89.699997 37.500000 89.699997 C 48.799999 89.699997 58.200001 85.300003 65.800003 76.599998 C 66.699997 78.800003 67.699997 80.699997 68.599998 82.199997 C 69.500000 83.800003 70.800003 85.300003 72.099998 86.599998 C 73.000000 87.500000 74.000000 87.800003 74.900002 87.800003 C 75.500000 87.800003 76.500000 87.500000 77.400002 86.900002 L 83.400002 82.800003 C 84.699997 81.900002 85.300003 80.900002 85.300003 80.000000 C 85.300003 79.400002 85.000000 78.800003 84.699997 77.800003 C 83.400002 75.300003 82.199997 73.099998 81.599998 70.900002 C 81.000000 68.699997 80.699997 65.900002 80.699997 62.500000 L 80.699997 31.200001 C 80.699997 20.900000 78.199997 13.100000 72.800003 7.800000 C 67.300003 2.500000 59.099998 0.000000 47.500000 0.000000 C 42.200001 0.000000 37.099998 0.600000 32.400002 1.900000 C 28.000000 3.100000 24.000000 4.400000 20.500000 6.200000 C 19.200001 6.800000 18.299999 7.400000 18.000000 8.100000 C 17.400000 8.700000 17.400000 10.000000 17.400000 11.500000 L 17.400000 16.200001 C 17.400000 18.100000 18.000000 19.299999 19.299999 19.299999 C 19.600000 19.299999 20.200001 19.299999 20.900000 19.000000 C 21.500000 18.700001 22.799999 18.400000 24.400000 17.799999 C 27.900000 16.600000 31.299999 15.300000 34.799999 14.700000 C 38.299999 13.800000 41.700001 13.500000 45.200001 13.500000 C 52.700001 13.500000 57.799999 15.100000 60.900002 17.900000 C 64.000000 20.700001 65.300003 26.000000 65.300003 33.200001 L 65.300003 40.099998 C 61.000000 39.000000 57.599998 38.400002 53.799999 37.799999 Z M 64.800003 54.599998 C 64.800003 57.700001 64.500000 60.500000 63.900002 62.700001 C 63.299999 64.900002 62.299999 67.099998 60.799999 68.599998 C 58.299999 71.400002 55.099998 73.599998 51.700001 74.500000 C 48.200001 75.699997 44.799999 76.400002 41.700001 76.400002 C 37.299999 76.400002 33.799999 75.199997 31.700001 73.000000 C 29.600000 70.800003 28.000000 67.400002 28.000000 63.000000 C 28.000000 58.299999 29.600000 54.599998 32.700001 52.099998 C 35.799999 49.599998 40.599998 48.400002 46.799999 48.400002 C 49.599998 48.400002 52.799999 48.700001 55.900002 49.000000 C 59.000000 49.299999 61.900002 49.900002 64.699997 50.599998 L 64.699997 54.599998 Z" id="Fill-16_1_" fill="#535353" fill-rule="evenodd" fill-opacity="1.000000" clip-rule="evenodd"/><g id="Group-20_1_" transform="matrix(1.000000,0.000000,0.000000,1.000000,0.000000,2.487420)"><path d=" M 112.900002 80.500000 C 113.500000 82.400002 114.199997 83.599998 114.800003 84.199997 C 115.400002 84.800003 116.699997 85.099998 118.599998 85.099998 L 126.699997 85.099998 C 128.600006 85.099998 129.800003 84.800003 130.500000 84.199997 C 131.100006 83.599998 131.800003 82.300003 132.399994 80.500000 L 147.000000 19.000000 L 162.000000 80.599998 C 162.300003 82.500000 162.899994 83.699997 163.899994 84.300003 C 164.500000 84.900002 166.100006 85.199997 167.699997 85.199997 L 175.800003 85.199997 C 177.399994 85.199997 178.600006 84.900002 179.600006 84.300003 C 180.199997 83.699997 181.199997 82.400002 181.500000 80.599998 L 204.600006 6.900000 C 204.899994 6.000000 205.199997 5.000000 205.199997 4.700000 C 205.199997 4.100000 205.500000 3.800000 205.500000 3.100000 C 205.500000 1.500000 204.899994 0.900000 203.300003 0.900000 L 194.500000 0.900000 C 192.600006 0.900000 191.399994 1.200000 190.699997 1.800000 C 190.100006 2.400000 189.399994 3.700000 188.800003 5.500000 L 172.199997 69.599998 L 157.000000 5.200000 C 156.699997 3.300000 156.100006 2.100000 155.100006 1.500000 C 154.500000 0.900000 152.899994 0.600000 151.300003 0.600000 L 143.500000 0.600000 C 141.600006 0.600000 140.399994 0.900000 139.699997 1.500000 C 139.100006 2.100000 138.399994 3.400000 137.800003 5.200000 L 122.800003 68.300003 L 107.000000 5.200000 C 106.400002 3.300000 105.699997 2.100000 105.099998 1.500000 C 104.500000 0.900000 103.199997 0.600000 101.300003 0.600000 L 92.000000 0.600000 C 90.400002 0.600000 89.800003 1.200000 89.800003 2.800000 C 89.800003 3.400000 90.099998 4.700000 90.699997 6.500000 L 112.900002 80.500000" id="Fill-17_1_" fill="#535353" fill-rule="evenodd" fill-opacity="1.000000" clip-rule="evenodd"/><path d=" M 254.500000 126.800003 C 219.500000 141.800003 181.100006 149.000000 146.399994 149.000000 C 94.800003 149.000000 44.799999 134.899994 4.500000 111.199997 C 1.100000 109.000000 -1.800000 112.800003 1.400000 115.599998 C 38.900002 149.300003 88.300003 169.699997 143.300003 169.699997 C 182.399994 169.699997 228.000000 157.500000 259.600006 134.100006 C 264.200012 130.199997 259.799988 124.599998 254.500000 126.800003" id="Fill-19_1_" fill="#535353" fill-rule="evenodd" fill-opacity="1.000000" clip-rule="evenodd"/></g><path d=" M 235.399994 116.400002 C 232.600006 118.300003 233.199997 121.099998 236.000000 120.800003 C 246.000000 119.599998 268.799988 116.699997 272.600006 122.000000 C 276.700012 127.000000 268.200012 148.199997 264.500000 157.899994 C 263.200012 160.699997 265.799988 162.000000 268.600006 159.800003 C 285.500000 145.800003 289.899994 116.199997 286.399994 112.099998 C 283.000000 107.400002 253.300003 103.900002 235.399994 116.400002" id="Fill-21_1_" fill="#535353" fill-rule="evenodd" fill-opacity="1.000000" clip-rule="evenodd"/><path d=" M 361.700012 67.199997 C 361.100006 67.199997 360.500000 66.900002 360.500000 66.000000 L 360.500000 14.600000 C 360.500000 14.000000 360.799988 13.400000 361.700012 13.400000 L 363.299988 13.400000 C 364.200012 13.400000 364.500000 13.700000 364.500000 14.600000 L 364.799988 17.700001 C 367.000000 15.800000 369.500000 14.600000 371.700012 13.700000 C 373.899994 12.800000 376.100006 12.500000 378.600006 12.500000 C 383.600006 12.500000 387.299988 14.400000 390.100006 17.799999 C 392.899994 21.200001 394.500000 26.200001 394.500000 32.099998 C 394.500000 38.299999 392.899994 43.299999 390.100006 47.000000 C 387.000000 50.700001 383.200012 52.599998 377.899994 52.599998 C 373.200012 52.599998 369.200012 50.700001 365.100006 47.299999 L 365.100006 66.000000 C 365.100006 66.599998 364.799988 67.199997 363.899994 67.199997 L 361.700012 67.199997 Z M 377.299988 48.500000 C 381.399994 48.500000 384.500000 47.299999 386.700012 44.500000 C 388.899994 41.700001 389.799988 37.700001 389.799988 32.400002 C 389.799988 21.799999 385.700012 16.500000 377.600006 16.500000 C 373.500000 16.500000 369.200012 18.100000 365.100006 21.500000 L 365.100006 43.599998 C 367.299988 45.500000 369.200012 46.700001 371.000000 47.599998 C 372.899994 47.900002 375.100006 48.500000 377.299988 48.500000 Z" id="Fill-22_1_" fill="#535353" fill-rule="evenodd" fill-opacity="1.000000" clip-rule="evenodd"/><path d=" M 412.700012 53.099998 C 409.200012 53.099998 406.399994 52.200001 404.200012 50.000000 C 402.000000 48.099998 401.100006 45.299999 401.100006 41.799999 C 401.100006 38.000000 402.399994 35.200001 404.899994 33.000000 C 407.399994 30.799999 410.899994 29.900000 415.299988 29.900000 C 418.799988 29.900000 422.200012 30.500000 426.299988 31.799999 L 426.299988 25.500000 C 426.299988 22.400000 425.700012 20.100000 424.100006 18.900000 C 422.500000 17.600000 420.299988 17.000000 416.899994 17.000000 C 413.399994 17.000000 409.700012 17.600000 405.899994 18.900000 C 405.600006 18.900000 405.000000 19.200001 404.600006 19.200001 C 404.000000 19.200001 404.000000 18.900000 404.000000 18.299999 L 404.000000 16.700001 C 404.000000 16.400000 404.000000 16.100000 404.299988 15.800000 C 404.600006 15.500000 404.600006 15.500000 404.899994 15.200000 C 409.000000 13.600000 413.100006 12.700000 417.799988 12.700000 C 422.200012 12.700000 425.700012 13.600000 427.899994 15.500000 C 430.100006 17.400000 431.000000 20.200001 431.000000 24.000000 L 431.000000 51.099998 C 431.000000 51.700001 430.700012 52.400002 429.700012 52.400002 L 428.100006 52.400002 C 427.500000 52.400002 426.799988 52.099998 426.799988 51.099998 L 426.500000 48.000000 C 422.100006 51.500000 417.399994 53.099998 412.700012 53.099998 Z M 413.299988 49.299999 C 415.200012 49.299999 417.399994 49.000000 419.600006 48.000000 C 421.799988 47.000000 424.000000 46.099998 426.500000 44.500000 L 426.500000 35.099998 C 423.000000 34.200001 419.899994 33.799999 416.399994 33.799999 C 409.200012 33.799999 405.700012 36.599998 405.700012 42.000000 C 405.700012 44.200001 406.299988 46.099998 407.600006 47.400002 C 408.899994 48.700001 410.799988 49.299999 413.299988 49.299999 Z" id="Fill-23_1_" fill="#535353" fill-rule="evenodd" fill-opacity="1.000000" clip-rule="evenodd"/><path d=" M 443.799988 52.200001 C 443.200012 52.200001 442.600006 51.900002 442.600006 51.000000 L 442.600006 15.300000 C 442.600006 14.700000 442.899994 14.100000 443.799988 14.100000 L 445.299988 14.100000 C 446.200012 14.100000 446.500000 14.400000 446.500000 15.300000 L 446.799988 19.600000 C 448.600006 17.400000 450.500000 15.900000 452.299988 15.300000 C 454.100006 14.400000 456.299988 14.100000 458.500000 14.100000 C 459.399994 14.100000 460.000000 14.100000 460.299988 14.100000 C 460.899994 14.100000 461.500000 14.400000 461.500000 15.300000 L 461.500000 17.200001 C 461.500000 17.500000 461.500000 17.500000 461.200012 17.799999 C 461.200012 18.100000 460.899994 18.100000 460.600006 18.100000 C 460.299988 18.100000 459.700012 18.100000 459.399994 18.100000 C 459.100006 18.100000 458.500000 18.100000 457.899994 18.100000 C 455.700012 18.100000 453.600006 18.400000 451.700012 19.299999 C 449.899994 20.200001 448.299988 21.500000 446.500000 23.299999 L 446.500000 51.000000 C 446.500000 51.599998 446.200012 52.200001 445.299988 52.200001 L 443.799988 52.200001" id="Fill-24_1_" fill="#535353" fill-rule="evenodd" fill-opacity="1.000000" clip-rule="evenodd"/><path d=" M 482.299988 52.200001 C 479.200012 52.200001 477.000000 51.299999 475.399994 49.700001 C 473.799988 48.099998 472.899994 45.900002 472.899994 42.799999 L 472.899994 17.500000 L 467.000000 17.500000 C 466.399994 17.500000 465.799988 17.200001 465.799988 16.200001 L 465.799988 15.600000 C 465.799988 15.300000 465.799988 15.000000 466.100006 14.700000 C 466.100006 14.400000 466.399994 14.400000 467.000000 14.400000 L 473.200012 13.800000 L 473.799988 3.800000 C 473.799988 3.500000 474.100006 3.200000 474.100006 2.900000 C 474.399994 2.600000 474.399994 2.600000 475.000000 2.600000 L 476.200012 2.600000 C 476.799988 2.600000 477.399994 2.900000 477.399994 3.900000 L 477.399994 13.900000 L 488.299988 13.900000 C 488.899994 13.900000 489.500000 14.200000 489.500000 15.200000 L 489.500000 16.799999 C 489.500000 17.400000 489.200012 18.100000 488.299988 18.100000 L 477.399994 18.100000 L 477.399994 43.400002 C 477.399994 45.599998 477.700012 46.799999 478.600006 47.799999 C 479.500000 48.700001 481.100006 49.099998 483.000000 49.099998 C 484.600006 49.099998 485.799988 49.099998 486.700012 48.799999 C 487.299988 48.799999 487.600006 48.500000 487.899994 48.500000 C 488.200012 48.500000 488.500000 48.500000 488.500000 48.500000 C 489.100006 48.500000 489.399994 48.799999 489.399994 49.400002 L 489.399994 50.700001 C 489.399994 51.599998 489.100006 52.000000 488.500000 52.299999 C 487.000000 51.900002 484.799988 52.200001 482.299988 52.200001" id="Fill-25_1_" fill="#535353" fill-rule="evenodd" fill-opacity="1.000000" clip-rule="evenodd"/><path d=" M 499.399994 51.900002 C 498.799988 51.900002 498.100006 51.599998 498.100006 50.700001 L 498.100006 14.900000 C 498.100006 14.300000 498.399994 13.700000 499.399994 13.700000 L 501.000000 13.700000 C 501.899994 13.700000 502.299988 14.000000 502.299988 14.900000 L 502.600006 18.000000 C 505.100006 16.100000 507.600006 14.900000 510.500000 14.000000 C 513.299988 13.100000 515.900024 12.400000 518.400024 12.400000 C 522.200012 12.400000 525.000000 13.300000 526.900024 15.200000 C 528.799988 17.100000 529.700012 19.900000 529.700012 23.900000 L 529.700012 50.299999 C 529.700012 50.900002 529.400024 51.500000 528.400024 51.500000 L 526.200012 51.500000 C 525.599976 51.500000 524.900024 51.200001 524.900024 50.299999 L 524.900024 26.100000 C 524.900024 22.700001 524.299988 20.500000 523.000000 18.900000 C 521.700012 17.299999 519.500000 16.700001 517.000000 16.700001 C 512.000000 16.700001 506.899994 18.299999 502.200012 21.700001 L 502.200012 51.000000 C 502.200012 51.599998 501.899994 52.200001 500.899994 52.200001 L 499.299988 52.200001" id="Fill-26_1_" fill="#535353" fill-rule="evenodd" fill-opacity="1.000000" clip-rule="evenodd"/><path d=" M 557.099976 53.099998 C 551.099976 53.099998 546.299988 51.500000 543.500000 48.099998 C 540.299988 44.599998 538.700012 39.599998 538.700012 32.700001 C 538.700012 26.400000 540.299988 21.400000 543.500000 17.900000 C 546.700012 14.400000 551.099976 12.500000 556.500000 12.500000 C 561.299988 12.500000 564.700012 13.800000 567.299988 16.600000 C 569.799988 19.100000 571.099976 22.900000 571.099976 27.900000 C 571.099976 29.799999 571.099976 31.400000 570.799988 32.599998 C 570.799988 33.200001 570.200012 33.900002 569.500000 33.900002 L 543.500000 33.900002 C 543.500000 39.299999 544.799988 43.299999 547.000000 45.900002 C 549.200012 48.400002 553.000000 49.700001 557.799988 49.700001 C 561.599976 49.700001 565.099976 49.099998 568.299988 47.799999 C 568.900024 47.500000 569.599976 47.500000 569.599976 47.500000 C 569.900024 47.500000 569.900024 47.500000 570.200012 47.799999 C 570.200012 48.099998 570.500000 48.099998 570.500000 48.400002 L 570.500000 49.700001 C 570.500000 50.599998 570.200012 51.000000 569.500000 51.299999 C 565.400024 52.099998 561.599976 53.099998 557.099976 53.099998 Z M 566.599976 30.100000 C 566.599976 29.500000 566.599976 28.500000 566.599976 27.600000 C 566.599976 23.799999 565.599976 21.299999 564.099976 19.400000 C 562.200012 17.500000 559.700012 16.600000 556.200012 16.600000 C 548.000000 16.600000 543.799988 21.000000 543.200012 30.100000 L 566.599976 30.100000 Z" id="Fill-27_1_" fill="#535353" fill-rule="evenodd" fill-opacity="1.000000" clip-rule="evenodd"/><path d=" M 581.400024 52.200001 C 580.799988 52.200001 580.200012 51.900002 580.200012 51.000000 L 580.200012 15.300000 C 580.200012 14.700000 580.500000 14.100000 581.400024 14.100000 L 582.900024 14.100000 C 583.799988 14.100000 584.099976 14.400000 584.099976 15.300000 L 584.400024 19.600000 C 586.200012 17.400000 588.099976 15.900000 589.900024 15.300000 C 591.700012 14.400000 593.900024 14.100000 596.099976 14.100000 C 597.000000 14.100000 597.599976 14.100000 597.900024 14.100000 C 598.500000 14.100000 599.099976 14.400000 599.099976 15.300000 L 599.099976 17.200001 C 599.099976 17.500000 599.099976 17.500000 598.799988 17.799999 C 598.799988 18.100000 598.500000 18.100000 598.200012 18.100000 C 597.900024 18.100000 597.299988 18.100000 597.000000 18.100000 C 596.700012 18.100000 596.099976 18.100000 595.500000 18.100000 C 593.299988 18.100000 591.200012 18.400000 589.299988 19.299999 C 587.500000 20.200001 585.900024 21.500000 584.099976 23.299999 L 584.099976 51.000000 C 584.099976 51.599998 583.799988 52.200001 582.900024 52.200001 L 581.400024 52.200001" id="Fill-28_1_" fill="#535353" fill-rule="evenodd" fill-opacity="1.000000" clip-rule="evenodd"/><path d=" M 361.700012 136.500000 C 361.100006 136.500000 360.399994 136.199997 360.399994 135.199997 L 360.399994 99.500000 C 360.399994 98.900002 360.700012 98.199997 361.700012 98.199997 L 363.299988 98.199997 C 364.200012 98.199997 364.600006 98.500000 364.600006 99.500000 L 364.899994 102.599998 C 367.399994 100.699997 369.899994 99.500000 372.799988 98.500000 C 375.600006 97.599998 378.200012 96.900002 380.700012 96.900002 C 384.500000 96.900002 387.299988 97.800003 389.200012 99.699997 C 391.100006 101.599998 392.000000 104.400002 392.000000 108.500000 L 392.000000 135.100006 C 392.000000 135.699997 391.700012 136.399994 390.700012 136.399994 L 388.500000 136.399994 C 387.899994 136.399994 387.200012 136.100006 387.200012 135.100006 L 387.200012 110.300003 C 387.200012 106.900002 386.600006 104.699997 385.299988 103.099998 C 384.000000 101.500000 381.799988 100.900002 379.299988 100.900002 C 374.299988 100.900002 369.200012 102.500000 364.500000 105.900002 L 364.500000 135.399994 C 364.500000 136.000000 364.200012 136.699997 363.200012 136.699997 L 361.600006 136.699997" id="Fill-29_1_" fill="#535353" fill-rule="evenodd" fill-opacity="1.000000" clip-rule="evenodd"/><path d=" M 420.299988 137.600006 C 414.299988 137.600006 409.500000 136.000000 406.700012 132.600006 C 403.500000 129.100006 401.899994 124.099998 401.899994 117.199997 C 401.899994 110.900002 403.500000 105.900002 406.700012 102.400002 C 409.899994 98.900002 414.299988 97.000000 419.700012 97.000000 C 424.500000 97.000000 427.899994 98.300003 430.500000 101.099998 C 433.000000 103.599998 434.299988 107.400002 434.299988 112.400002 C 434.299988 114.300003 434.299988 115.900002 434.000000 117.099998 C 434.000000 117.699997 433.399994 118.400002 432.700012 118.400002 L 406.700012 118.400002 C 406.700012 123.800003 408.000000 127.800003 410.200012 130.399994 C 412.399994 132.899994 416.200012 134.199997 421.000000 134.199997 C 424.799988 134.199997 428.299988 133.600006 431.500000 132.300003 C 432.100006 132.000000 432.799988 132.000000 432.799988 132.000000 C 433.100006 132.000000 433.100006 132.000000 433.399994 132.300003 C 433.399994 132.600006 433.700012 132.600006 433.700012 132.899994 L 433.700012 134.199997 C 433.700012 135.100006 433.399994 135.500000 432.700012 135.800003 C 428.899994 136.699997 424.700012 137.600006 420.299988 137.600006 Z M 429.799988 114.300003 C 429.799988 113.699997 429.799988 112.699997 429.799988 111.800003 C 429.799988 108.000000 428.799988 105.500000 427.299988 103.599998 C 425.399994 101.699997 422.899994 100.800003 419.399994 100.800003 C 411.200012 100.800003 407.000000 105.199997 406.399994 114.300003 L 429.799988 114.300003 Z" id="Fill-30_1_" fill="#535353" fill-rule="evenodd" fill-opacity="1.000000" clip-rule="evenodd"/><path d=" M 455.000000 136.800003 C 451.899994 136.800003 449.700012 135.899994 448.100006 134.300003 C 446.500000 132.699997 445.600006 130.600006 445.600006 127.500000 L 445.600006 102.000000 L 439.700012 102.000000 C 439.100006 102.000000 438.500000 101.699997 438.500000 100.800003 L 438.500000 100.199997 C 438.500000 99.900002 438.500000 99.599998 438.799988 99.300003 C 438.799988 99.000000 439.100006 99.000000 439.700012 99.000000 L 445.899994 98.400002 L 446.500000 88.500000 C 446.500000 88.199997 446.799988 87.900002 446.799988 87.599998 C 447.100006 87.300003 447.100006 87.300003 447.700012 87.300003 L 448.899994 87.300003 C 449.500000 87.300003 450.100006 87.599998 450.100006 88.500000 L 450.100006 98.400002 L 461.000000 98.400002 C 461.600006 98.400002 462.200012 98.699997 462.200012 99.599998 L 462.200012 101.199997 C 462.200012 101.800003 461.899994 102.400002 461.000000 102.400002 L 450.100006 102.400002 L 450.100006 127.599998 C 450.100006 129.800003 450.399994 131.000000 451.299988 132.000000 C 452.200012 133.000000 453.799988 133.199997 455.700012 133.199997 C 457.299988 133.199997 458.500000 133.199997 459.399994 132.899994 C 460.000000 132.899994 460.299988 132.600006 460.600006 132.600006 C 460.899994 132.600006 461.200012 132.600006 461.200012 132.600006 C 461.799988 132.600006 462.100006 132.899994 462.100006 133.500000 L 462.100006 134.699997 C 462.100006 135.600006 461.799988 135.899994 461.200012 136.300003 C 459.600006 136.500000 457.500000 136.800003 455.000000 136.800003" id="Fill-31_1_" fill="#535353" fill-rule="evenodd" fill-opacity="1.000000" clip-rule="evenodd"/><path d=" M 479.500000 136.000000 C 478.899994 136.000000 478.299988 135.699997 477.899994 135.100006 L 466.100006 100.099998 C 465.799988 99.500000 465.799988 99.199997 465.799988 98.900002 C 465.799988 98.599998 466.100006 98.300003 466.700012 98.300003 L 469.200012 98.300003 C 469.799988 98.300003 470.100006 98.599998 470.399994 99.199997 L 480.700012 131.100006 L 489.700012 99.199997 C 490.000000 98.599998 490.299988 98.300003 491.299988 98.300003 L 494.100006 98.300003 C 494.700012 98.300003 495.299988 98.599998 495.700012 99.199997 L 504.700012 131.100006 L 515.299988 98.900002 C 515.599976 98.300003 515.900024 98.000000 516.500000 98.000000 L 518.700012 98.000000 C 519.299988 98.000000 519.599976 98.300003 519.599976 98.599998 C 519.599976 98.900002 519.599976 99.199997 519.299988 99.800003 L 506.799988 134.800003 C 506.500000 135.399994 506.200012 135.699997 505.200012 135.699997 L 502.700012 135.699997 C 502.100006 135.699997 501.500000 135.399994 501.100006 134.800003 L 492.100006 102.900002 L 483.100006 134.800003 C 482.799988 135.399994 482.500000 135.699997 481.500000 135.699997 L 479.299988 135.699997" id="Fill-32_1_" fill="#535353" fill-rule="evenodd" fill-opacity="1.000000" clip-rule="evenodd"/><path d=" M 542.500000 137.600006 C 536.900024 137.600006 532.500000 135.699997 529.400024 132.300003 C 526.299988 128.899994 524.700012 123.900002 524.700012 117.300003 C 524.700012 111.000000 526.299988 106.000000 529.400024 102.300003 C 532.500000 98.900002 536.900024 97.000000 542.500000 97.000000 C 548.099976 97.000000 552.500000 98.900002 555.599976 102.300003 C 558.700012 105.699997 560.299988 110.699997 560.299988 117.300003 C 560.299988 123.599998 558.700012 128.600006 555.599976 132.300003 C 552.500000 135.800003 548.099976 137.600006 542.500000 137.600006 Z M 542.500000 133.600006 C 551.299988 133.600006 555.599976 128.300003 555.599976 117.300003 C 555.599976 106.300003 551.200012 101.000000 542.500000 101.000000 C 533.700012 101.000000 529.400024 106.300003 529.400024 117.300003 C 529.400024 128.300003 533.700012 133.600006 542.500000 133.600006 Z" id="Fill-33_1_" fill="#535353" fill-rule="evenodd" fill-opacity="1.000000" clip-rule="evenodd"/><path d=" M 571.500000 135.699997 C 570.900024 135.699997 570.299988 135.399994 570.299988 134.500000 L 570.299988 99.099998 C 570.299988 98.500000 570.599976 97.900002 571.500000 97.900002 L 573.000000 97.900002 C 573.900024 97.900002 574.200012 98.199997 574.200012 99.099998 L 574.500000 103.400002 C 576.299988 101.199997 578.200012 99.699997 580.000000 99.099998 C 581.799988 98.199997 584.000000 97.900002 586.200012 97.900002 C 587.099976 97.900002 587.700012 97.900002 588.000000 97.900002 C 588.599976 97.900002 589.200012 98.199997 589.200012 99.099998 L 589.200012 101.000000 C 589.200012 101.300003 589.200012 101.300003 588.900024 101.599998 C 588.599976 101.900002 588.599976 101.900002 588.299988 101.900002 C 588.000000 101.900002 587.400024 101.900002 587.099976 101.900002 C 586.799988 101.900002 586.200012 101.900002 585.599976 101.900002 C 583.400024 101.900002 581.299988 102.199997 579.400024 103.099998 C 577.599976 104.000000 576.000000 105.300003 574.200012 107.099998 L 574.200012 134.699997 C 574.200012 135.300003 573.900024 135.899994 573.000000 135.899994 L 571.500000 135.899994" id="Fill-34_1_" fill="#535353" fill-rule="evenodd" fill-opacity="1.000000" clip-rule="evenodd"/><path d=" M 597.200012 136.800003 C 596.599976 136.800003 595.900024 136.500000 595.900024 135.500000 L 595.900024 81.699997 C 595.900024 81.099998 596.200012 80.400002 597.200012 80.400002 L 599.400024 80.400002 C 600.000000 80.400002 600.700012 80.699997 600.700012 81.699997 L 600.700012 115.500000 L 618.900024 99.199997 C 619.500000 98.599998 620.200012 98.599998 620.799988 98.599998 L 623.599976 98.599998 C 624.200012 98.599998 624.500000 98.900002 624.500000 99.199997 C 624.500000 99.500000 624.200012 99.800003 623.599976 100.500000 L 605.099976 116.800003 L 625.200012 135.300003 C 625.500000 135.600006 625.799988 135.899994 625.799988 136.199997 C 625.799988 136.800003 625.500000 136.800003 624.900024 136.800003 L 621.799988 136.800003 C 621.200012 136.800003 620.500000 136.500000 620.200012 136.199997 L 600.700012 118.000000 L 600.700012 135.500000 C 600.700012 136.100006 600.400024 136.800003 599.400024 136.800003 L 597.200012 136.800003" id="Fill-35_1_" fill="#535353" fill-rule="evenodd" fill-opacity="1.000000" clip-rule="evenodd"/></g></g></g></g></svg>