<svg version="1.1" width="469.300000" height="512.000000" viewBox="0.000000 0.000000 469.300000 512.000000" xmlns="http://www.w3.org/2000/svg" xmlns:xlink="http://www.w3.org/1999/xlink" overflow="hidden"><style>
.MsftOfcThm_Accent6_Fill {
 fill:#62A39F; 
}
</style>
<defs></defs><g><g><g><path d=" M 416.000000 138.699997 L 405.299988 138.699997 L 405.299988 416.000000 C 405.299988 421.899994 400.500000 426.700012 394.600006 426.700012 L 32.000000 426.700012 C 26.100000 426.700012 21.299999 421.899994 21.299999 416.000000 L 21.299999 170.699997 C 21.299999 164.800003 26.100000 160.000000 32.000000 160.000000 L 234.699997 160.000000 L 234.699997 138.699997 L 32.000000 138.699997 C 14.300000 138.699997 0.000000 153.000000 0.000000 170.699997 L 0.000000 416.000000 C 0.000000 433.700012 14.300000 448.000000 32.000000 448.000000 L 394.700012 448.000000 C 412.399994 448.000000 426.700012 433.700012 426.700012 416.000000 L 426.700012 149.300003 C 426.700012 143.399994 421.899994 138.699997 416.000000 138.699997 Z" class="MsftOfcThm_Text1_Fill" fill="#62A39F" fill-opacity="1.000000"/></g></g><g><g><path d=" M 266.700012 437.299988 L 266.700012 490.600006 L 160.000000 490.600006 L 160.000000 437.299988 L 138.699997 437.299988 L 138.699997 501.299988 C 138.699997 507.200012 143.500000 512.000000 149.399994 512.000000 L 277.399994 512.000000 C 283.299988 512.000000 288.100006 507.200012 288.100006 501.299988 L 288.100006 437.299988 L 266.700012 437.299988 Z" class="MsftOfcThm_Text1_Fill" fill="#62A39F" fill-opacity="1.000000"/></g></g><g><g><rect x="117.300000" y="490.700000" width="192.000000" height="21.300000" class="MsftOfcThm_Text1_Fill" fill="#62A39F" fill-opacity="1.000000"/></g></g><g><g><path d=" M 74.699997 384.000000 C 68.800003 384.000000 64.000000 379.200012 64.000000 373.299988 L 64.000000 352.000000 L 42.700001 352.000000 L 42.700001 373.299988 C 42.700001 391.000000 57.000000 405.299988 74.699997 405.299988 L 96.000000 405.299988 L 96.000000 384.000000 L 74.699997 384.000000 Z" class="MsftOfcThm_Text1_Fill" fill="#62A39F" fill-opacity="1.000000"/></g></g><g><g><rect x="42.700000" y="309.300000" width="21.300000" height="21.300000" class="MsftOfcThm_Text1_Fill" fill="#62A39F" fill-opacity="1.000000"/></g></g><g><g><path d=" M 435.200012 77.800003 L 391.500000 34.099998 C 387.299988 30.100000 380.600006 30.100000 376.399994 34.099998 L 259.700012 150.800003 C 255.500000 155.000000 255.500000 161.699997 259.700012 165.899994 L 303.399994 209.600006 C 305.399994 211.600006 308.100006 212.699997 310.899994 212.699997 C 313.700012 212.699997 316.399994 211.600006 318.399994 209.600006 L 435.200012 92.900002 C 439.399994 88.699997 439.399994 82.000000 435.200012 77.800003 Z M 311.000000 187.100006 L 282.299988 158.399994 L 383.899994 56.700001 L 412.600006 85.400002 L 311.000000 187.100006 Z" class="MsftOfcThm_Text1_Fill" fill="#62A39F" fill-opacity="1.000000"/></g></g><g><g><path d=" M 307.600006 192.000000 L 262.200012 207.100006 L 277.299988 161.699997 L 257.000000 154.899994 L 235.100006 220.600006 C 234.699997 221.699997 234.600006 222.800003 234.600006 224.000000 C 234.600006 229.899994 239.399994 234.699997 245.300003 234.699997 C 246.399994 234.699997 247.600006 234.500000 248.699997 234.199997 L 314.399994 212.300003 L 307.600006 192.000000 Z" class="MsftOfcThm_Text1_Fill" fill="#62A39F" fill-opacity="1.000000"/></g></g><g><g><path d=" M 457.100006 12.200000 C 440.799988 -4.100000 414.500000 -4.000000 398.200012 12.200000 L 376.299988 34.099998 L 391.399994 49.200001 L 413.299988 27.299999 C 421.200012 19.400000 434.100006 19.400000 442.000000 27.299999 C 449.899994 35.200001 449.899994 48.099998 442.000000 56.000000 L 420.100006 77.900002 L 435.200012 93.000000 L 457.100006 71.000000 C 473.399994 54.799999 473.399994 28.400000 457.100006 12.200000 Z" class="MsftOfcThm_Text1_Fill" fill="#62A39F" fill-opacity="1.000000"/></g></g><g><g><rect x="278.500000" y="144.000000" width="72.200000" height="21.300000" class="MsftOfcThm_Text1_Fill" fill="#62A39F" fill-opacity="1.000000" transform="matrix(0.707100,-0.707100,0.707100,0.707100,-17.232400,267.792000)"/></g></g><g><g><rect x="344.200000" y="78.400000" width="72.200000" height="21.300000" class="MsftOfcThm_Text1_Fill" fill="#62A39F" fill-opacity="1.000000" transform="matrix(0.707100,-0.707100,0.707100,0.707100,48.430800,294.986000)"/></g></g><g><g><path d=" M 288.000000 277.299988 L 160.000000 277.299988 C 148.199997 277.299988 138.699997 267.700012 138.699997 256.000000 C 138.699997 244.199997 148.300003 234.699997 160.000000 234.699997 L 245.300003 234.699997 L 245.300003 213.399994 L 160.000000 213.399994 C 136.399994 213.399994 117.300003 232.500000 117.300003 256.100006 C 117.300003 279.700012 136.399994 298.799988 160.000000 298.799988 L 288.000000 298.799988 C 299.799988 298.799988 309.299988 308.399994 309.299988 320.100006 L 309.299988 341.399994 L 330.600006 341.399994 L 330.600006 320.000000 C 330.700012 296.399994 311.600006 277.299988 288.000000 277.299988 Z" class="MsftOfcThm_Text1_Fill" fill="#62A39F" fill-opacity="1.000000"/></g></g><g><g><path d=" M 320.000000 330.700012 C 302.299988 330.700012 288.000000 345.000000 288.000000 362.700012 C 288.000000 380.399994 302.299988 394.700012 320.000000 394.700012 C 337.700012 394.700012 352.000000 380.399994 352.000000 362.700012 C 352.000000 345.000000 337.700012 330.700012 320.000000 330.700012 Z M 320.000000 373.299988 C 314.100006 373.299988 309.299988 368.500000 309.299988 362.600006 C 309.299988 356.700012 314.100006 352.000000 320.000000 352.000000 C 325.899994 352.000000 330.700012 356.799988 330.700012 362.700012 C 330.700012 368.600006 325.899994 373.299988 320.000000 373.299988 Z" class="MsftOfcThm_Text1_Fill" fill="#62A39F" fill-opacity="1.000000"/></g></g></g></svg>