<?xml version="1.0" encoding="UTF-8" standalone="no"?>
<svg
   xmlns:dc="http://purl.org/dc/elements/1.1/"
   xmlns:cc="http://creativecommons.org/ns#"
   xmlns:rdf="http://www.w3.org/1999/02/22-rdf-syntax-ns#"
   xmlns:svg="http://www.w3.org/2000/svg"
   xmlns="http://www.w3.org/2000/svg"
   xmlns:sodipodi="http://sodipodi.sourceforge.net/DTD/sodipodi-0.dtd"
   xmlns:inkscape="http://www.inkscape.org/namespaces/inkscape"
   inkscape:version="1.1-dev (bc69992, 2020-04-15)"
   sodipodi:docname="appstore.svg"
   id="svg8"
   version="1.1"
   viewBox="0 0 184.047 60.203648"
   height="60.203648mm"
   width="184.047mm">
  <defs
     id="defs2">
    <clipPath
       clipPathUnits="userSpaceOnUse"
       id="clipPath975">
      <path
         d="m 1108.44,9387.53 -230.627,133.15 c 0,0 -420.157,242.61 -444.86,256.87 -24.699,14.25 -49.305,5.62 -49.305,-24.18 0,-49.65 0,-518 0,-518 0,0 0,-506.15 0,-528.5 0,-22.34 17.59,-31.98 39.047,-19.59 21.45,12.4 455.118,262.79 455.118,262.79 l 230.617,133.14 c 0,0 195.68,112.97 221.69,127.98 26.01,15.03 23.51,35.64 1.56,47.46 -21.94,11.82 -223.24,128.88 -223.24,128.88 z"
         id="path973" />
    </clipPath>
    <clipPath
       clipPathUnits="userSpaceOnUse"
       id="clipPath981">
      <path
         d="M 383.648,9801.89 V 8668.85 l 571.336,566.51 z"
         id="path979" />
    </clipPath>
    <linearGradient
       x1="0"
       y1="0"
       x2="1"
       y2="0"
       gradientUnits="userSpaceOnUse"
       gradientTransform="matrix(-4.95e-5,-1133.04,-1133.04,4.95e-5,669.316,9801.89)"
       spreadMethod="pad"
       id="linearGradient989">
      <stop
         style="stop-opacity:1;stop-color:#3a7ab6"
         offset="0"
         id="stop983" />
      <stop
         style="stop-opacity:1;stop-color:#8ad6b6"
         offset="0.88094861"
         id="stop985" />
      <stop
         style="stop-opacity:1;stop-color:#8ad6b6"
         offset="1"
         id="stop987" />
    </linearGradient>
    <clipPath
       clipPathUnits="userSpaceOnUse"
       id="clipPath999">
      <path
         d="m 1108.44,9387.53 -230.627,133.15 c 0,0 -420.157,242.61 -444.86,256.87 -24.699,14.25 -49.305,5.62 -49.305,-24.18 0,-49.65 0,-518 0,-518 0,0 0,-506.15 0,-528.5 0,-22.34 17.59,-31.98 39.047,-19.59 21.45,12.4 455.118,262.79 455.118,262.79 l 230.617,133.14 c 0,0 195.68,112.97 221.69,127.98 26.01,15.03 23.51,35.64 1.56,47.46 -21.94,11.82 -223.24,128.88 -223.24,128.88 z"
         id="path997" />
    </clipPath>
    <clipPath
       clipPathUnits="userSpaceOnUse"
       id="clipPath1005">
      <path
         d="m 1108.44,9387.53 -230.627,133.15 -494.165,285.33 v -4.12 l 571.336,-566.53 z"
         id="path1003" />
    </clipPath>
    <linearGradient
       x1="0"
       y1="0"
       x2="1"
       y2="0"
       gradientUnits="userSpaceOnUse"
       gradientTransform="matrix(724.795,0,0,-724.795,383.647,9520.68)"
       spreadMethod="pad"
       id="linearGradient1011">
      <stop
         style="stop-opacity:1;stop-color:#5dc7a6"
         offset="0"
         id="stop1007" />
      <stop
         style="stop-opacity:1;stop-color:#daed84"
         offset="1"
         id="stop1009" />
    </linearGradient>
    <clipPath
       clipPathUnits="userSpaceOnUse"
       id="clipPath1021">
      <path
         d="m 1108.44,9387.53 -230.627,133.15 c 0,0 -420.157,242.61 -444.86,256.87 -24.699,14.25 -49.305,5.62 -49.305,-24.18 0,-49.65 0,-518 0,-518 0,0 0,-506.15 0,-528.5 0,-22.34 17.59,-31.98 39.047,-19.59 21.45,12.4 455.118,262.79 455.118,262.79 l 230.617,133.14 c 0,0 195.68,112.97 221.69,127.98 26.01,15.03 23.51,35.64 1.56,47.46 -21.94,11.82 -223.24,128.88 -223.24,128.88 z"
         id="path1019" />
    </clipPath>
    <clipPath
       clipPathUnits="userSpaceOnUse"
       id="clipPath1027">
      <path
         d="m 383.648,8668.85 v -4.11 l 494.165,285.33 230.617,133.14 -153.446,152.15 z"
         id="path1025" />
    </clipPath>
    <linearGradient
       x1="0"
       y1="0"
       x2="1"
       y2="0"
       gradientUnits="userSpaceOnUse"
       gradientTransform="matrix(-2.49e-5,-570.62,-570.62,2.49e-5,746.04,9235.36)"
       spreadMethod="pad"
       id="linearGradient1033">
      <stop
         style="stop-opacity:1;stop-color:#ec2d38"
         offset="0"
         id="stop1029" />
      <stop
         style="stop-opacity:1;stop-color:#85379f"
         offset="1"
         id="stop1031" />
    </linearGradient>
    <clipPath
       clipPathUnits="userSpaceOnUse"
       id="clipPath1043">
      <path
         d="m 1108.44,9387.53 -230.627,133.15 c 0,0 -420.157,242.61 -444.86,256.87 -24.699,14.25 -49.305,5.62 -49.305,-24.18 0,-49.65 0,-518 0,-518 0,0 0,-506.15 0,-528.5 0,-22.34 17.59,-31.98 39.047,-19.59 21.45,12.4 455.118,262.79 455.118,262.79 l 230.617,133.14 c 0,0 195.68,112.97 221.69,127.98 26.01,15.03 23.51,35.64 1.56,47.46 -21.94,11.82 -223.24,128.88 -223.24,128.88 z"
         id="path1041" />
    </clipPath>
    <clipPath
       clipPathUnits="userSpaceOnUse"
       id="clipPath1049">
      <path
         d="M 1108.44,9387.53 954.984,9235.36 1108.43,9083.21 1372,9235.37 Z"
         id="path1047" />
    </clipPath>
    <linearGradient
       x1="0"
       y1="0"
       x2="1"
       y2="0"
       gradientUnits="userSpaceOnUse"
       gradientTransform="matrix(-1.33e-5,-304.316,-304.316,1.33e-5,1163.5,9387.53)"
       spreadMethod="pad"
       id="linearGradient1055">
      <stop
         style="stop-opacity:1;stop-color:#f4706e"
         offset="0"
         id="stop1051" />
      <stop
         style="stop-opacity:1;stop-color:#fbc15b"
         offset="1"
         id="stop1053" />
    </linearGradient>
    <clipPath
       clipPathUnits="userSpaceOnUse"
       id="clipPath1113">
      <path
         d="m 1108.44,7367.61 -230.627,133.15 c 0,0 -420.157,242.61 -444.86,256.87 -24.699,14.26 -49.305,5.62 -49.305,-24.18 0,-49.65 0,-518 0,-518 0,0 0,-506.15 0,-528.51 0,-22.34 17.59,-31.97 39.047,-19.59 21.45,12.41 455.118,262.8 455.118,262.8 l 230.617,133.14 c 0,0 195.68,112.97 221.69,127.98 26.01,15.03 23.51,35.63 1.56,47.45 -21.94,11.83 -223.24,128.89 -223.24,128.89 z"
         id="path1111" />
    </clipPath>
    <clipPath
       clipPathUnits="userSpaceOnUse"
       id="clipPath1119">
      <path
         d="M 383.648,7781.96 V 6648.94 l 571.336,566.5 z"
         id="path1117" />
    </clipPath>
    <linearGradient
       x1="0"
       y1="0"
       x2="1"
       y2="0"
       gradientUnits="userSpaceOnUse"
       gradientTransform="matrix(-4.95e-5,-1133.03,-1133.03,4.95e-5,669.316,7781.96)"
       spreadMethod="pad"
       id="linearGradient1127">
      <stop
         style="stop-opacity:1;stop-color:#3a7ab6"
         offset="0"
         id="stop1121" />
      <stop
         style="stop-opacity:1;stop-color:#8ad6b6"
         offset="0.88094861"
         id="stop1123" />
      <stop
         style="stop-opacity:1;stop-color:#8ad6b6"
         offset="1"
         id="stop1125" />
    </linearGradient>
    <clipPath
       clipPathUnits="userSpaceOnUse"
       id="clipPath1137">
      <path
         d="m 1108.44,7367.61 -230.627,133.15 c 0,0 -420.157,242.61 -444.86,256.87 -24.699,14.26 -49.305,5.62 -49.305,-24.18 0,-49.65 0,-518 0,-518 0,0 0,-506.15 0,-528.51 0,-22.34 17.59,-31.97 39.047,-19.59 21.45,12.41 455.118,262.8 455.118,262.8 l 230.617,133.14 c 0,0 195.68,112.97 221.69,127.98 26.01,15.03 23.51,35.63 1.56,47.45 -21.94,11.83 -223.24,128.89 -223.24,128.89 z"
         id="path1135" />
    </clipPath>
    <clipPath
       clipPathUnits="userSpaceOnUse"
       id="clipPath1143">
      <path
         d="m 1108.44,7367.61 -230.627,133.15 -494.165,285.32 v -4.12 l 571.336,-566.52 z"
         id="path1141" />
    </clipPath>
    <linearGradient
       x1="0"
       y1="0"
       x2="1"
       y2="0"
       gradientUnits="userSpaceOnUse"
       gradientTransform="matrix(724.795,0,0,-724.795,383.647,7500.76)"
       spreadMethod="pad"
       id="linearGradient1149">
      <stop
         style="stop-opacity:1;stop-color:#5dc7a6"
         offset="0"
         id="stop1145" />
      <stop
         style="stop-opacity:1;stop-color:#daed84"
         offset="1"
         id="stop1147" />
    </linearGradient>
    <clipPath
       clipPathUnits="userSpaceOnUse"
       id="clipPath1159">
      <path
         d="m 1108.44,7367.61 -230.627,133.15 c 0,0 -420.157,242.61 -444.86,256.87 -24.699,14.26 -49.305,5.62 -49.305,-24.18 0,-49.65 0,-518 0,-518 0,0 0,-506.15 0,-528.51 0,-22.34 17.59,-31.97 39.047,-19.59 21.45,12.41 455.118,262.8 455.118,262.8 l 230.617,133.14 c 0,0 195.68,112.97 221.69,127.98 26.01,15.03 23.51,35.63 1.56,47.45 -21.94,11.83 -223.24,128.89 -223.24,128.89 z"
         id="path1157" />
    </clipPath>
    <clipPath
       clipPathUnits="userSpaceOnUse"
       id="clipPath1165">
      <path
         d="m 383.648,6648.94 v -4.13 l 494.165,285.34 230.617,133.14 -153.446,152.15 z"
         id="path1163" />
    </clipPath>
    <linearGradient
       x1="0"
       y1="0"
       x2="1"
       y2="0"
       gradientUnits="userSpaceOnUse"
       gradientTransform="matrix(-2.49e-5,-570.625,-570.625,2.49e-5,746.04,7215.44)"
       spreadMethod="pad"
       id="linearGradient1171">
      <stop
         style="stop-opacity:1;stop-color:#ec2d38"
         offset="0"
         id="stop1167" />
      <stop
         style="stop-opacity:1;stop-color:#85379f"
         offset="1"
         id="stop1169" />
    </linearGradient>
    <clipPath
       clipPathUnits="userSpaceOnUse"
       id="clipPath1181">
      <path
         d="m 1108.44,7367.61 -230.627,133.15 c 0,0 -420.157,242.61 -444.86,256.87 -24.699,14.26 -49.305,5.62 -49.305,-24.18 0,-49.65 0,-518 0,-518 0,0 0,-506.15 0,-528.51 0,-22.34 17.59,-31.97 39.047,-19.59 21.45,12.41 455.118,262.8 455.118,262.8 l 230.617,133.14 c 0,0 195.68,112.97 221.69,127.98 26.01,15.03 23.51,35.63 1.56,47.45 -21.94,11.83 -223.24,128.89 -223.24,128.89 z"
         id="path1179" />
    </clipPath>
    <clipPath
       clipPathUnits="userSpaceOnUse"
       id="clipPath1187">
      <path
         d="M 1108.44,7367.61 954.984,7215.44 1108.43,7063.29 1372,7215.45 Z"
         id="path1185" />
    </clipPath>
    <linearGradient
       x1="0"
       y1="0"
       x2="1"
       y2="0"
       gradientUnits="userSpaceOnUse"
       gradientTransform="matrix(-1.33e-5,-304.316,-304.316,1.33e-5,1163.5,7367.61)"
       spreadMethod="pad"
       id="linearGradient1193">
      <stop
         style="stop-opacity:1;stop-color:#f4706e"
         offset="0"
         id="stop1189" />
      <stop
         style="stop-opacity:1;stop-color:#fbc15b"
         offset="1"
         id="stop1191" />
    </linearGradient>
  </defs>
  <sodipodi:namedview
     inkscape:window-maximized="0"
     inkscape:window-y="23"
     inkscape:window-x="0"
     inkscape:window-height="855"
     inkscape:window-width="1252"
     showgrid="false"
     inkscape:current-layer="g843"
     inkscape:document-units="mm"
     inkscape:cy="-272.62458"
     inkscape:cx="269.89642"
     inkscape:zoom="0.35"
     inkscape:pageshadow="2"
     inkscape:pageopacity="0.0"
     borderopacity="1.0"
     bordercolor="#666666"
     pagecolor="#ffffff"
     id="base" />
  <metadata
     id="metadata5">
    <rdf:RDF>
      <cc:Work
         rdf:about="">
        <dc:format>image/svg+xml</dc:format>
        <dc:type
           rdf:resource="http://purl.org/dc/dcmitype/StillImage" />
        <dc:title></dc:title>
      </cc:Work>
    </rdf:RDF>
  </metadata>
  <g
     transform="translate(-12.297929,-289.1401)"
     id="layer1"
     inkscape:groupmode="layer"
     inkscape:label="Layer 1">
    <g
       transform="matrix(0.03527778,0,0,-0.03527778,12.297929,349.34375)"
       id="g843">
      <path
         id="path1245"
         style="fill:#231f20;fill-opacity:1;fill-rule:nonzero;stroke:none"
         d="M 5217.08,230.641 C 5217.08,103.301 5113.86,0 4986.52,0 H 230.625 C 103.27,0 0,103.301 0,230.641 V 1475.95 c 0,127.34 103.27,230.61 230.625,230.61 H 4986.52 c 127.34,0 230.56,-103.27 230.56,-230.61 V 230.641" />
      <path
         id="path1247"
         style="fill:#ffffff;fill-opacity:1;fill-rule:nonzero;stroke:none"
         d="m 1360.47,578.531 c -27.62,-61.218 -40.84,-88.539 -76.39,-142.64 -49.63,-75.551 -119.55,-169.61 -206.19,-170.399 -77.01,-0.711 -96.777,50.117 -201.269,49.539 -104.488,-0.57 -126.312,-50.429 -203.328,-49.73 -86.648,0.801 -152.91,85.75 -202.531,161.269 -138.75,211.211 -153.246,459.082 -67.688,590.85 60.821,93.65 156.731,148.47 246.946,148.47 91.839,0 149.574,-50.37 225.507,-50.37 73.653,0 118.555,50.45 224.723,50.45 80.26,0 165.3,-43.69 225.9,-119.28 -198.53,-108.788 -166.29,-392.358 34.32,-468.159" />
      <path
         id="path1249"
         style="fill:#ffffff;fill-opacity:1;fill-rule:nonzero;stroke:none"
         d="m 1019.71,1250.34 c 38.55,49.51 67.87,119.46 57.24,190.92 -63,-4.34 -136.735,-44.43 -179.782,-96.7 -39.063,-47.46 -71.309,-117.84 -58.75,-186.23 68.789,-2.13 139.961,38.96 181.292,92.01" />
      <path
         id="path1251"
         style="fill:#ffffff;fill-opacity:1;fill-rule:nonzero;stroke:none"
         d="m 1830.32,924.422 c 6.71,-26.109 13.95,-53.231 23.26,-82.531 L 1907.14,686.77 H 1754.7 l 52.81,156.132 c 8.05,25.309 15.69,52.661 22.81,81.52 z m -47.16,96.198 -198.75,-585.038 h 91.01 l 59.34,179.641 h 192.44 l 61.02,-179.641 h 93.53 l -199.61,585.038 h -98.98" />
      <path
         id="path1253"
         style="fill:#ffffff;fill-opacity:1;fill-rule:nonzero;stroke:none"
         d="m 2316.89,795.672 c 78.91,0 114.22,-73.09 114.22,-145.52 0,-93.422 -45.06,-151.461 -117.58,-151.461 -49.51,0 -92.34,33.7 -104.28,82.141 -2.05,7.5 -3.14,17.438 -3.14,28.648 v 71.18 c 0,6.449 1.44,14.27 2.81,21.852 0.44,2.418 0.92,4.84 1.27,7.187 13.2,50.641 57.02,85.973 106.7,85.973 z m 22.05,73.289 c -60.29,0 -108.57,-23.281 -140.72,-67.512 l -3.53,58.192 h -80.96 l 0.48,-7.442 c 2.39,-36.25 3.38,-76.148 3.38,-133.437 V 267.82 h 88.52 v 210.442 c 27.46,-32.86 71.31,-51.992 120.99,-51.992 51.74,0 99.4,20.261 134.13,57.023 38.77,40.977 59.22,99.879 59.22,170.258 0,62.179 -17.76,115.949 -51.42,155.449 -32.97,38.672 -79.15,59.961 -130.09,59.961" />
      <path
         id="path1255"
         style="fill:#ffffff;fill-opacity:1;fill-rule:nonzero;stroke:none"
         d="m 2772.71,795.672 c 78.87,0 114.19,-73.09 114.19,-145.52 0,-93.422 -45.09,-151.461 -117.57,-151.461 -49.49,0 -92.36,33.7 -104.28,82.141 -2.05,7.5 -3.12,17.438 -3.12,28.648 v 71.18 c 0,6.492 1.42,14.34 2.82,21.93 0.44,2.383 0.88,4.762 1.28,7.109 13.15,50.641 56.99,85.973 106.68,85.973 z m 22.03,73.289 c -60.27,0 -108.55,-23.281 -140.73,-67.512 l -3.53,58.192 h -80.93 l 0.45,-7.442 c 2.4,-36.289 3.41,-76.148 3.41,-133.437 V 267.82 h 88.52 v 210.442 c 27.46,-32.86 71.28,-51.992 120.96,-51.992 51.73,0 99.4,20.261 134.19,57.023 38.71,40.977 59.18,99.879 59.18,170.258 0,62.179 -17.79,115.949 -51.45,155.449 -32.95,38.672 -79.13,59.961 -130.07,59.961" />
      <path
         id="path1257"
         style="fill:#ffffff;fill-opacity:1;fill-rule:nonzero;stroke:none"
         d="m 3365.77,772.723 c -82.61,32 -109.08,57.148 -109.08,103.636 0,39.141 31.1,78.614 100.61,78.614 57.34,0 94.02,-19.942 103.91,-26.082 l 7.5,-4.629 24.98,73.871 -4.94,2.887 c -14.83,8.69 -57.09,28.91 -128.9,28.91 -112.88,0 -191.72,-66.637 -191.72,-162.02 0,-76.918 49.37,-130.687 155.36,-169.23 75.12,-28.071 103.08,-56.828 103.08,-106.137 0,-55.813 -43.14,-90.441 -112.51,-90.441 -45.19,0 -91.69,13.168 -127.58,36.168 l -7.68,4.921 -23.76,-75.57 4.37,-2.891 c 33.42,-22.32 96.31,-38.46 149.59,-38.46 152.13,0 206.07,92.761 206.07,172.203 0,81.886 -43.24,132.398 -149.3,174.25" />
      <path
         id="path1259"
         style="fill:#ffffff;fill-opacity:1;fill-rule:nonzero;stroke:none"
         d="m 3674.41,960.43 -86.82,-27.258 v -73.531 h -63.55 v -70.739 h 63.55 V 572.199 c 0,-52.386 10.02,-89.097 30.65,-112.308 19.78,-21.68 50.19,-33.621 85.64,-33.621 33.46,0 57.23,6.613 68.42,10.57 l 4.96,1.75 -4.24,70.871 -8.49,-2.602 c -11.2,-3.437 -22.68,-4.757 -41.18,-4.757 -34.29,0 -48.94,21.699 -48.94,72.648 v 214.152 h 106.78 v 70.739 H 3674.41 V 960.43" />
      <path
         id="path1261"
         style="fill:#ffffff;fill-opacity:1;fill-rule:nonzero;stroke:none"
         d="m 3997.98,799.07 c 79.63,0 115.88,-77.621 115.88,-149.781 0,-88.726 -49.47,-153.137 -117.56,-153.137 h -0.86 c -67.12,0 -115.86,63.328 -115.86,150.578 0,75.821 36.63,152.34 118.4,152.34 z m 2.56,69.891 c -123.85,0 -210.33,-92.449 -210.33,-224.731 0,-128.339 83.69,-217.96 203.55,-217.96 h 0.82 c 101.33,0 210.34,70.589 210.34,225.582 0,63.007 -19.5,117.14 -56.41,156.558 -37.13,39.59 -88.32,60.551 -147.97,60.551" />
      <path
         id="path1263"
         style="fill:#ffffff;fill-opacity:1;fill-rule:nonzero;stroke:none"
         d="m 4476.03,864.84 -5.31,1.351 c -7.8,1.95 -14.16,2.77 -22.01,2.77 -46.31,0 -87.86,-27.27 -110.98,-71.262 l -2.6,61.942 h -79.43 l 0.51,-7.442 c 2.36,-35.039 3.34,-74.379 3.34,-127.457 l -0.82,-289.16 h 88.51 V 661.16 c 0,12.289 0.84,23.903 2.44,34.32 9.98,54.18 46.55,89.2 93.13,89.2 9.06,0 16.19,-0.739 23.75,-1.489 l 9.47,-0.968 v 82.617" />
      <path
         id="path1265"
         style="fill:#ffffff;fill-opacity:1;fill-rule:nonzero;stroke:none"
         d="m 4669.14,802.449 c 26.95,0 48.82,-8.34 64.98,-24.777 25.46,-25.922 29.92,-64.09 30.48,-82.41 h -201.87 c 8.22,51.117 40.19,107.187 106.41,107.187 z m 5.89,67.352 c -117.83,0 -200.13,-94.16 -200.13,-228.969 0,-129.812 81.87,-213.723 208.61,-213.723 66.64,0 113.01,14.633 140.14,26.883 l 5.33,2.41 -17.01,65.95 -7.39,-2.969 c -24.12,-9.82 -56.19,-19.84 -110.89,-19.84 -38.46,0 -127.15,12.687 -132.58,128.34 l 285.7,-0.863 1.15,5.66 c 1.8,8.992 2.66,21.113 2.66,36.941 0,92.34 -45.98,200.18 -175.59,200.18" />
      <path
         id="path1267"
         style="fill:#ffffff;fill-opacity:1;fill-rule:nonzero;stroke:none"
         d="m 1624.58,1175 c 10.04,-1.64 24.65,-1.64 40.18,-1.64 84.9,-0.4 131,42.72 131,117.49 0.46,66.14 -40.63,106.82 -124.61,106.82 -20.53,0 -36.07,-1.66 -46.57,-3.7 z m -40.17,245.26 c 24.66,3.29 53.42,5.75 84.9,5.75 57.07,0 97.7,-11.51 124.63,-34.11 27.84,-22.58 43.83,-55.03 43.83,-99.82 0,-45.19 -15.99,-82.15 -44.28,-107.63 -29.22,-25.88 -76.7,-39.85 -136.49,-39.85 -28.76,0 -52.04,0.82 -72.59,3.29 v 272.37" />
      <path
         id="path1269"
         style="fill:#ffffff;fill-opacity:1;fill-rule:nonzero;stroke:none"
         d="m 1981.5,1169.67 c 38.34,0 67.11,32.45 67.11,77.64 0,33.69 -18.72,76 -66.19,76 -47.03,0 -67.57,-39.44 -67.57,-77.24 0,-43.54 27.39,-76.4 66.19,-76.4 z m -1.37,-27.12 c -59.35,0 -105.9,39.43 -105.9,102.28 0,66.56 48.84,105.59 109.54,105.59 63.47,0 106.36,-41.48 106.36,-101.88 0,-73.95 -57.05,-105.99 -109.53,-105.99 h -0.47" />
      <path
         id="path1271"
         style="fill:#ffffff;fill-opacity:1;fill-rule:nonzero;stroke:none"
         d="m 2153.69,1345.91 29.66,-100.67 c 5.93,-22.17 11.88,-43.12 15.98,-63.67 h 1.37 c 5.02,20.14 12.32,41.5 19.63,63.26 l 36.06,101.08 h 33.79 l 34.24,-99.42 c 8.2,-23.42 14.6,-44.78 19.62,-64.92 h 1.37 c 3.65,20.14 9.59,41.09 16.89,64.5 l 31.48,99.84 h 39.73 l -71.21,-198.84 h -36.52 l -33.77,94.89 c -7.76,22.6 -14.16,42.32 -19.65,65.74 h -0.9 c -5.48,-23.83 -12.32,-44.78 -20.1,-66.15 l -35.59,-94.48 h -36.52 l -66.66,198.84 h 41.1" />
      <path
         id="path1273"
         style="fill:#ffffff;fill-opacity:1;fill-rule:nonzero;stroke:none"
         d="m 2473.71,1292.08 c 0,20.96 -0.46,37.38 -1.84,53.83 h 35.62 l 2.27,-32.47 h 0.92 c 10.96,18.49 36.51,36.98 73.03,36.98 30.58,0 78.05,-16.43 78.05,-84.63 v -118.72 h -40.14 v 114.62 c 0,32.04 -13.27,59.14 -51.15,59.14 -26.01,0 -46.57,-16.84 -53.85,-36.96 -1.83,-4.52 -2.75,-11.09 -2.75,-16.85 v -119.95 h -40.16 v 145.01" />
      <path
         id="path1275"
         style="fill:#ffffff;fill-opacity:1;fill-rule:nonzero;stroke:none"
         d="m 2727.05,1438.74 h 40.17 v -291.67 h -40.17 v 291.67" />
      <path
         id="path1277"
         style="fill:#ffffff;fill-opacity:1;fill-rule:nonzero;stroke:none"
         d="m 2925.15,1169.67 c 38.35,0 67.12,32.45 67.12,77.64 0,33.69 -18.72,76 -66.18,76 -47.03,0 -67.58,-39.44 -67.58,-77.24 0,-43.54 27.39,-76.4 66.2,-76.4 z m -1.35,-27.12 c -59.33,0 -105.89,39.43 -105.89,102.28 0,66.56 48.81,105.59 109.55,105.59 63.43,0 106.34,-41.48 106.34,-101.88 0,-73.95 -57.06,-105.99 -109.55,-105.99 h -0.45" />
      <path
         id="path1279"
         style="fill:#ffffff;fill-opacity:1;fill-rule:nonzero;stroke:none"
         d="m 3200.91,1248.54 c -43.83,0.82 -93.58,-6.17 -93.58,-44.78 0,-23.83 17.34,-34.51 37.43,-34.51 29.21,0 47.93,16.43 54.31,33.28 1.39,3.69 1.84,7.81 1.84,11.5 z m 39.24,-53.82 c 0,-17.25 0.92,-34.08 3.2,-47.65 h -36.07 l -3.65,25.05 h -1.35 c -11.87,-15.61 -36.08,-29.57 -67.56,-29.57 -44.72,0 -67.56,28.34 -67.56,57.11 0,48.06 47.46,74.35 132.82,73.94 v 4.11 c 0,16.42 -5,46.41 -50.2,46 -21.02,0 -42.45,-5.32 -57.97,-14.77 l -9.14,24.22 c 18.26,10.27 45.19,17.26 73.05,17.26 68.01,0 84.43,-41.48 84.43,-81.35 v -74.35" />
      <path
         id="path1281"
         style="fill:#ffffff;fill-opacity:1;fill-rule:nonzero;stroke:none"
         d="m 3455.17,1264.97 c 0,4.93 -0.45,10.68 -1.84,15.61 -5.91,22.59 -27.83,41.49 -57.95,41.49 -41.55,0 -66.21,-32.86 -66.21,-76.42 0,-40.66 22.39,-73.92 65.29,-73.92 26.94,0 51.59,16.42 58.87,43.12 1.39,4.93 1.84,9.87 1.84,15.61 z m 40.16,173.77 v -240.31 c 0,-17.67 0.49,-37.79 1.83,-51.36 h -36.05 l -1.82,34.5 h -0.92 c -12.32,-22.18 -38.8,-39.02 -74.86,-39.02 -53.42,0 -94.96,40.66 -94.96,101.06 -0.46,66.56 45.66,106.81 99.05,106.81 34.26,0 57.08,-14.39 66.67,-29.99 h 0.9 v 118.31 h 40.16" />
      <path
         id="path1283"
         style="fill:#ffffff;fill-opacity:1;fill-rule:nonzero;stroke:none"
         d="m 3750.07,1169.67 c 38.34,0 67.09,32.45 67.09,77.64 0,33.69 -18.69,76 -66.17,76 -47.03,0 -67.56,-39.44 -67.56,-77.24 0,-43.54 27.39,-76.4 66.17,-76.4 z m -1.38,-27.12 c -59.34,0 -105.9,39.43 -105.9,102.28 0,66.56 48.87,105.59 109.55,105.59 63.48,0 106.37,-41.48 106.37,-101.88 0,-73.95 -57.07,-105.99 -109.54,-105.99 h -0.48" />
      <path
         id="path1285"
         style="fill:#ffffff;fill-opacity:1;fill-rule:nonzero;stroke:none"
         d="m 3909.41,1292.08 c 0,20.96 -0.47,37.38 -1.84,53.83 h 35.61 l 2.3,-32.47 h 0.9 c 10.96,18.49 36.51,36.98 73.03,36.98 30.59,0 78.07,-16.43 78.07,-84.63 v -118.72 h -40.18 v 114.62 c 0,32.04 -13.22,59.14 -51.13,59.14 -26,0 -46.57,-16.84 -53.87,-36.96 -1.82,-4.52 -2.73,-11.09 -2.73,-16.85 v -119.95 h -40.16 v 145.01" />
      <path
         id="path1287"
         style="fill:#ffffff;fill-opacity:1;fill-rule:nonzero;stroke:none"
         d="m 4307.92,1393.55 v -47.64 h 57.5 v -27.52 h -57.5 v -107.24 c 0,-24.64 7.78,-38.61 30.14,-38.61 10.94,0 17.35,0.82 23.28,2.46 l 1.82,-27.52 c -7.75,-2.46 -20.08,-4.93 -35.61,-4.93 -18.71,0 -33.79,5.75 -43.38,15.19 -10.95,11.1 -15.5,28.77 -15.5,52.19 v 108.46 h -34.24 v 27.52 h 34.24 v 36.55 l 39.25,11.09" />
      <path
         id="path1289"
         style="fill:#ffffff;fill-opacity:1;fill-rule:nonzero;stroke:none"
         d="m 4410.64,1438.74 h 40.16 v -124.06 h 0.93 c 6.37,10.27 16.41,19.71 28.77,25.47 11.86,6.56 25.98,10.27 41.08,10.27 29.65,0 77.13,-16.43 77.13,-85.04 v -118.31 h -40.16 v 114.2 c 0,32.46 -13.24,59.16 -51.13,59.16 -26.02,0 -46.1,-16.44 -53.87,-36.15 -2.29,-4.93 -2.75,-10.27 -2.75,-17.26 v -119.95 h -40.16 v 291.67" />
      <path
         id="path1291"
         style="fill:#ffffff;fill-opacity:1;fill-rule:nonzero;stroke:none"
         d="m 4804.16,1266.2 c 0.42,22.6 -10.51,58.75 -55.26,58.75 -41.09,0 -58.44,-33.69 -61.62,-58.75 z m -117.35,-25.88 c 0.94,-48.88 35.18,-69.02 75.33,-69.02 28.75,0 46.57,4.53 61.19,9.87 l 7.31,-25.47 c -14.18,-5.75 -38.83,-12.74 -73.97,-12.74 -67.57,0 -108.65,40.68 -108.65,100.23 0,60.39 39.73,107.64 104.06,107.64 72.15,0 90.84,-57.1 90.84,-93.67 0,-7.39 -0.42,-13.15 -1.34,-17.25 l -154.77,0.41" />
    </g>
  </g>
</svg>
