<?xml version="1.0" encoding="UTF-8" standalone="no"?>
<svg
   xmlns:dc="http://purl.org/dc/elements/1.1/"
   xmlns:cc="http://creativecommons.org/ns#"
   xmlns:rdf="http://www.w3.org/1999/02/22-rdf-syntax-ns#"
   xmlns:svg="http://www.w3.org/2000/svg"
   xmlns="http://www.w3.org/2000/svg"
   xmlns:sodipodi="http://sodipodi.sourceforge.net/DTD/sodipodi-0.dtd"
   xmlns:inkscape="http://www.inkscape.org/namespaces/inkscape"
   sodipodi:docname="logo-black.svg"
   inkscape:version="1.1-dev (bc69992, 2020-04-15)"
   id="svg8"
   version="1.1"
   viewBox="0 0 705.5556 292.80557"
   height="292.80557mm"
   width="705.5556mm">
  <defs
     id="defs2">
    <rect
       id="rect857"
       height="150.37151"
       width="727.60417"
       y="288.52183"
       x="-268.11115" />
    <rect
       id="rect851"
       height="167.56943"
       width="707.76041"
       y="288.52183"
       x="-268.11115" />
  </defs>
  <sodipodi:namedview
     inkscape:window-maximized="0"
     inkscape:window-y="0"
     inkscape:window-x="0"
     inkscape:window-height="900"
     inkscape:window-width="1440"
     showgrid="false"
     inkscape:current-layer="layer1"
     inkscape:document-units="mm"
     inkscape:cy="528.77356"
     inkscape:cx="1331.4758"
     inkscape:zoom="0.29857056"
     inkscape:pageshadow="2"
     inkscape:pageopacity="0.0"
     borderopacity="1.0"
     bordercolor="#666666"
     pagecolor="#ffffff"
     id="base" />
  <metadata
     id="metadata5">
    <rdf:RDF>
      <cc:Work
         rdf:about="">
        <dc:format>image/svg+xml</dc:format>
        <dc:type
           rdf:resource="http://purl.org/dc/dcmitype/StillImage" />
        <dc:title></dc:title>
      </cc:Work>
    </rdf:RDF>
  </metadata>
  <g
     transform="translate(268.11115,4.2837386)"
     id="layer1"
     inkscape:groupmode="layer"
     inkscape:label="Layer 1">
    <path
       sodipodi:nodetypes="ccsscsccsccsscsccsccsssssccsscsscccsscsscssscsscccccsssscscsccscsscssccsccccccsccsscssssccscscsccsc"
       id="path847"
       d="m -96.298323,-3.7429012 c -12.705647,2.28681 -22.689607,13.6642 -24.240777,26.2944602 -1.55469,12.66013 -0.10089,26.39553 -0.10089,39.15833 v 78.316671 c 0,16.53364 -1.45591,33.02459 14.46389,43.14649 9.482317,6.02862 21.046367,4.47851 31.749997,4.47851 h 62.44167 186.619463 57.15 c 9.13695,0 20.08011,1.62843 28.92778,-0.85654 12.03678,-3.38208 21.28661,-13.38545 22.82825,-25.95457 1.58398,-12.88732 0.10231,-26.87179 0.10231,-39.86389 V 41.248779 c 0,-16.47331 0.62442,-33.1261202 -16.22778,-42.05760022 -9.59203,-5.08387998 -21.9322,-3.09795998 -32.45556,-3.09795998 h -67.38056 -178.505563 -57.15001 c -9.00465,0 -19.36644,-1.43001 -28.22222,0.16388 m 14.11111,11.93128 c 12.00679,-1.41668 24.94527,-0.10071 37.04167,-0.10071 h 73.730558 c 13.803837,0 30.948137,-2.89867 40.757127,9.1722202 8.1354,10.0113 5.45676,25.72314 5.45676,37.74722 v 62.794451 c 0,11.09098 1.11196,22.87799 -0.45861,33.86667 -1.43475,10.03617 -9.96632,18.56775 -20.0025,20.0025 -12.78961,1.82809 -26.599087,0.45861 -39.511105,0.45861 h -74.7889 c -13.95553,0 -31.5408,3.03777 -41.462677,-9.17222 -7.86024,-9.67246 -5.45677,-24.36777 -5.45677,-35.98334 V 59.240439 c 0,-10.93082 -1.92405,-24.0598 1.42135,-34.57222 3.44558,-10.82766 12.888027,-15.2545002 23.273097,-16.4798302 m 193.322243,0.35277 c 12.00502,-1.41668 24.9449,-0.10072 37.04166,-0.10072 h 73.73056 c 13.8042,0 30.9492,-2.89866 40.75642,9.1722302 8.13506,10.0113 5.45748,25.72314 5.45748,37.74722 v 62.794451 c 0,11.09098 1.11125,22.87799 -0.45862,33.86667 -1.4358,10.03617 -9.96597,18.56775 -20.0025,20.0025 -12.78819,1.82809 -26.59944,0.45861 -39.51111,0.45861 h -74.7889 c -13.95588,0 -31.54186,3.03777 -41.461973,-9.17222 -7.86095,-9.67247 -5.45748,-24.36778 -5.45748,-35.98334 V 59.593219 c 0,-10.93117 -1.924045,-24.0598 1.4217,-34.57222 C 91.308907,14.193329 100.74925,9.7664988 111.13503,8.5411588 M -13.748313,134.73489 h -57.15001 V 48.657109 H 31.054462 c 11.11744,0 31.3503,3.62056 29.9533,-13.40556 -0.35454,-4.3204 -4.0199,-8.09416 -8.08108,-9.24679 -2.50014,-0.70955 -5.53438,-0.2782 -8.11389,-0.2782 H 29.290575 -63.137213 c -8.76794,0 -26.43082,-3.63616 -29.36487,7.7611 -0.76094,2.95487 -0.26846,6.48935 -0.26846,9.525 v 18.34445 59.266671 20.10834 c 0,3.54788 -0.51788,7.40692 1.38677,10.58298 4.20405,7.0111 14.27303,4.93924 21.19101,4.93924 h 55.03333 c 6.2963796,0 15.94096962,1.93569 20.6487896,-3.23638 3.7440402,-4.11269 2.6345502,-10.34204 2.6345502,-15.46084 v -35.27778 c 0,-4.668671 1.15676,-11.050421 -1.4580302,-15.169451 -4.36669,-6.87811 -15.5695,-6.6936 -19.3572696,0.70556 -1.35396,2.64512 -1.05692,5.59258 -1.05692,8.46666 v 14.816671 23.63611 M 233.19614,48.657109 v 86.077781 h -57.15 V 111.09878 96.282109 c 0,-2.87408 0.29633,-5.82154 -1.05833,-8.46666 -3.78531,-7.39916 -14.98953,-7.58367 -19.35692,-0.70556 -2.61408,4.11939 -1.45697,10.50078 -1.45697,15.169451 v 35.27778 c 0,5.1188 -1.10773,11.34815 2.63525,15.46084 4.70605,5.17207 14.351,3.23638 20.64808,3.23638 h 55.03334 c 6.91797,0 16.98625,2.07186 21.19136,-4.93924 1.905,-3.17606 1.38642,-7.0351 1.38642,-10.58298 V 120.62378 61.357109 43.012659 c 0,-3.03565 0.49389,-6.57048 -0.26811,-9.525 -2.93512,-11.39726 -20.5987,-7.7611 -29.36523,-7.7611 h -92.42778 -15.52222 c -2.57881,0 -5.6127,-0.43138 -8.11389,0.2782 -4.06048,1.15263 -7.72584,4.92639 -8.08214,9.24679 -1.397009,17.02612 18.83833,13.40556 29.95435,13.40556 h 101.95279"
       style="fill:#050505;stroke:none;stroke-width:0.352778" />
    <text
       style="fill:black;fill-opacity:1;line-height:1.25;stroke:none;font-family:sans-serif;font-style:normal;font-weight:normal;font-size:10.58333333000000032px;white-space:pre;shape-inside:url(#rect851);"
       id="text849"
       xml:space="preserve" />
    <text
       transform="translate(0.42731162,-76.947422)"
       style="font-style:normal;font-weight:normal;font-size:63.50000000000000000px;line-height:1.25;font-family:sans-serif;white-space:pre;shape-inside:url(#rect857);fill:#000000;fill-opacity:1;stroke:none;"
       id="text855"
       xml:space="preserve"><tspan
         x="-268.11133"
         y="348.89707"><tspan
           style="font-style:normal;font-variant:normal;font-weight:bold;font-stretch:normal;font-size:67.0278px;font-family:Arial;-inkscape-font-specification:'Arial, Bold';font-variant-ligatures:normal;font-variant-caps:normal;font-variant-numeric:normal;font-variant-east-asian:normal">Dinámica y Desarrollo</tspan><tspan>
</tspan></tspan></text>
  </g>
</svg>
