<?xml version="1.0" encoding="UTF-8" standalone="no"?>
<svg
   xmlns:dc="http://purl.org/dc/elements/1.1/"
   xmlns:cc="http://creativecommons.org/ns#"
   xmlns:rdf="http://www.w3.org/1999/02/22-rdf-syntax-ns#"
   xmlns:svg="http://www.w3.org/2000/svg"
   xmlns="http://www.w3.org/2000/svg"
   xmlns:xlink="http://www.w3.org/1999/xlink"
   xmlns:sodipodi="http://sodipodi.sourceforge.net/DTD/sodipodi-0.dtd"
   xmlns:inkscape="http://www.inkscape.org/namespaces/inkscape"
   width="705.5556mm"
   height="292.80557mm"
   viewBox="0 0 705.5556 292.80557"
   version="1.1"
   id="svg8"
   inkscape:version="1.1-dev (bc69992, 2020-04-15)"
   sodipodi:docname="logo.svg">
  <defs
     id="defs2">
    <linearGradient
       id="linearGradient927"
       inkscape:collect="always">
      <stop
         id="stop923"
         offset="0"
         style="stop-color:#991c20;stop-opacity:1;" />
      <stop
         id="stop925"
         offset="1"
         style="stop-color:#991c20;stop-opacity:0;" />
    </linearGradient>
    <linearGradient
       id="linearGradient911"
       inkscape:collect="always">
      <stop
         id="stop907"
         offset="0"
         style="stop-color:#000000;stop-opacity:1" />
      <stop
         id="stop909"
         offset="1"
         style="stop-color:#b5b5b5;stop-opacity:0;" />
    </linearGradient>
    <rect
       x="-268.11115"
       y="288.52183"
       width="727.60417"
       height="150.37151"
       id="rect857" />
    <rect
       x="-268.11115"
       y="288.52183"
       width="707.76041"
       height="167.56943"
       id="rect851" />
    <linearGradient
       gradientUnits="userSpaceOnUse"
       y2="28.713184"
       x2="257.40814"
       y1="102.26503"
       x1="259.36969"
       id="linearGradient913"
       xlink:href="#linearGradient911"
       inkscape:collect="always" />
    <linearGradient
       gradientUnits="userSpaceOnUse"
       y2="27.087938"
       x2="183.44624"
       y1="95.322784"
       x1="184.51994"
       id="linearGradient929"
       xlink:href="#linearGradient927"
       inkscape:collect="always" />
  </defs>
  <sodipodi:namedview
     inkscape:snap-page="true"
     inkscape:lockguides="false"
     id="base"
     pagecolor="#ffffff"
     bordercolor="#666666"
     borderopacity="1.0"
     inkscape:pageopacity="0.0"
     inkscape:pageshadow="2"
     inkscape:zoom="0.29857056"
     inkscape:cx="1289.6096"
     inkscape:cy="528.77356"
     inkscape:document-units="mm"
     inkscape:current-layer="layer3"
     showgrid="false"
     inkscape:window-width="1440"
     inkscape:window-height="855"
     inkscape:window-x="0"
     inkscape:window-y="23"
     inkscape:window-maximized="0" />
  <metadata
     id="metadata5">
    <rdf:RDF>
      <cc:Work
         rdf:about="">
        <dc:format>image/svg+xml</dc:format>
        <dc:type
           rdf:resource="http://purl.org/dc/dcmitype/StillImage" />
        <dc:title></dc:title>
      </cc:Work>
    </rdf:RDF>
  </metadata>
  <g
     style="display:inline"
     inkscape:label="d2"
     inkscape:groupmode="layer"
     id="layer1"
     transform="translate(268.11115,4.2837386)">
    <path
       style="fill:url(#linearGradient929);stroke:none;stroke-width:0.352778;fill-opacity:1"
       d="m 233.19614,48.657109 v 86.077781 h -57.15 V 111.09878 96.282109 c 0,-2.87408 0.29633,-5.82154 -1.05833,-8.46666 -3.78531,-7.39916 -14.98953,-7.58367 -19.35692,-0.70556 -2.61408,4.11939 -1.45697,10.50078 -1.45697,15.169451 v 35.27778 c 0,5.1188 -1.10773,11.34815 2.63525,15.46084 4.70605,5.17207 14.351,3.23638 20.64808,3.23638 h 55.03334 c 6.91797,0 16.98625,2.07186 21.19136,-4.93924 1.905,-3.17606 1.38642,-7.0351 1.38642,-10.58298 V 120.62378 61.357109 43.012659 c 0,-3.03565 0.49389,-6.57048 -0.26811,-9.525 -2.93512,-11.39726 -20.5987,-7.7611 -29.36523,-7.7611 h -92.42778 -15.52222 c -2.57881,0 -5.6127,-0.43138 -8.11389,0.2782 -4.06048,1.15263 -7.72584,4.92639 -8.08214,9.24679 -1.397009,17.02612 18.83833,13.40556 29.95435,13.40556 h 101.95279"
       id="path847"
       sodipodi:nodetypes="cccccsccsscssssccscscsccs" />
    <text
       xml:space="preserve"
       id="text849"
       style="font-style:normal;font-weight:normal;font-size:10.58329999999999949px;line-height:1.25;font-family:sans-serif;white-space:pre;shape-inside:url(#rect851);fill:#000000;fill-opacity:1;stroke:none;" />
  </g>
  <g
     style="display:inline"
     inkscape:label="Texto"
     id="layer4"
     inkscape:groupmode="layer">
    <text
       xml:space="preserve"
       id="text855"
       style="font-style:normal;font-weight:normal;font-size:63.50000000000000000px;line-height:1.25;font-family:sans-serif;white-space:pre;shape-inside:url(#rect857);display:inline;fill:#000000;fill-opacity:1;stroke:none;"
       transform="translate(268.53846,-72.663682)"><tspan
         x="-268.11133"
         y="348.89707"><tspan
           style="font-style:normal;font-variant:normal;font-weight:bold;font-stretch:normal;font-size:67.0278px;font-family:Arial;-inkscape-font-specification:'Arial, Bold';font-variant-ligatures:normal;font-variant-caps:normal;font-variant-numeric:normal;font-variant-east-asian:normal;fill:#000000;fill-opacity:1">Dinámica y Desarrollo</tspan><tspan
           style="fill:#000000;fill-opacity:1">
</tspan></tspan></text>
  </g>
  <g
     style="display:inline"
     inkscape:label="d1"
     id="layer3"
     inkscape:groupmode="layer">
    <path
       sodipodi:nodetypes="cccsssscscsccscsscssccscc"
       id="path847-8"
       d="M 254.36283,139.01863 H 197.21282 V 52.940847 h 101.95279 c 11.11744,0 31.3503,3.620561 29.9533,-13.405559 -0.35454,-4.3204 -4.0199,-8.09416 -8.08108,-9.246791 -2.50014,-0.709549 -5.53438,-0.278198 -8.11389,-0.278198 h -15.52222 -92.42779 c -8.76793,0 -26.43081,-3.636161 -29.36486,7.761099 -0.76095,2.95487 -0.26847,6.489348 -0.26847,9.525 v 18.344449 59.266673 20.10834 c 0,3.54788 -0.51788,7.40692 1.38678,10.58298 4.20404,7.0111 14.27303,4.93924 21.19101,4.93924 h 55.03333 c 6.29638,0 15.94096,1.93569 20.64879,-3.23638 3.74403,-4.11269 2.63454,-10.34204 2.63454,-15.46084 v -35.27778 c 0,-4.66867 1.15677,-11.050423 -1.45802,-15.169451 -4.3667,-6.878111 -15.56951,-6.693601 -19.35728,0.705559 -1.35396,2.645119 -1.05692,5.59258 -1.05692,8.466662 v 14.81667 z"
       style="display:inline;fill:url(#linearGradient913);stroke:none;stroke-width:0.352777;fill-opacity:1" />
  </g>
  <g
     style="display:inline"
     inkscape:label="cuadro"
     id="layer2"
     inkscape:groupmode="layer">
    <path
       sodipodi:nodetypes="ccsscsccsccsscsccsccsssssccsscsscccsscsscssscsscc"
       id="path847-9"
       d="m 171.81282,0.5408374 c -12.70564,2.28681 -22.6896,13.6641996 -24.24077,26.2944596 -1.55469,12.660132 -0.10089,26.395531 -0.10089,39.15833 V 144.3103 c 0,16.53364 -1.45591,33.02459 14.46389,43.14649 9.48231,6.02862 21.04637,4.47851 31.74999,4.47851 h 62.44168 186.61946 57.15 c 9.13694,0 20.08011,1.62843 28.92777,-0.85654 12.0368,-3.38208 21.28663,-13.38545 22.82825,-25.95457 1.58398,-12.88732 0.10232,-26.87179 0.10232,-39.86389 V 45.532516 c 0,-16.473309 0.62441,-33.126119 -16.22777,-42.0575986 -9.59205,-5.08388 -21.93221,-3.09796 -32.45557,-3.09796 H 435.69062 257.18505 200.03504 c -9.00465,0 -19.36643,-1.43001 -28.22222,0.16388 m 14.11111,11.9312796 c 12.0068,-1.41668 24.94528,-0.10071 37.04168,-0.10071 h 73.73055 c 13.80384,0 30.94814,-2.8986696 40.75713,9.17222 8.1354,10.0113 5.45676,25.723141 5.45676,37.74722 V 122.0853 c 0,11.09098 1.11196,22.87799 -0.45861,33.86667 -1.43475,10.03617 -9.96632,18.56775 -20.0025,20.0025 -12.78961,1.82809 -26.59909,0.45861 -39.51111,0.45861 h -74.7889 c -13.95553,0 -31.5408,3.03777 -41.46267,-9.17222 -7.86024,-9.67246 -5.45677,-24.36777 -5.45677,-35.98334 V 63.524178 c 0,-10.930821 -1.92405,-24.059801 1.42135,-34.572221 3.44558,-10.82766 12.88802,-15.2545 23.27309,-16.47983 m 193.32225,0.35277 c 12.00502,-1.41668 24.9449,-0.10072 37.04167,-0.10072 h 73.73054 c 13.80421,0 30.94921,-2.8986596 40.75644,9.17223 8.13504,10.011301 5.45748,25.72314 5.45748,37.74722 v 62.794453 c 0,11.09098 1.11125,22.87799 -0.45863,33.86667 -1.43581,10.03617 -9.96598,18.56775 -20.0025,20.0025 -12.78818,1.82809 -26.59943,0.45861 -39.5111,0.45861 h -74.78891 c -13.95588,0 -31.54186,3.03777 -41.46197,-9.17222 -7.86095,-9.67247 -5.45748,-24.36778 -5.45748,-35.98334 V 63.876957 c 0,-10.93117 -1.92405,-24.0598 1.42169,-34.57222 3.44664,-10.82767 12.88699,-15.2545 23.27277,-16.47984"
       style="fill:#b5b5b5;stroke:none;stroke-width:0.352777;fill-opacity:1" />
  </g>
</svg>
